<svg width="156" height="166" viewBox="0 0 156 166" fill="none" xmlns="http://www.w3.org/2000/svg">
<path d="M4.22651 112.475H4.0742C4.28997 112.557 4.22651 112.745 4.22651 112.475ZM102.502 114.517V108.543C101.005 108.226 99.507 107.886 98.0473 107.499C86.0786 104.33 75.5694 98.2969 66.7737 90.48C67.2433 89.811 67.7256 89.142 68.2333 88.4965C86.2055 66.6893 122.15 64.9757 142.318 84.2595H153.132C149.286 78.2971 144.31 73.2737 138.815 69.4475C117.593 54.7293 88.122 56.8889 69.6676 76.1845C66.8753 79.1422 64.3114 82.4755 62.2426 86.1374C52.1777 75.7737 44.7654 62.9921 40.5135 49.7881H28.7986C40.6912 33.1334 57.8511 20.0467 79.8721 13.5562C82.6771 12.7698 85.7613 12.3942 85.7613 12.3942V0C79.0471 1.46712 72.701 3.75582 66.596 6.58442C38.9651 19.4951 20.0283 42.03 10.7757 68.1095L12.908 2.30044H0L3.5792 112.475H4.0742C4.0742 112.475 4.06151 112.475 4.04882 112.475H4.22651H9.32878C9.32878 112.475 9.32878 112.475 9.31608 112.475H9.32878L9.60801 103.731C9.60801 103.731 9.60801 103.708 9.60801 103.696C11.0422 84.7876 17.2233 66.5132 27.8086 51.1496C29.4459 56.795 32.4794 63.0156 34.9163 67.2292C47.6593 89.3064 69.3122 108.191 96.3466 113.531C98.3773 113.942 100.433 114.259 102.477 114.529L102.502 114.517ZM144.704 136.853C138.307 143.977 129.752 148.648 121.071 150.937C101.284 156.113 76.8894 150.327 64.7176 130.433C61.6715 125.444 59.9961 119.787 59.8311 113.426C59.628 109.776 60.0088 106.301 60.8592 103.015C59.6661 102.24 58.4857 101.454 57.318 100.621C56.0615 108.203 56.2392 116.008 56.8992 123.754C57.8765 134.47 63.8926 143.719 70.8225 150.667C80.3163 160.08 92.7039 165.268 105.206 165.902C123.99 167.064 143.752 157.909 154.477 139.705C154.997 138.801 155.505 137.85 156 136.864H144.704V136.853Z" fill="#C7C7C7"/>
</svg>
