<svg width="292" height="292" viewBox="0 0 292 292" fill="none" xmlns="http://www.w3.org/2000/svg">
<path d="M6.94092 0H5.52686L0 5.52685V6.94101L6.94092 0Z" fill="#CCA37B"/>
<path d="M0 14.941V13.5268L13.5269 0H14.9409L0 14.941Z" fill="#CCA37B"/>
<path d="M0 21.5268V22.941L22.9409 0H21.5269L0 21.5268Z" fill="#CCA37B"/>
<path d="M0 30.941V29.5268L29.5269 0H30.9409L0 30.941Z" fill="#CCA37B"/>
<path d="M0 37.5268V38.941L38.9409 0H37.5269L0 37.5268Z" fill="#CCA37B"/>
<path d="M0 46.941V45.5268L45.5269 0H46.9409L0 46.941Z" fill="#CCA37B"/>
<path d="M0 53.5828V54.9969L54.9968 0H53.5828L0 53.5828Z" fill="#CCA37B"/>
<path d="M0 62.9969V61.5828L61.5828 0H62.9968L0 62.9969Z" fill="#CCA37B"/>
<path d="M0 69.5828V70.9969L70.9968 0H69.5828L0 69.5828Z" fill="#CCA37B"/>
<path d="M0 78.9969V77.5828L77.5828 0H78.9968L0 78.9969Z" fill="#CCA37B"/>
<path d="M0 85.5828V86.9969L86.9968 0H85.5828L0 85.5828Z" fill="#CCA37B"/>
<path d="M0 94.9969V93.5828L93.5828 0H94.9968L0 94.9969Z" fill="#CCA37B"/>
<path d="M0 101.639V103.053L103.053 0H101.639L0 101.639Z" fill="#CCA37B"/>
<path d="M0 111.053V109.639L109.639 0H111.053L0 111.053Z" fill="#CCA37B"/>
<path d="M0 117.639V119.053L119.053 0H117.639L0 117.639Z" fill="#CCA37B"/>
<path d="M0 127.053V125.639L125.639 0H127.053L0 127.053Z" fill="#CCA37B"/>
<path d="M0 133.639V135.053L135.053 0H133.639L0 133.639Z" fill="#CCA37B"/>
<path d="M0 143.053V141.639L141.639 0H143.053L0 143.053Z" fill="#CCA37B"/>
<path d="M0 149.695V151.109L151.109 0H149.695L0 149.695Z" fill="#CCA37B"/>
<path d="M0 159.109V157.695L157.695 0H159.109L0 159.109Z" fill="#CCA37B"/>
<path d="M0 165.695V167.109L167.109 0H165.695L0 165.695Z" fill="#CCA37B"/>
<path d="M0 175.109V173.695L173.695 0H175.109L0 175.109Z" fill="#CCA37B"/>
<path d="M0 181.695V183.109L183.109 0H181.695L0 181.695Z" fill="#CCA37B"/>
<path d="M0 191.109V189.695L189.695 0H191.109L0 191.109Z" fill="#CCA37B"/>
<path d="M0 197.75V199.165L199.165 0H197.75L0 197.75Z" fill="#CCA37B"/>
<path d="M0 207.165V205.75L205.75 0H207.165L0 207.165Z" fill="#CCA37B"/>
<path d="M0 213.75V215.165L215.165 0H213.75L0 213.75Z" fill="#CCA37B"/>
<path d="M0 223.165V221.75L221.75 0H223.165L0 223.165Z" fill="#CCA37B"/>
<path d="M0 229.75V231.165L231.165 0H229.75L0 229.75Z" fill="#CCA37B"/>
<path d="M0 239.165V237.75L237.75 0H239.165L122.864 116.3H122L122.027 117.137L0 239.165Z" fill="#CCA37B"/>
<path d="M122.236 123.57L0 245.806V247.221L122.281 124.94L122.236 123.57Z" fill="#CCA37B"/>
<path d="M122.488 131.319L0 253.806V255.221L122.532 132.688L122.488 131.319Z" fill="#CCA37B"/>
<path d="M134.774 120.447L134.821 118.985L253.806 0H255.22L134.774 120.447Z" fill="#CCA37B"/>
<path d="M122.74 139.067L0 261.806V263.221L122.784 140.436L122.74 139.067Z" fill="#CCA37B"/>
<path d="M134.506 128.715L134.553 127.253L261.806 0H263.22L134.506 128.715Z" fill="#CCA37B"/>
<path d="M122.991 146.815L0 269.806V271.221L123.036 148.185L122.991 146.815Z" fill="#CCA37B"/>
<path d="M134.238 136.983L134.285 135.521L269.806 0H271.22L134.238 136.983Z" fill="#CCA37B"/>
<path d="M123.243 154.563L0 277.806V279.221L123.288 155.933L123.243 154.563Z" fill="#CCA37B"/>
<path d="M133.97 145.251L134.017 143.789L277.806 0H279.22L133.97 145.251Z" fill="#CCA37B"/>
<path d="M123.495 162.312L0 285.806V287.221L123.539 163.681L123.495 162.312Z" fill="#CCA37B"/>
<path d="M133.702 153.518L133.749 152.057L285.806 0H287.22L133.702 153.518Z" fill="#CCA37B"/>
<path d="M123.748 170.114L1.8623 292H3.27637L123.793 171.484L123.748 170.114Z" fill="#CCA37B"/>
<path d="M133.432 161.844L133.48 160.383L292 1.8623V3.27644L133.432 161.844Z" fill="#CCA37B"/>
<path d="M124 177.862L9.8623 292H11.2764L124.044 179.232L124 177.862Z" fill="#CCA37B"/>
<path d="M133.164 170.112L133.212 168.651L147.066 154.796C146.006 156.264 144.986 157.757 144.005 159.272L133.164 170.112Z" fill="#CCA37B"/>
<path d="M124.252 185.611L17.8623 292H19.2764L124.296 186.98L124.252 185.611Z" fill="#CCA37B"/>
<path d="M132.896 178.38L132.944 176.918L136.144 173.718C135.771 174.548 135.408 175.382 135.055 176.221L132.896 178.38Z" fill="#CCA37B"/>
<path d="M154.074 163.788L182.036 135.826C183.028 135.276 184.033 134.742 185.053 134.224L155.488 163.788H154.074Z" fill="#CCA37B"/>
<path d="M144.994 172.868L150.507 167.355C150.626 167.703 150.749 168.052 150.875 168.401L143.332 175.944C143.869 174.909 144.423 173.884 144.994 172.868Z" fill="#CCA37B"/>
<path d="M124.503 193.359L25.8623 292H27.2764L124.548 194.729L124.503 193.359Z" fill="#CCA37B"/>
<path d="M124.755 201.107L33.8623 292H35.2764L124.8 202.477L124.755 201.107Z" fill="#CCA37B"/>
<path d="M125.007 208.856L41.8623 292H43.2764L125.051 210.225L125.007 208.856Z" fill="#CCA37B"/>
<path d="M134.113 201.163C134.256 200.543 134.403 199.924 134.556 199.306L155.393 178.47C155.558 178.783 155.723 179.09 155.886 179.39L134.113 201.163Z" fill="#CCA37B"/>
<path d="M125.26 216.658L49.9182 292H51.3323L125.305 218.028L125.26 216.658Z" fill="#CCA37B"/>
<path d="M132.315 211.017C132.391 210.465 132.47 209.915 132.553 209.365L158.323 183.595C158.502 183.887 158.682 184.178 158.864 184.468L132.315 211.017Z" fill="#CCA37B"/>
<path d="M125.512 224.406L57.9182 292H59.3323L125.556 225.776L125.512 224.406Z" fill="#CCA37B"/>
<path d="M131.542 219.79L131.589 218.329L161.478 188.44C161.671 188.718 161.864 188.996 162.06 189.273L131.542 219.79Z" fill="#CCA37B"/>
<path d="M164.859 193.06L65.9182 292H67.3323L165.479 193.853C165.271 193.59 165.064 193.325 164.859 193.06Z" fill="#CCA37B"/>
<path d="M173.152 186.18C172.967 185.893 172.783 185.606 172.601 185.318L292 65.9182V67.3324L173.152 186.18Z" fill="#CCA37B"/>
<path d="M168.46 197.458L73.9182 292H75.3323L169.12 198.213C168.898 197.962 168.679 197.711 168.46 197.458Z" fill="#CCA37B"/>
<path d="M176.424 190.908C176.224 190.637 176.025 190.364 175.827 190.091L292 73.9182V75.3324L176.424 190.908Z" fill="#CCA37B"/>
<path d="M172.282 201.636L81.9182 292H83.3323L172.981 202.351C172.747 202.114 172.514 201.875 172.282 201.636Z" fill="#CCA37B"/>
<path d="M179.949 195.383C179.734 195.127 179.52 194.869 179.308 194.61L292 81.9182V83.3324L179.949 195.383Z" fill="#CCA37B"/>
<path d="M176.328 205.591L89.9182 292H91.3323L177.066 206.266C176.819 206.042 176.573 205.817 176.328 205.591Z" fill="#CCA37B"/>
<path d="M183.729 199.604C183.499 199.362 183.27 199.12 183.042 198.876L190.853 191.065C189.067 193.038 187.388 195.168 185.89 197.442L183.729 199.604Z" fill="#CCA37B"/>
<path d="M180.633 209.341L97.9741 292H99.3882L181.413 209.975C181.152 209.765 180.892 209.554 180.633 209.341Z" fill="#CCA37B"/>
<path d="M215.557 175.831C214.878 176.021 214.203 176.226 213.531 176.443L292 97.9741V99.3883L215.557 175.831Z" fill="#CCA37B"/>
<path d="M191.321 206.654L209.211 188.763C209.96 188.461 210.716 188.177 211.478 187.91L192.102 207.286C191.84 207.077 191.58 206.866 191.321 206.654Z" fill="#CCA37B"/>
<path d="M185.148 212.826L181.711 216.263C181.995 216.451 182.28 216.638 182.565 216.824L185.972 213.416C185.696 213.221 185.422 213.024 185.148 212.826Z" fill="#CCA37B"/>
<path d="M189.916 216.058L181.803 224.171C181.785 224.647 181.776 225.127 181.778 225.611L190.786 216.602C190.495 216.422 190.205 216.241 189.916 216.058Z" fill="#CCA37B"/>
<path d="M194.955 219.019L182.194 231.78C182.252 232.189 182.318 232.595 182.39 232.998L195.875 219.513C195.567 219.35 195.26 219.186 194.955 219.019Z" fill="#CCA37B"/>
<path d="M201.585 213.803C201.288 213.63 200.992 213.454 200.697 213.277L229.085 184.889C229.553 184.886 230.022 184.889 230.49 184.898L201.585 213.803Z" fill="#CCA37B"/>
<path d="M200.288 221.686L183.761 238.214C183.883 238.56 184.01 238.904 184.143 239.245L201.264 222.124C200.938 221.98 200.613 221.834 200.288 221.686Z" fill="#CCA37B"/>
<path d="M206.802 216.586C206.485 216.432 206.17 216.277 205.855 216.119L236.616 185.358C237.029 185.412 237.442 185.471 237.853 185.535L206.802 216.586Z" fill="#CCA37B"/>
<path d="M205.948 224.026L186.28 243.694C186.422 243.942 186.568 244.188 186.718 244.433C186.748 244.482 186.778 244.531 186.808 244.58L206.985 224.403C206.638 224.28 206.293 224.154 205.948 224.026Z" fill="#CCA37B"/>
<path d="M212.379 219.009C212.04 218.878 211.702 218.745 211.365 218.609L243.3 186.674C243.671 186.772 244.04 186.874 244.408 186.98L212.379 219.009Z" fill="#CCA37B"/>
<path d="M212.019 226.011L189.525 248.505C189.731 248.771 189.94 249.034 190.15 249.294L213.127 226.317C212.757 226.217 212.387 226.115 212.019 226.011Z" fill="#CCA37B"/>
<path d="M218.402 221.042C218.037 220.937 217.674 220.828 217.313 220.717L249.349 188.681C249.684 188.815 250.017 188.954 250.348 189.096L218.402 221.042Z" fill="#CCA37B"/>
<path d="M218.473 227.557L193.274 252.756C193.51 252.992 193.749 253.225 193.99 253.454L219.66 227.784C219.264 227.711 218.868 227.636 218.473 227.557Z" fill="#CCA37B"/>
<path d="M224.502 222.942V222.543C224.223 222.484 223.945 222.424 223.666 222.364L254.772 191.258C255.074 191.426 255.375 191.596 255.674 191.77L224.502 222.942Z" fill="#CCA37B"/>
<path d="M259.66 194.37L197.534 256.496C197.801 256.702 198.069 256.905 198.34 257.104L260.47 194.974C260.202 194.769 259.932 194.568 259.66 194.37Z" fill="#CCA37B"/>
<path d="M266.98 188.464C266.738 188.234 266.493 188.007 266.247 187.783L292 162.03V163.444L266.98 188.464Z" fill="#CCA37B"/>
<path d="M264.037 197.993L202.308 259.722C202.606 259.897 202.906 260.069 203.207 260.237L265.185 198.259H264.318C264.225 198.17 264.131 198.081 264.037 197.993Z" fill="#CCA37B"/>
<path d="M270.882 192.562C270.665 192.308 270.445 192.056 270.223 191.807L292 170.03V171.444L270.882 192.562Z" fill="#CCA37B"/>
<path d="M271.771 198.259L207.615 262.415C207.946 262.558 208.278 262.697 208.611 262.833L273.185 198.259H271.771Z" fill="#CCA37B"/>
<path d="M274.354 197.09C274.163 196.81 273.969 196.532 273.773 196.257L292 178.03V179.444L274.354 197.09Z" fill="#CCA37B"/>
<path d="M200.485 270.959C200.205 270.769 199.926 270.577 199.648 270.382L178.03 292H179.444L200.485 270.959Z" fill="#CCA37B"/>
<path d="M195.931 267.513C195.676 267.298 195.423 267.08 195.171 266.859L170.03 292H171.444L195.931 267.513Z" fill="#CCA37B"/>
<path d="M191.813 263.631C191.583 263.39 191.355 263.147 191.129 262.901L162.03 292H163.444L191.813 263.631Z" fill="#CCA37B"/>
<path d="M188.1 259.344C187.893 259.08 187.688 258.814 187.485 258.545L154.03 292H155.444L188.1 259.344Z" fill="#CCA37B"/>
<path d="M184.806 254.638C184.626 254.346 184.448 254.052 184.274 253.756L146.03 292H147.444L184.806 254.638Z" fill="#CCA37B"/>
<path d="M182.01 249.379C181.864 249.051 181.721 248.722 181.583 248.391L137.974 292H139.388L182.01 249.379Z" fill="#CCA37B"/>
<path d="M179.914 243.474C179.815 243.098 179.721 242.72 179.634 242.34L129.974 292H131.388L179.914 243.474Z" fill="#CCA37B"/>
<path d="M178.803 236.585C178.769 236.146 178.736 235.708 178.705 235.269L121.974 292H123.388L178.803 236.585Z" fill="#CCA37B"/>
<path d="M178.409 228.979C178.4 228.514 178.393 228.049 178.39 227.584L113.974 292H115.388L178.409 228.979Z" fill="#CCA37B"/>
<path d="M178.596 220.792C178.633 220.278 178.676 219.764 178.723 219.251L105.974 292H107.388L178.596 220.792Z" fill="#CCA37B"/>
<path d="M204.575 273.455C204.88 273.623 205.187 273.788 205.495 273.949L187.444 292H186.03L204.575 273.455Z" fill="#CCA37B"/>
<path d="M214.597 264.847C214.228 264.748 213.86 264.644 213.494 264.536L292 186.03V187.444L214.597 264.847Z" fill="#CCA37B"/>
<path d="M210.027 276.059L194.086 292H195.5L211.039 276.461C210.701 276.33 210.363 276.196 210.027 276.059Z" fill="#CCA37B"/>
<path d="M221.295 266.205C220.885 266.148 220.475 266.086 220.065 266.02L292 194.086V195.5L221.295 266.205Z" fill="#CCA37B"/>
<path d="M215.994 278.092L202.086 292H203.5L217.113 278.387C216.739 278.293 216.366 278.195 215.994 278.092Z" fill="#CCA37B"/>
<path d="M228.77 266.73C228.306 266.728 227.842 266.721 227.378 266.708L292 202.086V203.5L228.77 266.73Z" fill="#CCA37B"/>
<path d="M222.622 279.464L210.086 292H211.5L223.875 279.625C223.457 279.576 223.039 279.523 222.622 279.464Z" fill="#CCA37B"/>
<path d="M237.399 266.101C236.855 266.183 236.31 266.257 235.763 266.323L292 210.086V211.5L237.399 266.101Z" fill="#CCA37B"/>
<path d="M230.087 279.999L218.086 292H219.5L231.512 279.988C231.037 279.998 230.562 280.002 230.087 279.999Z" fill="#CCA37B"/>
<path d="M248.207 263.293C247.482 263.568 246.753 263.825 246.021 264.065L292 218.086V219.5L248.207 263.293Z" fill="#CCA37B"/>
<path d="M238.753 279.333L226.086 292H227.5L240.47 279.03C239.899 279.141 239.326 279.242 238.753 279.333Z" fill="#CCA37B"/>
<path d="M268.636 250.864H267.221L292 226.086V227.5L268.636 250.864Z" fill="#CCA37B"/>
<path d="M249.715 276.371L234.086 292H235.5L252.13 275.37C251.332 275.724 250.526 276.058 249.715 276.371Z" fill="#CCA37B"/>
<path d="M276.636 250.864H275.221L292 234.086V235.5L276.636 250.864Z" fill="#CCA37B"/>
<path d="M262.655 184.789C262.387 184.584 262.117 184.383 261.846 184.184L292 154.03V155.444L262.655 184.789Z" fill="#CCA37B"/>
<path d="M257.889 181.555L292 147.444V146.03L256.999 181.031C257.297 181.203 257.593 181.378 257.889 181.555Z" fill="#CCA37B"/>
<path d="M252.618 178.77L292 139.388V137.974L251.641 178.333C251.968 178.476 252.293 178.621 252.618 178.77Z" fill="#CCA37B"/>
<path d="M246.869 176.519L292 131.388V129.974L245.794 176.18C246.153 176.289 246.511 176.402 246.869 176.519Z" fill="#CCA37B"/>
<path d="M240.524 174.864L292 123.388V121.974L239.331 174.643C239.729 174.712 240.127 174.786 240.524 174.864Z" fill="#CCA37B"/>
<path d="M233.44 173.949L292 115.388V113.974L232.093 173.881C232.542 173.898 232.991 173.92 233.44 173.949Z" fill="#CCA37B"/>
<path d="M220.33 185.644L195.86 210.114C196.136 210.309 196.414 210.503 196.693 210.695L221.997 185.391C221.44 185.467 220.884 185.551 220.33 185.644Z" fill="#CCA37B"/>
<path d="M225.34 174.049L292 107.388V105.974L223.764 174.21C224.288 174.149 224.814 174.095 225.34 174.049Z" fill="#CCA37B"/>
<path d="M200.723 182.609C198.501 184.079 196.368 185.734 194.344 187.574L292 89.9182V91.3324L200.723 182.609Z" fill="#CCA37B"/>
<path d="M170.138 181.194C169.968 180.892 169.799 180.589 169.633 180.286L292 57.9182V59.3324L170.138 181.194Z" fill="#CCA37B"/>
<path d="M167.39 175.942L292 51.3324V49.9182L166.934 174.985C167.084 175.304 167.236 175.623 167.39 175.942Z" fill="#CCA37B"/>
<path d="M164.909 170.367L292 43.2765V41.8623L207.761 126.101V126.394C207.761 126.394 207.64 126.409 207.424 126.439L164.505 169.357C164.638 169.694 164.772 170.031 164.909 170.367Z" fill="#CCA37B"/>
<path d="M162.753 164.523L198.743 128.533C198.021 128.772 197.303 129.018 196.592 129.27L162.074 163.788H162.513C162.592 164.033 162.672 164.278 162.753 164.523Z" fill="#CCA37B"/>
<path d="M152.775 173.087L138.115 187.747C137.844 188.478 137.581 189.213 137.326 189.95L153.216 174.061C153.067 173.739 152.92 173.414 152.775 173.087Z" fill="#CCA37B"/>
<path d="M207.761 118.101V119.515L292 35.2765V33.8623L207.761 118.101Z" fill="#CCA37B"/>
<path d="M204.49 114.786C203.837 114.957 203.187 115.136 202.54 115.322L292 25.8623V27.2765L204.49 114.786Z" fill="#CCA37B"/>
<path d="M192.346 118.93C191.509 119.281 190.677 119.642 189.849 120.013L292 17.8623V19.2764L192.346 118.93Z" fill="#CCA37B"/>
<path d="M175.377 127.899L292 11.2764V9.86231L170.9 130.963C172.358 129.91 173.851 128.888 175.377 127.899Z" fill="#CCA37B"/>
<path d="M130.92 116.3H129.506L245.806 0H247.22L130.92 116.3Z" fill="#CCA37B"/>
<path d="M242.142 292H243.556L292 243.556V242.142L242.142 292Z" fill="#CCA37B"/>
<path d="M251.556 292H250.142L292 250.142V251.556L251.556 292Z" fill="#CCA37B"/>
<path d="M258.142 292H259.556L292 259.556V258.142L258.142 292Z" fill="#CCA37B"/>
<path d="M267.556 292H266.142L292 266.142V267.556L267.556 292Z" fill="#CCA37B"/>
<path d="M274.142 292H275.556L292 275.556V274.142L274.142 292Z" fill="#CCA37B"/>
<path d="M283.556 292H282.142L292 282.142V283.556L283.556 292Z" fill="#CCA37B"/>
<path d="M290.198 292H291.612L292 291.612V290.198L290.198 292Z" fill="#CCA37B"/>
</svg>
