<svg width="263" height="75" viewBox="0 0 263 75" fill="none" xmlns="http://www.w3.org/2000/svg">
<g clip-path="url(#clip0_108_205)">
<path d="M1.67977 48.1115H1.61923C1.70499 48.1467 1.67977 48.227 1.67977 48.1115ZM40.7381 48.9851V46.4296C40.1429 46.2941 39.5476 46.1485 38.9675 45.9828C34.2107 44.6273 30.034 42.0467 26.5383 38.7031C26.7249 38.4169 26.9166 38.1307 27.1184 37.8546C34.2612 28.5265 48.5467 27.7935 56.5622 36.0422H60.86C59.3315 33.4918 57.3542 31.343 55.17 29.7063C46.7358 23.4106 35.0229 24.3344 27.6884 32.5881C26.5786 33.8533 25.5597 35.2791 24.7374 36.8455C20.7373 32.4124 17.7914 26.9451 16.1015 21.297H11.4456C16.1722 14.1729 22.9921 8.57503 31.744 5.79869C32.8588 5.46231 34.0846 5.30165 34.0846 5.30165V0C31.4162 0.627563 28.894 1.60656 26.4677 2.8165C15.4861 8.33906 7.95997 17.9784 4.28265 29.134L5.1301 0.984019H0L1.4225 48.1115H1.61923C1.61923 48.1115 1.61419 48.1115 1.60914 48.1115H1.67977H3.70759C3.70759 48.1115 3.70759 48.1115 3.70255 48.1115H3.70759L3.81857 44.3712C3.81857 44.3712 3.81857 44.3612 3.81857 44.3562C4.38858 36.2681 6.84517 28.4512 11.0522 21.8794C11.7029 24.2942 12.9085 26.9551 13.877 28.7575C18.9415 38.201 27.5471 46.279 38.2916 48.5634C39.0987 48.7391 39.9159 48.8746 40.728 48.9901L40.7381 48.9851ZM57.5105 58.5391C54.9682 61.5866 51.5683 63.5847 48.118 64.5637C40.2538 66.7778 30.5586 64.3026 25.7211 55.7929C24.5105 53.6592 23.8446 51.2393 23.779 48.5182C23.6983 46.9568 23.8496 45.4707 24.1876 44.065C23.7134 43.7336 23.2443 43.3973 22.7802 43.0408C22.2809 46.284 22.3515 49.6227 22.6138 52.9362C23.0022 57.5199 25.3932 61.4761 28.1474 64.4482C31.9206 68.4747 36.8439 70.6938 41.8125 70.9649C49.2782 71.4619 57.1322 67.5459 61.3947 59.7591C61.6015 59.3725 61.8033 58.9658 62 58.5441H57.5105V58.5391Z" fill="black"/>
</g>
<path d="M95.2324 35V13.2925H97.4061V23.2503L107.305 13.2925H110.184L99.4623 24.0434L110.184 35H107.246L97.4061 24.8953V35H95.2324ZM130.564 29.3014H132.973C132.425 30.3001 131.808 31.1814 131.122 31.9451C130.437 32.7088 129.673 33.3453 128.831 33.8544C128.009 34.3636 127.108 34.7454 126.129 35C125.169 35.2546 124.141 35.3819 123.044 35.3819C121.419 35.3819 119.911 35.0979 118.521 34.53C117.13 33.9621 115.926 33.1788 114.908 32.1801C113.89 31.1814 113.087 30.0064 112.499 28.6552C111.931 27.2844 111.647 25.8059 111.647 24.2197C111.647 22.5943 111.931 21.0962 112.499 19.7254C113.067 18.3351 113.85 17.1405 114.849 16.1418C115.848 15.1235 117.033 14.3304 118.403 13.7625C119.794 13.1946 121.292 12.9106 122.898 12.9106C124.014 12.9106 125.081 13.0477 126.099 13.3219C127.137 13.596 128.087 13.9975 128.949 14.5262C129.81 15.055 130.574 15.6914 131.24 16.4355C131.925 17.1601 132.474 17.9924 132.885 18.9323H130.447C129.585 17.5811 128.537 16.5726 127.304 15.9068C126.09 15.241 124.65 14.9081 122.986 14.9081C121.693 14.9081 120.489 15.1431 119.373 15.6131C118.256 16.083 117.287 16.7293 116.465 17.5518C115.662 18.3742 115.025 19.3534 114.555 20.4892C114.085 21.6054 113.85 22.8195 113.85 24.1316C113.85 25.4044 114.085 26.6088 114.555 27.7446C115.045 28.8608 115.701 29.8399 116.523 30.682C117.365 31.5045 118.335 32.1605 119.431 32.6501C120.548 33.1396 121.742 33.3844 123.015 33.3844C124.562 33.3844 125.933 33.0613 127.127 32.4151C128.342 31.7688 129.487 30.731 130.564 29.3014ZM144.629 35V13.2925H146.803V23.2503L156.702 13.2925H159.581L148.859 24.0434L159.581 35H156.643L146.803 24.8953V35H144.629ZM160.075 35L169.416 13.2925H171.824L181.165 35H178.815L170.62 15.7599L162.425 35H160.075ZM183.728 35V13.2925H185.901V31.7688L198.826 13.2925H201V35H198.826V16.5237L185.901 35H183.728ZM205.472 35V13.2925H207.645V22.8391H218.896V13.2925H221.069V35H218.896V24.8072H207.645V35H205.472ZM225.523 35V13.2925H227.697V31.7688L240.621 13.2925H242.795V35H240.621V16.5237L227.697 35H225.523ZM247.267 35V13.2925H249.44V23.2503L259.339 13.2925H262.218L251.496 24.0434L262.218 35H259.281L249.44 24.8953V35H247.267Z" fill="black"/>
<path d="M97.0916 60.6001L99.7388 54.4482H100.421L103.069 60.6001H102.403L100.08 55.1474L97.7575 60.6001H97.0916ZM103.795 60.6001V54.4482H104.411V59.6844L108.074 54.4482H108.69V60.6001H108.074V55.3639L104.411 60.6001H103.795ZM109.957 60.6001V54.4482H110.573V60.0423H113.562V54.4482H114.178V60.0423H114.985V61.7323H114.552L114.319 60.6001H109.957ZM115.835 60.6001V54.4482H119.198V55.0059H116.451V57.212H119.106V57.7697H116.451V60.0423H119.198V60.6001H115.835ZM120.298 60.6001V54.4482H120.914V57.1537H124.102V54.4482H124.718V60.6001H124.102V57.7114H120.914V60.6001H120.298ZM125.498 58.8269H126.155C126.155 59.0045 126.189 59.1738 126.255 59.3347C126.322 59.4901 126.413 59.6289 126.53 59.751C126.646 59.8675 126.782 59.9591 126.938 60.0257C127.093 60.0923 127.26 60.1256 127.437 60.1256C127.615 60.1256 127.781 60.0923 127.937 60.0257C128.092 59.9591 128.228 59.8675 128.345 59.751C128.461 59.6289 128.553 59.4901 128.619 59.3347C128.686 59.1738 128.719 59.0045 128.719 58.8269C128.719 58.4218 128.575 58.1082 128.286 57.8863C128.003 57.6587 127.601 57.5449 127.079 57.5449V56.9872C127.523 56.9872 127.862 56.9012 128.095 56.7291C128.334 56.5515 128.453 56.299 128.453 55.9716C128.453 55.8273 128.425 55.6913 128.37 55.5637C128.314 55.436 128.239 55.325 128.145 55.2307C128.056 55.1308 127.948 55.0531 127.82 54.9976C127.698 54.9421 127.565 54.9144 127.421 54.9144C127.276 54.9144 127.14 54.9421 127.013 54.9976C126.891 55.0531 126.782 55.1308 126.688 55.2307C126.599 55.325 126.527 55.436 126.472 55.5637C126.416 55.6913 126.388 55.8273 126.388 55.9716H125.747C125.747 55.7496 125.792 55.5415 125.881 55.3472C125.969 55.1474 126.089 54.9726 126.238 54.8228C126.394 54.6729 126.571 54.5564 126.771 54.4731C126.977 54.3844 127.193 54.34 127.421 54.34C127.648 54.34 127.865 54.3844 128.07 54.4731C128.275 54.5564 128.453 54.6702 128.603 54.8145C128.753 54.9588 128.872 55.1308 128.961 55.3306C129.049 55.5248 129.094 55.7329 129.094 55.9549C129.094 56.2602 128.999 56.5321 128.811 56.7708C128.622 57.0038 128.378 57.1537 128.078 57.2203C128.256 57.2536 128.422 57.323 128.578 57.4284C128.739 57.5338 128.877 57.6615 128.994 57.8113C129.11 57.9556 129.202 58.1166 129.269 58.2942C129.341 58.4718 129.377 58.6549 129.377 58.8436C129.377 59.0989 129.324 59.3403 129.219 59.5678C129.119 59.7954 128.98 59.9952 128.802 60.1672C128.63 60.3337 128.425 60.4669 128.186 60.5668C127.953 60.6611 127.704 60.7083 127.437 60.7083C127.171 60.7083 126.918 60.6584 126.68 60.5585C126.447 60.4586 126.241 60.3254 126.064 60.1589C125.892 59.9868 125.753 59.7871 125.647 59.5595C125.548 59.3264 125.498 59.0822 125.498 58.8269ZM130.289 60.6001V54.4482H130.905V59.6844L134.568 54.4482H135.184V60.6001H134.568V55.3639L130.905 60.6001H130.289ZM136.451 60.6001V54.4482H138.15C138.544 54.4482 138.868 54.4731 139.123 54.5231C139.379 54.573 139.601 54.6563 139.789 54.7728C140.023 54.9171 140.203 55.1225 140.331 55.3889C140.458 55.6553 140.522 55.9633 140.522 56.3129C140.522 56.6237 140.469 56.9012 140.364 57.1454C140.258 57.3896 140.106 57.5838 139.906 57.7281C139.812 57.8002 139.709 57.8613 139.598 57.9112C139.493 57.9556 139.373 57.9945 139.24 58.0278C139.112 58.0555 138.965 58.0777 138.799 58.0944C138.638 58.1055 138.455 58.111 138.249 58.111H137.067V60.6001H136.451ZM137.067 57.5533H138.208C138.502 57.5533 138.741 57.5366 138.924 57.5033C139.107 57.47 139.262 57.4173 139.39 57.3452C139.551 57.2564 139.676 57.1232 139.764 56.9456C139.853 56.7624 139.898 56.5488 139.898 56.3046C139.898 56.0049 139.837 55.7551 139.715 55.5554C139.598 55.35 139.429 55.2113 139.207 55.1391C139.062 55.0947 138.888 55.0614 138.682 55.0392C138.482 55.017 138.236 55.0059 137.941 55.0059H137.067V57.5533ZM141.111 57.5283C141.111 57.0843 141.197 56.6709 141.369 56.2879C141.541 55.8994 141.775 55.5609 142.069 55.2723C142.368 54.9837 142.718 54.7562 143.118 54.5897C143.517 54.4232 143.947 54.34 144.408 54.34C144.846 54.34 145.26 54.426 145.648 54.598C146.037 54.7645 146.375 54.9948 146.664 55.289C146.958 55.5776 147.188 55.9161 147.355 56.3046C147.527 56.6875 147.613 57.0954 147.613 57.5283C147.613 57.9667 147.527 58.3802 147.355 58.7687C147.183 59.1516 146.95 59.4874 146.656 59.776C146.361 60.0645 146.017 60.2921 145.623 60.4586C145.229 60.6251 144.81 60.7083 144.366 60.7083C143.922 60.7083 143.503 60.6251 143.109 60.4586C142.715 60.2865 142.368 60.0562 142.069 59.7676C141.775 59.479 141.541 59.1433 141.369 58.7603C141.197 58.3719 141.111 57.9612 141.111 57.5283ZM141.736 57.5283C141.736 57.8835 141.805 58.222 141.944 58.5439C142.083 58.8602 142.271 59.1377 142.51 59.3764C142.749 59.6095 143.026 59.7954 143.342 59.9341C143.664 60.0729 144.006 60.1422 144.366 60.1422C144.727 60.1422 145.066 60.0729 145.382 59.9341C145.698 59.7954 145.976 59.6095 146.214 59.3764C146.453 59.1377 146.642 58.8602 146.78 58.5439C146.919 58.2276 146.989 57.8918 146.989 57.5366C146.989 57.1703 146.919 56.829 146.78 56.5127C146.642 56.1908 146.453 55.9105 146.214 55.6719C145.976 55.4333 145.693 55.2473 145.365 55.1141C145.043 54.9754 144.699 54.906 144.333 54.906C143.983 54.906 143.65 54.9782 143.334 55.1225C143.018 55.2612 142.74 55.4499 142.502 55.6885C142.269 55.9272 142.083 56.2047 141.944 56.521C141.805 56.8374 141.736 57.1731 141.736 57.5283ZM148.613 60.6001V54.4482H150.053C150.769 54.4482 151.299 54.5786 151.643 54.8394C151.987 55.1003 152.159 55.5026 152.159 56.0465C152.159 56.3573 152.104 56.6154 151.993 56.8207C151.887 57.0205 151.715 57.187 151.477 57.3202C151.837 57.47 152.098 57.667 152.259 57.9112C152.426 58.1499 152.509 58.4579 152.509 58.8353C152.509 59.4457 152.318 59.8925 151.935 60.1755C151.557 60.4586 150.958 60.6001 150.136 60.6001H148.613ZM149.229 60.0423H150.07C150.708 60.0423 151.169 59.9508 151.452 59.7676C151.74 59.5845 151.885 59.2848 151.885 58.8686C151.885 58.4801 151.751 58.1804 151.485 57.9695C151.224 57.7586 150.858 57.6532 150.386 57.6532H149.229V60.0423ZM149.229 57.0954H150.403C150.791 57.0954 151.077 57.0122 151.26 56.8457C151.443 56.6792 151.535 56.4156 151.535 56.0548C151.535 55.6719 151.416 55.4027 151.177 55.2473C150.944 55.0864 150.542 55.0059 149.97 55.0059H149.229V57.0954ZM152.852 60.6001L155.491 54.4482H156.182L158.829 60.6001H158.155L157.264 58.5273H154.401L153.501 60.6001H152.852ZM154.634 57.9695H157.023L155.841 55.1474L154.634 57.9695ZM159.555 60.6001V54.4482H160.171V57.1537H163.36V54.4482H163.976V60.6001H163.36V57.7114H160.171V60.6001H159.555ZM165.238 60.6001V54.4482H165.854V57.1537H169.042V54.4482H169.658V60.6001H169.042V57.7114H165.854V60.6001H165.238ZM170.379 60.6001L173.018 54.4482H173.709L176.357 60.6001H175.682L174.792 58.5273H171.928L171.029 60.6001H170.379ZM172.161 57.9695H174.55L173.368 55.1474L172.161 57.9695ZM180.254 57.47V55.0059H179.405C179.1 55.0059 178.85 55.017 178.656 55.0392C178.467 55.0559 178.309 55.0864 178.182 55.1308C177.965 55.1974 177.799 55.3306 177.682 55.5304C177.566 55.7246 177.507 55.9688 177.507 56.263C177.507 56.5016 177.549 56.7097 177.632 56.8873C177.721 57.0593 177.843 57.187 177.998 57.2702C178.121 57.3424 178.273 57.3951 178.456 57.4284C178.639 57.4562 178.87 57.47 179.147 57.47H180.254ZM176.658 60.6001L178.398 57.9862C178.204 57.964 178.035 57.9279 177.89 57.8779C177.746 57.8224 177.61 57.7475 177.482 57.6532C177.288 57.5144 177.138 57.3257 177.033 57.0871C176.933 56.8485 176.883 56.5765 176.883 56.2713C176.883 55.9216 176.944 55.6164 177.066 55.3556C177.194 55.0947 177.371 54.8977 177.599 54.7645C177.693 54.709 177.793 54.6618 177.899 54.623C178.01 54.5786 178.129 54.5453 178.257 54.5231C178.39 54.4953 178.531 54.4759 178.681 54.4648C178.836 54.4537 179.009 54.4482 179.197 54.4482H180.87V60.6001H180.254V58.0278H179.089L177.382 60.6001H176.658ZM97.6327 71.6001V65.4482H98.2487V68.2702L101.054 65.4482H101.87L98.8314 68.495L101.87 71.6001H101.037L98.2487 68.7364V71.6001H97.6327ZM102.285 68.5283C102.285 68.0843 102.371 67.6709 102.543 67.2879C102.715 66.8994 102.948 66.5609 103.242 66.2723C103.542 65.9837 103.891 65.7562 104.291 65.5897C104.69 65.4232 105.121 65.34 105.581 65.34C106.02 65.34 106.433 65.426 106.822 65.598C107.21 65.7645 107.549 65.9948 107.837 66.289C108.131 66.5776 108.362 66.9161 108.528 67.3046C108.7 67.6875 108.786 68.0954 108.786 68.5283C108.786 68.9667 108.7 69.3802 108.528 69.7687C108.356 70.1516 108.123 70.4874 107.829 70.776C107.535 71.0645 107.191 71.2921 106.797 71.4586C106.403 71.6251 105.984 71.7083 105.54 71.7083C105.096 71.7083 104.677 71.6251 104.283 71.4586C103.889 71.2865 103.542 71.0562 103.242 70.7676C102.948 70.479 102.715 70.1433 102.543 69.7603C102.371 69.3719 102.285 68.9612 102.285 68.5283ZM102.909 68.5283C102.909 68.8835 102.978 69.222 103.117 69.5439C103.256 69.8602 103.445 70.1377 103.683 70.3764C103.922 70.6095 104.199 70.7954 104.516 70.9341C104.838 71.0729 105.179 71.1422 105.54 71.1422C105.9 71.1422 106.239 71.0729 106.555 70.9341C106.872 70.7954 107.149 70.6095 107.388 70.3764C107.626 70.1377 107.815 69.8602 107.954 69.5439C108.092 69.2276 108.162 68.8918 108.162 68.5366C108.162 68.1703 108.092 67.829 107.954 67.5127C107.815 67.1908 107.626 66.9105 107.388 66.6719C107.149 66.4333 106.866 66.2473 106.539 66.1141C106.217 65.9754 105.873 65.906 105.506 65.906C105.157 65.906 104.824 65.9782 104.507 66.1225C104.191 66.2612 103.914 66.4499 103.675 66.6885C103.442 66.9272 103.256 67.2047 103.117 67.521C102.978 67.8374 102.909 68.1731 102.909 68.5283ZM114.881 69.9851H115.564C115.408 70.2682 115.233 70.5179 115.039 70.7343C114.845 70.9508 114.629 71.1311 114.39 71.2754C114.157 71.4197 113.902 71.528 113.624 71.6001C113.352 71.6722 113.061 71.7083 112.75 71.7083C112.289 71.7083 111.862 71.6278 111.468 71.4669C111.074 71.306 110.733 71.084 110.444 70.8009C110.155 70.5179 109.928 70.1849 109.761 69.802C109.6 69.4135 109.52 68.9945 109.52 68.5449C109.52 68.0843 109.6 67.6598 109.761 67.2713C109.922 66.8772 110.144 66.5387 110.427 66.2557C110.71 65.9671 111.046 65.7423 111.435 65.5814C111.829 65.4204 112.253 65.34 112.708 65.34C113.025 65.34 113.327 65.3788 113.616 65.4565C113.91 65.5342 114.179 65.648 114.423 65.7978C114.667 65.9477 114.884 66.128 115.073 66.3389C115.267 66.5443 115.422 66.7801 115.539 67.0465H114.848C114.604 66.6636 114.307 66.3778 113.957 66.1891C113.613 66.0004 113.205 65.906 112.733 65.906C112.367 65.906 112.026 65.9726 111.709 66.1058C111.393 66.239 111.118 66.4222 110.885 66.6553C110.658 66.8883 110.477 67.1658 110.344 67.4877C110.211 67.8041 110.144 68.1481 110.144 68.52C110.144 68.8807 110.211 69.222 110.344 69.5439C110.483 69.8602 110.669 70.1377 110.902 70.3764C111.14 70.6095 111.415 70.7954 111.726 70.9341C112.042 71.0729 112.381 71.1422 112.742 71.1422C113.18 71.1422 113.569 71.0507 113.907 70.8675C114.251 70.6844 114.576 70.3902 114.881 69.9851ZM116.558 71.6001V65.4482H117.516L119.755 70.6844L121.986 65.4482H122.943V71.6001H122.327V66.1225L120.013 71.6001H119.48L117.174 66.1225V71.6001H116.558ZM124.208 71.6001V65.4482H127.571V66.0059H124.824V68.212H127.48V68.7697H124.824V71.0423H127.571V71.6001H124.208ZM129.504 71.6001V66.0059H128.097V65.4482H131.527V66.0059H130.12V71.6001H129.504ZM131.949 68.5283C131.949 68.0843 132.035 67.6709 132.207 67.2879C132.379 66.8994 132.613 66.5609 132.907 66.2723C133.206 65.9837 133.556 65.7562 133.956 65.5897C134.355 65.4232 134.785 65.34 135.246 65.34C135.684 65.34 136.098 65.426 136.486 65.598C136.875 65.7645 137.213 65.9948 137.502 66.289C137.796 66.5776 138.026 66.9161 138.193 67.3046C138.365 67.6875 138.451 68.0954 138.451 68.5283C138.451 68.9667 138.365 69.3802 138.193 69.7687C138.021 70.1516 137.788 70.4874 137.494 70.776C137.199 71.0645 136.855 71.2921 136.461 71.4586C136.067 71.6251 135.648 71.7083 135.204 71.7083C134.76 71.7083 134.341 71.6251 133.947 71.4586C133.553 71.2865 133.206 71.0562 132.907 70.7676C132.613 70.479 132.379 70.1433 132.207 69.7603C132.035 69.3719 131.949 68.9612 131.949 68.5283ZM132.574 68.5283C132.574 68.8835 132.643 69.222 132.782 69.5439C132.921 69.8602 133.109 70.1377 133.348 70.3764C133.587 70.6095 133.864 70.7954 134.18 70.9341C134.502 71.0729 134.844 71.1422 135.204 71.1422C135.565 71.1422 135.904 71.0729 136.22 70.9341C136.536 70.7954 136.814 70.6095 137.052 70.3764C137.291 70.1377 137.48 69.8602 137.618 69.5439C137.757 69.2276 137.827 68.8918 137.827 68.5366C137.827 68.1703 137.757 67.829 137.618 67.5127C137.48 67.1908 137.291 66.9105 137.052 66.6719C136.814 66.4333 136.531 66.2473 136.203 66.1141C135.881 65.9754 135.537 65.906 135.171 65.906C134.821 65.906 134.488 65.9782 134.172 66.1225C133.856 66.2612 133.578 66.4499 133.34 66.6885C133.107 66.9272 132.921 67.2047 132.782 67.521C132.643 67.8374 132.574 68.1731 132.574 68.5283ZM138.91 71.6001L141.557 65.4482H142.24L144.887 71.6001H144.221L141.899 66.1474L139.576 71.6001H138.91ZM145.347 68.5283C145.347 68.0843 145.433 67.6709 145.605 67.2879C145.777 66.8994 146.01 66.5609 146.304 66.2723C146.604 65.9837 146.954 65.7562 147.353 65.5897C147.753 65.4232 148.183 65.34 148.643 65.34C149.082 65.34 149.495 65.426 149.884 65.598C150.272 65.7645 150.611 65.9948 150.899 66.289C151.194 66.5776 151.424 66.9161 151.59 67.3046C151.762 67.6875 151.848 68.0954 151.848 68.5283C151.848 68.9667 151.762 69.3802 151.59 69.7687C151.418 70.1516 151.185 70.4874 150.891 70.776C150.597 71.0645 150.253 71.2921 149.859 71.4586C149.465 71.6251 149.046 71.7083 148.602 71.7083C148.158 71.7083 147.739 71.6251 147.345 71.4586C146.951 71.2865 146.604 71.0562 146.304 70.7676C146.01 70.479 145.777 70.1433 145.605 69.7603C145.433 69.3719 145.347 68.9612 145.347 68.5283ZM145.971 68.5283C145.971 68.8835 146.041 69.222 146.179 69.5439C146.318 69.8602 146.507 70.1377 146.745 70.3764C146.984 70.6095 147.262 70.7954 147.578 70.9341C147.9 71.0729 148.241 71.1422 148.602 71.1422C148.963 71.1422 149.301 71.0729 149.617 70.9341C149.934 70.7954 150.211 70.6095 150.45 70.3764C150.689 70.1377 150.877 69.8602 151.016 69.5439C151.155 69.2276 151.224 68.8918 151.224 68.5366C151.224 68.1703 151.155 67.829 151.016 67.5127C150.877 67.1908 150.689 66.9105 150.45 66.6719C150.211 66.4333 149.928 66.2473 149.601 66.1141C149.279 65.9754 148.935 65.906 148.569 65.906C148.219 65.906 147.886 65.9782 147.57 66.1225C147.253 66.2612 146.976 66.4499 146.737 66.6885C146.504 66.9272 146.318 67.2047 146.179 67.521C146.041 67.8374 145.971 68.1731 145.971 68.5283ZM152.849 71.6001V65.4482H155.854V66.0059H153.465V71.6001H152.849ZM156.548 71.6001V65.4482H157.164V70.6844L160.826 65.4482H161.442V71.6001H160.826V66.3639L157.164 71.6001H156.548ZM165.782 71.6001V69.0944C165.515 69.1277 165.296 69.1526 165.124 69.1693C164.957 69.1804 164.788 69.1859 164.616 69.1859C163.856 69.1859 163.301 69.0417 162.951 68.7531C162.607 68.4589 162.435 67.9927 162.435 67.3545V65.4482H163.059V67.3545C163.059 67.8152 163.181 68.1426 163.426 68.3368C163.67 68.5311 164.081 68.6282 164.658 68.6282C164.813 68.6282 164.974 68.6226 165.141 68.6115C165.307 68.5949 165.521 68.5699 165.782 68.5366V65.4482H166.398V71.6001H165.782ZM167.661 71.6001V65.4482H171.024V66.0059H168.277V68.212H170.932V68.7697H168.277V71.0423H171.024V71.6001H167.661ZM177.218 69.9851H177.901C177.746 70.2682 177.571 70.5179 177.377 70.7343C177.182 70.9508 176.966 71.1311 176.727 71.2754C176.494 71.4197 176.239 71.528 175.961 71.6001C175.689 71.6722 175.398 71.7083 175.087 71.7083C174.627 71.7083 174.199 71.6278 173.805 71.4669C173.411 71.306 173.07 71.084 172.781 70.8009C172.493 70.5179 172.265 70.1849 172.099 69.802C171.938 69.4135 171.857 68.9945 171.857 68.5449C171.857 68.0843 171.938 67.6598 172.099 67.2713C172.26 66.8772 172.482 66.5387 172.765 66.2557C173.048 65.9671 173.384 65.7423 173.772 65.5814C174.166 65.4204 174.591 65.34 175.046 65.34C175.362 65.34 175.664 65.3788 175.953 65.4565C176.247 65.5342 176.516 65.648 176.761 65.7978C177.005 65.9477 177.221 66.128 177.41 66.3389C177.604 66.5443 177.76 66.7801 177.876 67.0465H177.185C176.941 66.6636 176.644 66.3778 176.294 66.1891C175.95 66.0004 175.542 65.906 175.071 65.906C174.704 65.906 174.363 65.9726 174.047 66.1058C173.73 66.239 173.456 66.4222 173.223 66.6553C172.995 66.8883 172.815 67.1658 172.681 67.4877C172.548 67.8041 172.482 68.1481 172.482 68.52C172.482 68.8807 172.548 69.222 172.681 69.5439C172.82 69.8602 173.006 70.1377 173.239 70.3764C173.478 70.6095 173.753 70.7954 174.063 70.9341C174.38 71.0729 174.718 71.1422 175.079 71.1422C175.517 71.1422 175.906 71.0507 176.244 70.8675C176.589 70.6844 176.913 70.3902 177.218 69.9851ZM178.896 71.6001V65.4482H179.512V68.2702L182.317 65.4482H183.133L180.094 68.495L183.133 71.6001H182.3L179.512 68.7364V71.6001H178.896ZM183.273 71.6001L185.912 65.4482H186.603L189.25 71.6001H188.576L187.685 69.5273H184.821L183.922 71.6001H183.273ZM185.054 68.9695H187.444L186.261 66.1474L185.054 68.9695ZM193.148 68.47V66.0059H192.299C191.994 66.0059 191.744 66.017 191.55 66.0392C191.361 66.0559 191.203 66.0864 191.075 66.1308C190.859 66.1974 190.692 66.3306 190.576 66.5304C190.459 66.7246 190.401 66.9688 190.401 67.263C190.401 67.5016 190.442 67.7097 190.526 67.8873C190.614 68.0593 190.737 68.187 190.892 68.2702C191.014 68.3424 191.167 68.3951 191.35 68.4284C191.533 68.4562 191.763 68.47 192.041 68.47H193.148ZM189.552 71.6001L191.292 68.9862C191.097 68.964 190.928 68.9279 190.784 68.8779C190.639 68.8224 190.503 68.7475 190.376 68.6532C190.182 68.5144 190.032 68.3257 189.926 68.0871C189.826 67.8485 189.776 67.5765 189.776 67.2713C189.776 66.9216 189.837 66.6164 189.96 66.3556C190.087 66.0947 190.265 65.8977 190.492 65.7645C190.587 65.709 190.687 65.6618 190.792 65.623C190.903 65.5786 191.022 65.5453 191.15 65.5231C191.283 65.4953 191.425 65.4759 191.575 65.4648C191.73 65.4537 191.902 65.4482 192.091 65.4482H193.764V71.6001H193.148V69.0278H191.982L190.276 71.6001H189.552ZM197.342 71.6001V65.4482H197.958V68.2702L200.763 65.4482H201.579L198.54 68.495L201.579 71.6001H200.746L197.958 68.7364V71.6001H197.342ZM201.719 71.6001L204.366 65.4482H205.049L207.696 71.6001H207.03L204.707 66.1474L202.385 71.6001H201.719ZM208.422 71.6001V65.4482H209.038V70.6844L212.701 65.4482H213.317V71.6001H212.701V66.3639L209.038 71.6001H208.422ZM214.584 71.6001V65.4482H215.2V68.1537H218.389V65.4482H219.005V71.6001H218.389V68.7114H215.2V71.6001H214.584ZM220.267 71.6001V65.4482H220.883V70.6844L224.546 65.4482H225.162V71.6001H224.546V66.3639L220.883 71.6001H220.267ZM226.429 71.6001V65.4482H227.045V68.2702L229.851 65.4482H230.666L227.628 68.495L230.666 71.6001H229.834L227.045 68.7364V71.6001H226.429ZM230.806 71.6001L233.445 65.4482H234.136L236.784 71.6001H236.109L235.218 69.5273H232.355L231.456 71.6001H230.806ZM232.588 68.9695H234.977L233.795 66.1474L232.588 68.9695Z" fill="black"/>
<defs>
<clipPath id="clip0_108_205">
<rect width="62" height="71" fill="white"/>
</clipPath>
</defs>
</svg>
