<svg width="62" height="71" viewBox="0 0 62 71" fill="none" xmlns="http://www.w3.org/2000/svg">
<g clip-path="url(#clip0_142_8)">
<path d="M1.67977 48.1115H1.61923C1.70499 48.1467 1.67977 48.227 1.67977 48.1115ZM40.7381 48.9851V46.4296C40.1429 46.2941 39.5476 46.1485 38.9675 45.9828C34.2107 44.6273 30.034 42.0467 26.5383 38.7031C26.7249 38.4169 26.9166 38.1307 27.1184 37.8546C34.2612 28.5265 48.5467 27.7935 56.5622 36.0422H60.86C59.3315 33.4918 57.3542 31.343 55.17 29.7063C46.7358 23.4106 35.0229 24.3344 27.6884 32.5881C26.5786 33.8533 25.5597 35.2791 24.7374 36.8455C20.7373 32.4124 17.7914 26.9451 16.1015 21.297H11.4456C16.1722 14.1729 22.9921 8.57503 31.744 5.79868C32.8588 5.46231 34.0846 5.30165 34.0846 5.30165V0C31.4162 0.627563 28.894 1.60656 26.4677 2.8165C15.4861 8.33906 7.95997 17.9784 4.28265 29.134L5.13009 0.984019H0L1.4225 48.1115H1.61923C1.61923 48.1115 1.61419 48.1115 1.60914 48.1115H1.67977H3.70759C3.70759 48.1115 3.70759 48.1115 3.70255 48.1115H3.70759L3.81857 44.3712C3.81857 44.3712 3.81857 44.3612 3.81857 44.3562C4.38858 36.2681 6.84517 28.4512 11.0522 21.8794C11.7029 24.2942 12.9085 26.9551 13.877 28.7575C18.9415 38.201 27.5471 46.279 38.2916 48.5634C39.0987 48.7391 39.9159 48.8746 40.728 48.9901L40.7381 48.9851ZM57.5105 58.5391C54.9682 61.5866 51.5683 63.5847 48.118 64.5637C40.2538 66.7778 30.5586 64.3026 25.7211 55.7929C24.5105 53.6592 23.8446 51.2393 23.779 48.5182C23.6983 46.9568 23.8496 45.4707 24.1876 44.065C23.7134 43.7336 23.2443 43.3973 22.7802 43.0408C22.2809 46.2841 22.3515 49.6227 22.6138 52.9362C23.0022 57.5199 25.3932 61.4761 28.1474 64.4482C31.9206 68.4747 36.8439 70.6938 41.8125 70.9649C49.2782 71.4619 57.1322 67.5459 61.3947 59.7591C61.6015 59.3725 61.8033 58.9658 62 58.5441H57.5105V58.5391Z" fill="black"/>
</g>
<defs>
<clipPath id="clip0_142_8">
<rect width="62" height="71" fill="white"/>
</clipPath>
</defs>
</svg>
