<svg width="216" height="83" viewBox="0 0 216 83" fill="none" xmlns="http://www.w3.org/2000/svg">
<g clip-path="url(#clip0_107_47)">
<path d="M66.8856 32.1082V15.9815C67.7324 15.9815 68.8804 15.9633 70.0253 15.9451C71.164 15.9269 72.2997 15.9089 73.1328 15.9089C79.9068 15.9089 82.6491 19.3231 82.6491 23.9722C82.6491 28.9119 79.2167 32.3443 72.7515 32.3443C70.6811 32.3443 68.8651 32.2535 66.8856 32.1082Z" fill="#D9DCC1"/>
<path d="M160.159 31.2728C160.159 40.2442 153.93 47.0181 145.176 47.0181C136.732 47.0181 130.194 40.2442 130.194 31.2728C130.194 22.2288 136.732 15.5275 145.176 15.5275C153.621 15.5275 160.159 22.3014 160.159 31.2728Z" fill="#D9DCC1"/>
<path fill-rule="evenodd" clip-rule="evenodd" d="M0 0H215.694V62.618H0V0ZM20.703 49.2337H23.6087L37.4471 16.9804L51.1403 49.2337H54.1913L38.5913 13.094H36.303L20.703 49.2337ZM64.0707 13.3119V49.1429H66.8856V34.7597C68.9378 34.9231 71.1533 34.9958 72.8241 34.9958C81.7229 34.9958 85.6093 29.3659 85.6093 24.0449C85.6093 18.7238 82.7943 13.2393 72.8241 13.2393C71.7888 13.2393 70.074 13.2578 68.3746 13.2761C66.7057 13.2941 65.0515 13.3119 64.0707 13.3119ZM121.803 13.3119H92.5103V15.9815H105.749V49.1611H108.564V15.9815H121.803V13.3119ZM163.137 31.2728C163.137 20.5399 155.364 12.8579 145.176 12.8579C134.825 12.8579 127.143 20.8486 127.215 31.2728C127.215 42.0058 134.97 49.6877 145.176 49.6877C155.383 49.6877 163.137 42.0058 163.137 31.2728ZM183.895 12.8761C177.197 12.8761 173.402 16.8305 173.398 21.8387V21.8293V21.8474V21.8387C173.403 28.0821 178.418 30.0705 183.243 31.9838C187.7 33.7514 191.996 35.4548 192.031 40.3895C192.031 44.8025 187.926 47.0908 183.513 47.0908C180.244 47.0908 176.358 45.4926 174.233 42.6051L172.563 44.5846C174.379 47.7809 179.318 49.7604 183.586 49.7604C189.888 49.7604 194.991 46.0374 194.991 40.335C194.991 33.7588 189.834 31.7891 184.957 29.9262C180.582 28.2548 176.431 26.6694 176.431 21.9201C176.431 18.1063 179.318 15.6002 184.04 15.6002C187.309 15.6002 189.979 16.599 192.031 18.6512L193.556 16.5263C191.504 14.3289 187.854 12.8761 183.895 12.8761Z" fill="#D9DCC1"/>
<path d="M125.309 78.8356H128.124V81.6505C127.433 82.3406 126.289 82.6312 125.381 82.6312C123.093 82.6312 121.658 81.1057 121.658 78.8356C121.658 76.7108 123.111 75.04 125.236 75.04C126.217 75.04 126.907 75.2761 127.524 75.7301L127.143 76.4202C126.689 76.0389 125.999 75.8028 125.309 75.8028C123.638 75.8028 122.566 76.9469 122.566 78.763C122.566 80.579 123.711 81.7232 125.381 81.7232C126.071 81.7232 126.907 81.4144 127.288 81.0331V79.5076H125.309V78.8356Z" fill="#989B7B"/>
<path fill-rule="evenodd" clip-rule="evenodd" d="M54.5909 75.1673H55.3173L58.441 82.5405H57.4603L56.5523 80.3431H53.2107L52.3027 82.5405H51.3946L54.5909 75.1673ZM53.6647 79.5077H56.3162L55.0268 76.384L53.6647 79.5077Z" fill="#989B7B"/>
<path d="M15.6907 75.2577V76.0931H18.2695V82.5583H19.1775V76.0931H21.7563V75.2577H15.6907Z" fill="#989B7B"/>
<path d="M26.0242 79.2895H30.0558V82.631H30.9639V75.3305H30.0558V78.5267H26.0242V75.3305H25.1162V82.631H26.0242V79.2895Z" fill="#989B7B"/>
<path fill-rule="evenodd" clip-rule="evenodd" d="M35.3043 82.5583V75.2577H37.2838C39.2633 75.2577 39.8626 76.2384 39.8626 77.4552C39.8626 78.5993 39.0999 79.3621 38.2645 79.5073L40.698 82.631H39.6265L37.3383 79.6708H36.1215V82.631H35.2861V82.5583H35.3043ZM36.2123 76.0931V78.8354H37.2838C38.1192 78.8354 38.9546 78.3087 38.9546 77.4733C38.9546 76.7106 38.5005 76.1113 37.2111 76.1113H36.2305L36.2123 76.0931Z" fill="#989B7B"/>
<path d="M48.3073 75.2577H44.1122V82.5583H48.3799V81.7229H45.0383V79.2894H47.9985V78.454H45.0383V76.0931H48.3073V75.2577Z" fill="#989B7B"/>
<path fill-rule="evenodd" clip-rule="evenodd" d="M63.9801 75.2577H61.9279V82.631H63.9074C66.7223 82.631 68.0843 80.8875 68.0843 78.8354C68.0843 76.9285 66.9403 75.2577 63.9801 75.2577ZM62.8541 81.7229V76.0931C62.9157 76.0931 62.9772 76.0902 63.0399 76.0856C63.1194 76.0798 63.2007 76.0711 63.2861 76.062C63.4716 76.0423 63.6767 76.0205 63.9256 76.0205C66.0504 76.0205 67.1218 77.1646 67.1218 78.7627C67.1218 80.5062 66.0504 81.7229 63.9256 81.7229H62.8541Z" fill="#989B7B"/>
<path d="M76.3837 75.2577H77.219V81.7229H80.8694V82.5583H76.3837V75.2577Z" fill="#989B7B"/>
<path d="M85.3552 75.2577H84.4472V82.5583H85.3552V75.2577Z" fill="#989B7B"/>
<path d="M93.9632 75.2577V76.0931H90.6943V78.672H93.6545V79.5073H90.6943V82.5583H89.7863V75.2577H93.9632Z" fill="#989B7B"/>
<path d="M96.6511 75.2577V76.0931H99.2299V82.5583H100.138V76.0931H102.717V75.2577H96.6511Z" fill="#989B7B"/>
<path d="M106.294 75.2577H107.202V82.5583H106.294V75.2577Z" fill="#989B7B"/>
<path d="M111.779 82.5583H112.614V76.7832L117.173 82.5583H117.863V75.2577H117.027V81.0328L112.469 75.2577H111.779V82.5583Z" fill="#989B7B"/>
<path d="M136.441 75.2577V82.5583H137.349V76.6198L140.019 80.2701H140.164L142.743 76.6198V82.5583H143.651V75.2577H142.815L140.146 78.9807L137.403 75.2577H136.441Z" fill="#989B7B"/>
<path d="M152.096 75.2577V76.0931H148.827V78.454H151.787V79.2894H148.827V81.7229H152.168V82.5583H147.9V75.2577H152.096Z" fill="#989B7B"/>
<path d="M155.165 75.2577V76.0931H157.744V82.5583H158.652V76.0931H161.23V75.2577H155.165Z" fill="#989B7B"/>
<path d="M169.512 79.2895H165.48V82.631H164.572V75.3305H165.48V78.5267H169.512V75.3305H170.42V82.631H169.512V79.2895Z" fill="#989B7B"/>
<path fill-rule="evenodd" clip-rule="evenodd" d="M181.607 78.8901C181.607 76.6201 180.009 75.0946 177.884 75.0946C175.759 75.0946 174.161 76.7654 174.161 78.8901C174.161 81.1602 175.759 82.6857 177.884 82.6857C180.009 82.6857 181.607 81.1602 181.607 78.8901ZM180.699 78.9083C180.699 80.5791 179.554 81.8685 177.884 81.8685C176.358 81.8685 175.141 80.5791 175.069 78.9083C175.069 77.1649 176.286 75.9481 177.884 75.9481C179.482 75.9481 180.699 77.2375 180.699 78.9083Z" fill="#989B7B"/>
<path fill-rule="evenodd" clip-rule="evenodd" d="M185.493 75.2577H187.473C190.433 75.2577 191.577 76.9285 191.577 78.8354C191.577 80.8875 190.215 82.631 187.4 82.631H185.493V75.2577ZM186.329 76.0931V81.7229H187.4C189.525 81.7229 190.596 80.5062 190.596 78.7627C190.596 77.1646 189.525 76.0205 187.4 76.0205C187.163 76.0205 186.985 76.0403 186.816 76.0592C186.66 76.0765 186.511 76.0931 186.329 76.0931Z" fill="#989B7B"/>
<path d="M197.116 75.1673C195.757 75.1673 194.923 75.9982 194.918 77.0655V77.056V77.0742V77.0655C194.923 78.3707 195.962 78.7945 196.941 79.1944C197.779 79.5367 198.574 79.8614 198.641 80.7063C198.641 81.469 197.951 81.8504 197.189 81.8504C196.571 81.8504 195.808 81.5417 195.354 81.015L194.828 81.6325C195.136 82.3226 196.208 82.704 197.116 82.704C198.405 82.704 199.477 81.9412 199.477 80.7244C199.477 79.3738 198.438 78.9515 197.479 78.5621C196.66 78.2289 195.899 77.9198 195.899 77.0742C195.899 76.4567 196.353 76.0027 197.189 76.0027C197.879 76.0027 198.333 76.2388 198.714 76.6201L199.168 75.93C198.714 75.476 197.951 75.1673 197.116 75.1673Z" fill="#989B7B"/>
<path d="M12.0224 33.8699C75.5484 43.9127 140.219 43.9127 203.672 33.8699C203.745 34.3965 203.817 35.014 203.981 35.5407C140.291 45.6561 75.4758 45.6561 11.8044 35.5407C11.8044 35.014 11.8771 34.3965 12.0405 33.8699H12.0224Z" fill="#989B7B"/>
</g>
<defs>
<clipPath id="clip0_107_47">
<rect width="215.694" height="82.704" fill="white"/>
</clipPath>
</defs>
</svg>
