<svg width="166" height="99" viewBox="0 0 166 99" fill="none" xmlns="http://www.w3.org/2000/svg">
<g clip-path="url(#clip0_108_202)">
<path fill-rule="evenodd" clip-rule="evenodd" d="M63.7147 0H59.17V51.7707C56.2472 50.589 53.0247 49.9437 49.6224 49.9438C36.0927 49.9438 25.3914 60.9663 25.3914 74.4105C25.3914 75.317 25.442 76.213 25.5406 77.0958C24.9407 77.1488 24.336 77.1757 23.728 77.1757C12.7225 77.1757 4.54269 67.5658 4.54269 56.9537C4.54269 46.3355 12.8221 36.9317 23.829 36.9317C30.4939 36.9317 35.844 39.6629 40.287 44.5146V38.4502C35.6413 34.5067 30.0893 32.6891 24.0297 32.6891C10.2973 32.6891 0 43.4051 0 56.9537C0 70.6007 10.0966 81.4183 23.93 81.4183C24.7577 81.4183 25.5799 81.3777 26.3948 81.2977C29.3675 91.2654 38.6122 98.6757 49.6224 98.6757C63.3549 98.6757 74.1577 88.1612 74.1577 74.3101C74.1577 65.7842 70.0647 58.522 63.7147 54.1983V0ZM49.3194 54.1898C52.9344 54.1898 56.2805 55.0478 59.17 56.5816V86.2924H63.7147V59.911C67.391 63.5303 69.6152 68.6126 69.6152 74.4098C69.6152 85.7319 60.7304 94.4316 49.3194 94.4316C40.4711 94.4316 33.319 88.3509 30.8566 80.4477C34.5245 79.3994 37.9425 77.5263 40.8922 74.9484V68.7777C38.0237 72.269 34.2313 74.8794 30.0153 76.2034C29.9624 75.6103 29.9355 75.012 29.9355 74.4098C29.9355 63.5929 38.2129 54.1898 49.3194 54.1898Z" fill="#989B7B"/>
<path fill-rule="evenodd" clip-rule="evenodd" d="M79.261 0H83.805V26.4521C87.0003 24.8841 90.5996 24.003 94.425 24.003C108.157 24.0023 118.962 34.5182 118.962 48.3681C118.962 48.6961 118.956 49.0224 118.944 49.3466C121.616 50.6696 123.925 52.8261 125.126 55.4127L121.188 57.4344C120.517 56 119.548 54.8036 118.36 53.916C117.239 58.9552 114.61 63.3218 110.955 66.5767C112.115 67.0846 113.373 67.5448 114.662 68.0161L114.663 68.0165C120.856 70.2809 127.751 72.802 127.751 82.1045C127.751 90.6977 121.088 96.6608 112.705 96.6608C104.934 96.6608 98.5739 91.9089 96.6535 84.3289L101.095 82.9115C102.813 88.4732 106.548 92.4182 112.705 92.4182C118.565 92.4182 123.209 87.7666 123.209 81.901C123.209 76.1371 118.766 74.319 114.121 72.6995C111.659 71.8 109.062 70.8398 106.802 69.5437C103.186 71.5834 98.9656 72.7329 94.425 72.7329C90.6106 72.7329 87.0082 71.8439 83.805 70.2673V86.2924H79.261V67.362C73.7253 62.8876 70.1932 56.0418 70.1932 48.4697C70.1932 40.7626 73.7104 33.8513 79.261 29.3563V0ZM106.972 64.1174C110.627 61.2203 113.195 57.069 114.079 52.2339C113.73 52.1945 113.374 52.1744 113.012 52.1744C109.071 52.1744 105.033 55.4127 105.033 59.4554C105.033 61.473 105.767 62.9515 106.972 64.1174ZM114.411 47.9965C114.01 47.9536 113.61 47.9318 113.213 47.9318C106.447 47.9318 100.489 52.6857 100.489 59.7592C100.489 62.6379 101.458 64.8297 102.998 66.5654C100.332 67.8033 97.3272 68.4896 94.1227 68.4896C90.2823 68.4896 86.7616 67.345 83.805 65.4033V31.3127C86.7513 29.3804 90.2665 28.2471 94.1227 28.2471C105.473 28.2471 114.175 36.7066 114.411 47.9965ZM74.7353 48.469C74.7353 43.6053 76.409 39.0272 79.261 35.4611V61.2679C76.4162 57.7357 74.7353 53.2243 74.7353 48.469Z" fill="#989B7B"/>
<path d="M136.005 86.2924H131.462V43.8283H126.312V39.5823H131.462V22.8963H136.005V39.5823H151.605V43.8283H136.005V86.2924Z" fill="#989B7B"/>
<path fill-rule="evenodd" clip-rule="evenodd" d="M154.15 3.85567V13.1882H155.938V9.81443H157.156L159.248 13.1882H161.425L158.987 9.46391C160.119 9.1134 160.991 8.06186 160.991 6.74742C160.991 5.12629 160.032 3.85567 157.418 3.85567H154.15ZM155.938 8.45619V5.12629H157.113C158.421 5.12629 159.117 5.78351 159.117 6.74742C159.117 7.75516 158.289 8.45619 157.244 8.45619H155.938Z" fill="#989B7B"/>
<path fill-rule="evenodd" clip-rule="evenodd" d="M166 8.63145C166 3.85567 162.123 0 157.418 0C152.583 0 148.793 3.85567 148.793 8.63145C148.793 13.4948 152.626 17.3505 157.418 17.3505C162.167 17.3505 166 13.451 166 8.63145ZM163.823 8.63145C163.823 12.2242 160.947 15.116 157.375 15.116C153.846 15.116 150.927 12.268 150.927 8.67526C150.927 5.08248 153.803 2.19072 157.375 2.19072C160.947 2.19072 163.823 5.03865 163.823 8.63145Z" fill="#989B7B"/>
</g>
<defs>
<clipPath id="clip0_108_202">
<rect width="166" height="98.6757" fill="white"/>
</clipPath>
</defs>
</svg>
