<svg width="288" height="45" viewBox="0 0 288 45" fill="none" xmlns="http://www.w3.org/2000/svg">
<g clip-path="url(#clip0_108_204)">
<path d="M286.888 38.8848C286.283 38.7864 285.624 38.8707 285.006 38.927C279.623 39.4752 274.226 39.9813 268.857 40.5999C259.958 41.598 251.032 42.1743 242.064 41.8932C240.183 41.837 238.316 41.4855 236.448 41.2606C234.017 40.9794 232.218 39.6439 230.914 37.6196C229.664 35.6796 228.565 33.6412 227.329 31.7012C226.657 30.6327 225.956 29.5081 225.036 28.6787C223.1 26.9074 221.109 27.1183 219.474 29.1988C218.692 30.197 218.17 31.3919 217.469 32.4743C216.426 34.091 215.41 35.7217 214.256 37.24C213.652 38.0272 212.814 38.6739 211.99 39.2362C211.221 39.7704 210.493 39.433 210.109 38.6317C209.793 37.9429 209.669 37.1697 209.436 36.4387C208.79 34.3581 208.296 32.2072 207.458 30.197C205.701 25.9796 202.734 25.3891 199.507 28.6365C197.708 30.4359 196.156 32.4884 194.454 34.4003C193.437 35.539 192.394 36.6777 191.254 37.6758C190.402 38.4349 189.469 38.0272 189.4 36.8604C189.29 35.061 189.318 33.2475 189.331 31.4481C189.331 29.8174 189.153 28.257 187.491 27.5541C185.871 26.8512 184.346 26.9917 182.987 28.3835C181.655 29.7471 180.268 31.1107 178.73 32.2213C175.64 34.4284 172.509 36.6074 169.227 38.4771C168.183 39.0816 166.604 38.7161 165.286 38.7864C165.313 37.5493 165.217 36.2981 165.395 35.0751C165.684 33.0367 166.274 31.0404 166.48 29.002C166.549 28.2851 166.013 27.1745 165.423 26.809C163.583 25.6843 160.974 26.5559 159.889 28.4678C159.449 29.241 159.175 30.1126 158.776 30.9139C157.156 34.1754 154.78 36.523 151.182 37.3243C149.383 37.718 147.584 38.0835 145.785 38.463C145.277 36.2559 146.843 34.6674 147.419 32.7836C147.845 31.3778 149.466 29.6909 148.271 28.6365C147.282 27.7509 145.209 27.9477 143.643 28.018C142.956 28.0461 142.119 28.8333 141.707 29.4941C141.103 30.45 140.773 31.6028 140.43 32.6993C139.729 34.9485 138.315 36.4387 136.2 37.3243C130.968 39.5174 125.571 40.4171 119.954 39.6299C119.336 39.5455 118.609 38.9551 118.293 38.3928C118.142 38.1116 118.677 37.1978 119.103 36.8323C122.316 34.1894 126.079 32.7414 130.048 31.8277C131.023 31.6028 131.943 31.9823 131.448 33.2897C130.872 34.7939 131.613 35.539 132.767 35.9607C134.786 36.7058 137.436 35.2297 138.136 33.0507C138.974 30.45 138.26 28.8755 135.664 27.9336C134.607 27.5541 133.467 27.3291 132.355 27.2729C125.063 26.9214 118.746 29.2691 113.459 34.5127C112.498 35.4687 111.234 36.1294 110.039 36.8042C109.696 37.001 109.133 36.7761 108.666 36.748C108.721 36.2841 108.652 35.7358 108.858 35.3703C110.383 32.6993 111.989 30.0704 113.541 27.4135C114.612 25.5719 114.255 25.0236 112.113 24.8127C110.204 24.63 108.707 25.0377 107.581 26.823C104.423 31.7996 99.4928 34.4284 94.4529 36.8604C93.9997 37.0854 93.3268 36.8464 92.7501 36.8183C92.805 36.3403 92.7363 35.8061 92.9149 35.3843C94.2332 32.3197 95.6476 29.2832 96.9522 26.2045C97.9547 23.8287 99.0122 21.9028 102.157 22.3245C103.832 22.5494 104.794 21.3826 104.986 19.8643C105.192 18.3039 104.505 17.4183 102.953 17.2355C101.388 17.0527 101.539 16.0828 102.088 15.0143C102.912 13.4117 103.791 11.8513 104.574 10.2346C105.357 8.61796 104.945 7.56362 103.338 6.8326C101.745 6.10159 100.523 6.36869 99.4104 8.01347C98.4766 9.3771 97.6801 10.8672 97.0346 12.3996C95.8811 15.169 94.6451 17.6432 91.006 16.5326C90.8961 16.4904 90.7589 16.5185 90.6353 16.5326C89.1247 16.7435 88.1496 17.7838 88.0123 19.3442C87.875 20.9749 88.7264 21.5232 90.1958 21.8606C92.6265 22.4229 92.7501 22.7884 91.3906 24.883C88.4106 29.48 83.7964 32.3619 79.9375 36.031C79.3058 36.6355 78.7703 35.8623 78.7291 35.1735C78.6193 33.2475 78.7703 31.2794 78.5094 29.3675C78.2073 27.1745 77.9464 25.0799 78.5506 22.8727C78.839 21.8043 78.6879 20.5391 78.4545 19.4285C78.0974 17.7275 76.4083 16.4764 74.884 16.5326C73.4008 16.5748 72.1786 17.6151 71.6293 19.3161C71.5058 19.6816 71.3822 20.0752 71.4097 20.4407C71.6431 22.6056 70.4209 24.1239 69.2124 25.6C67.2624 27.9617 65.2299 30.2672 63.1975 32.5587C62.607 33.2194 61.9479 33.838 61.2475 34.3862C61.0141 34.569 60.4648 34.5971 60.2588 34.4284C60.0391 34.2597 59.888 33.7255 59.9566 33.4303C60.5059 31.3216 61.2063 29.241 61.7145 27.1183C62.2912 24.7284 61.3299 23.0977 59.0503 22.3948C58.4461 22.212 57.8281 22.0574 57.1964 22.0152C53.516 21.7762 49.9044 22.1558 46.3477 23.182C42.8321 24.1942 40.4564 26.4716 38.9595 29.8455C38.3965 31.0967 37.6275 32.3338 36.6662 33.2757C35.9247 33.9926 34.3317 34.9064 33.8373 34.583C32.5327 33.7396 33.8647 32.5446 34.2218 31.5606C34.7162 30.2391 35.5401 29.0583 36.0345 27.7368C37.3116 24.2504 38.781 20.7781 39.6049 17.1652C40.5937 12.8775 40.6349 8.44927 39.0007 4.20376C37.9845 1.5468 36.0895 0.0426005 33.2331 0.000426566C31.0359 -0.0276894 29.3193 1.33593 28.9348 3.54304C28.5503 5.69391 28.2481 7.85883 28.0421 10.0238C27.5477 15.2814 27.3967 20.5813 26.614 25.7828C25.4879 33.2194 19.9811 37.2962 13.3345 37.8726C12.2908 37.971 11.0824 37.493 10.1074 36.9729C8.17107 35.9467 8.01999 34.6252 9.65417 33.0367C10.739 31.9823 12.0437 31.1529 13.2109 30.1688C15.4494 28.271 15.5043 27.1885 13.5268 25.122C12.7303 24.2926 11.8789 23.5335 11.0549 22.7322C7.01753 18.7819 7.7728 14.6488 11.6317 11.05C12.9363 9.82695 14.9413 9.36304 16.6578 8.61796C16.9188 8.5055 17.5641 8.73043 17.6328 8.9413C17.7701 9.33492 17.6877 9.86912 17.5504 10.2909C17.4268 10.6283 17.0698 10.8672 16.8226 11.1765C13.2109 15.661 13.5268 17.2917 18.5529 19.9768C18.8825 20.1596 19.2121 20.3564 19.5554 20.5251C20.5304 21.0171 21.3269 20.6797 21.8213 19.8081C23.2907 17.2636 24.6639 14.6629 26.1333 12.1184C28.4266 8.15405 25.941 3.34622 21.5191 2.34811C16.9187 1.30782 12.4831 1.58898 8.14361 3.16347C2.7879 5.10347 -0.0272661 9.55985 0.000199058 15.3658C0.0139316 18.7959 1.34602 21.6356 3.54323 24.0817C4.49078 25.1361 4.64181 25.8109 3.51574 26.9355C-0.123398 30.5625 -0.38437 34.3441 2.43081 38.6739C5.68543 43.6645 10.643 44.8594 15.985 44.6345C19.4181 44.4799 22.659 43.313 25.1446 40.5999C25.9411 39.7283 26.5865 39.3487 27.3967 40.8388C29.4154 44.522 31.3929 45.0843 35.1693 43.2709C36.3091 42.7226 37.5176 42.2165 38.4789 41.4152C39.8658 40.2765 40.7722 40.3749 41.9395 41.7807C44.535 44.9157 47.8857 45.5061 51.5248 44.03C52.7882 43.5239 53.7358 43.4396 55.0129 44.1565C55.9742 44.6907 57.4436 44.6485 58.5834 44.3955C59.7644 44.1284 60.8767 43.3833 61.9341 42.6945C63.1563 41.8932 64.0902 41.7526 65.2025 43.0038C66.768 44.7751 68.8141 45.1687 71.0938 44.5783C72.1786 44.2971 73.3185 44.1284 74.4308 44.1284C77.3559 44.1284 79.8277 43.0038 82.0524 41.1903C82.9313 40.4733 83.7827 39.6861 84.7165 39.0394C84.8951 38.927 85.5542 39.2643 85.7465 39.5596C85.8975 39.7985 85.6366 40.2906 85.6229 40.6842C85.4718 43.8754 86.8862 45.1968 89.9898 44.5501C91.5691 44.2128 93.1483 43.6504 94.6177 42.9616C96.2107 42.2165 97.6801 41.1903 99.2319 40.3187C100.028 39.8688 100.646 39.911 100.866 41.0356C101.347 43.5942 103.201 44.2971 105.384 44.1565C107.114 44.0441 108.941 43.8613 110.52 43.1725C112.292 42.4133 113.761 42.1181 115.491 43.1725C116.425 43.7348 117.62 43.9035 118.718 44.1425C124.28 45.3936 129.704 44.8735 135.046 42.9475C135.596 42.7507 136.42 42.6242 136.818 42.9054C140.031 45.0843 143.355 44.3112 146.609 43.3271C149.988 42.3009 153.283 41.0075 156.593 39.7845C157.54 39.433 158.488 39.3346 158.694 40.5155C159.23 43.5661 161.482 43.9597 163.802 44.03C169.666 44.1987 174.981 42.4696 179.636 38.7583C180.625 37.971 181.49 37.001 182.52 36.2841C182.74 36.1294 183.742 36.5793 183.825 36.9026C184.044 37.7601 183.88 38.688 183.989 39.5877C184.292 42.3571 185.665 43.7629 188.329 44.0862C190.54 44.3533 192.613 44.03 194.344 42.4274C196.678 40.2625 199.027 38.1116 201.375 35.9607C203.105 34.3722 203.682 34.5409 204.369 36.9026C204.657 37.8867 204.835 38.9129 205.179 39.8688C206.511 43.4536 208.749 44.4377 211.482 44.2268C213.322 44.0722 214.915 43.5801 216.33 42.3852C218.307 40.7264 219.9 38.8004 221.054 36.4246C222.784 32.8539 223.004 32.8961 225.187 36.3825C226.066 37.7883 226.945 39.2222 227.934 40.5436C229.54 42.6945 231.724 43.9316 234.374 44.1565C238.261 44.4799 242.161 44.7188 246.239 45C249.59 44.7751 253.106 44.3955 256.621 44.3252C266.097 44.1003 275.435 42.6945 284.745 41.0778C285.487 40.9513 286.242 40.8388 286.943 40.5577C287.355 40.403 287.657 39.9391 288 39.6158C287.615 39.3768 287.258 38.9972 286.846 38.927L286.888 38.8848ZM31.9147 23.0696C31.0358 23.0696 32.2168 9.85507 33.9334 9.85507C35.6499 9.85507 35.5126 11.5983 35.2242 13.3414C34.9359 15.0846 32.7936 23.0696 31.9147 23.0696ZM55.2876 28.6365C54.4774 32.8539 52.39 36.2278 48.7646 38.5052C48.2565 38.8145 47.5699 38.8285 47.309 38.8848C43.7522 38.9691 41.9532 35.6514 43.5462 32.6009C45.1666 29.48 50.3027 26.6543 53.6672 27.0058C54.6697 27.1042 55.4799 27.5259 55.2739 28.6365H55.2876ZM69.5969 39.433C69.0614 39.5596 68.2649 39.433 67.8941 39.0816C67.6469 38.8426 67.7568 37.8726 68.0314 37.4649C69.1163 35.9045 70.3111 34.4143 71.5058 32.9523C71.6981 32.7274 72.1786 32.6009 72.4945 32.6571C72.9889 32.7274 73.4421 32.9804 73.2773 32.9242C73.4421 36.0732 71.5744 38.9832 69.5969 39.4471V39.433ZM110.699 23.5616C111.234 23.8568 111.783 24.0114 112.36 24.0114C112.937 24.0114 113.5 23.8568 114.022 23.5616C114.544 23.2664 114.969 22.8306 115.258 22.2964C115.546 21.7622 115.697 21.1858 115.697 20.5954C115.697 20.0049 115.546 19.4285 115.244 18.8803C114.942 18.332 114.53 17.9103 113.994 17.6151C113.459 17.3198 112.91 17.1793 112.347 17.1793C111.783 17.1793 111.234 17.3198 110.699 17.6151C110.163 17.9103 109.751 18.332 109.449 18.8803C109.147 19.4285 108.996 20.0049 108.996 20.5954C108.996 21.1858 109.147 21.7481 109.435 22.2964C109.724 22.8446 110.149 23.2664 110.671 23.5616H110.699ZM109.943 19.1614C110.19 18.6975 110.548 18.3461 110.987 18.1071C111.426 17.8681 111.893 17.7416 112.36 17.7416C112.827 17.7416 113.28 17.8681 113.734 18.1071C114.187 18.3461 114.53 18.7116 114.777 19.1614C115.024 19.6113 115.148 20.1033 115.148 20.5954C115.148 21.0874 115.024 21.5654 114.777 22.0152C114.53 22.4651 114.187 22.8165 113.747 23.0696C113.308 23.3226 112.841 23.4491 112.36 23.4491C111.88 23.4491 111.413 23.3226 110.973 23.0696C110.534 22.8165 110.19 22.4651 109.943 22.0152C109.696 21.5654 109.572 21.0874 109.572 20.5954C109.572 20.1033 109.696 19.6254 109.943 19.1614ZM111.481 20.9187H111.825C112.031 20.9187 112.182 20.9609 112.292 21.0452C112.443 21.1577 112.649 21.4529 112.896 21.9028L113.212 22.4791H113.926L113.486 21.7622C113.28 21.4248 113.102 21.1717 112.951 21.0312C112.868 20.9609 112.772 20.8906 112.649 20.8343C112.964 20.8062 113.212 20.6938 113.39 20.497C113.569 20.3001 113.679 20.0612 113.679 19.7941C113.679 19.5972 113.624 19.4285 113.514 19.2598C113.404 19.0912 113.253 18.9646 113.061 18.9084C112.868 18.8522 112.566 18.81 112.14 18.81H110.905V22.4932H111.481V20.9327V20.9187ZM111.481 19.302H112.14C112.429 19.302 112.621 19.3301 112.717 19.3723C112.813 19.4145 112.91 19.4848 112.964 19.5691C113.019 19.6535 113.047 19.7519 113.047 19.8643C113.047 20.033 112.992 20.1736 112.868 20.272C112.745 20.3704 112.511 20.4267 112.182 20.4267H111.481V19.3161V19.302Z" fill="#989B7B"/>
</g>
<defs>
<clipPath id="clip0_108_204">
<rect width="288" height="45" fill="white"/>
</clipPath>
</defs>
</svg>
