<svg width="87" height="72" viewBox="0 0 87 72" fill="none" xmlns="http://www.w3.org/2000/svg">
<g clip-path="url(#clip0_107_35)">
<path d="M24.5227 52.3289C35.5654 52.3289 37.5811 48.3287 41.6609 48.3287C44.2107 48.3287 44.9857 50.7956 44.9857 50.7956H45.7607V32.3962L52.4867 32.372V31.4987H27.7191V32.372H35.9629V45.0407C35.9629 46.3205 35.4891 47.5721 34.5816 48.4776C31.4214 51.6407 25.8197 51.4153 24.611 51.4153C23.1936 51.4153 15.4316 51.6367 13.0384 45.1937C10.6451 38.7507 10.7776 33.1487 11.1752 16.9748C11.5727 0.80085 21.3304 0.889386 21.3304 0.889386V0C11.7052 1.95584 0 10.7974 0 27.3295C0 43.8616 13.4801 52.3289 24.5227 52.3289ZM68.1994 1.33207H40.2635V18.1982H41.0626C41.1108 9.31239 48.3146 2.13292 57.1808 2.13292H59.0641V50.4857H52.1374V51.359H75.0298V50.4857H68.1994V2.13292H70.0827C78.9489 2.13292 86.1527 9.31239 86.2009 18.1982H87V1.33207H68.1994ZM28.6707 64.9091L28.6828 64.893V64.3255H23.5951V65.062H27.6628L23.5068 71.2917L23.4947 71.3078V71.8632H28.7711V71.1267H24.5107L28.6667 64.9091H28.6707ZM4.06771 67.8428V68.5793H7.34035C7.17571 70.1689 5.99114 71.2354 4.37289 71.2354C2.58599 71.2354 1.33716 69.9436 1.33716 68.0964C1.33716 66.2492 2.55788 64.9574 4.37289 64.9574C5.64982 64.9574 6.64968 65.5932 7.1195 66.6999L7.13556 66.7361H7.95472L7.93063 66.6556C7.43672 65.1586 6.02728 64.1887 4.34478 64.1887C2.15231 64.1887 0.562171 65.8306 0.562171 68.0923C0.562171 70.354 2.16034 71.996 4.36486 71.996C5.42495 71.996 6.34852 71.6298 7.03517 70.9376C7.77001 70.1931 8.16754 69.1145 8.15951 67.8992V67.8388H4.07574L4.06771 67.8428ZM21.4348 68.8489C21.4348 70.3943 20.6919 71.2474 19.3387 71.2474C17.9855 71.2474 17.2426 70.3943 17.2426 68.8489V64.3296H16.4877V68.8811C16.4877 70.8289 17.5518 71.992 19.3387 71.992C21.1256 71.992 22.1897 70.8289 22.1897 68.8811V64.3296H21.4348V68.8489ZM14.9778 66.6959C14.9778 65.2551 13.986 64.3255 12.4561 64.3255H9.6573V71.8591H10.4243V69.0743H12.2473L14.2149 71.835L14.231 71.8591H15.1505L13.1307 69.0018C14.2912 68.7644 14.9778 67.9072 14.9778 66.6919V66.6959ZM10.4243 68.3419V65.062H12.3919C13.5242 65.062 14.2029 65.6737 14.2029 66.6959C14.2029 67.7181 13.5242 68.3419 12.3919 68.3419H10.4243ZM32.626 64.3296H30.2287V71.8632H32.626C34.9992 71.8632 36.5331 70.3862 36.5331 68.0964C36.5331 65.8065 34.9992 64.3296 32.626 64.3296ZM32.626 71.1267H30.9957V65.062H32.6059C34.5494 65.062 35.7581 66.225 35.7581 68.0964C35.7581 69.9677 34.5575 71.1307 32.626 71.1307V71.1267ZM77.6198 70.5029L73.2268 64.3537L73.2107 64.3296H72.5161V71.8632H73.271V65.6777L77.6639 71.839L77.68 71.8632H78.3747V64.3296H77.6198V70.5029ZM82.8319 64.3296H80.4346V71.8632H82.8319C85.2051 71.8632 86.739 70.3862 86.739 68.0964C86.739 65.8065 85.2051 64.3296 82.8319 64.3296ZM82.8319 71.1267H81.2016V65.062H82.8118C84.7553 65.062 85.964 66.225 85.964 68.0964C85.964 69.9677 84.7634 71.1307 82.8319 71.1307V71.1267ZM38.842 68.3781H42.2753V67.6657H38.842V65.0539H42.5523V64.3296H38.0791V71.8632H42.6688V71.1388H38.842V68.3781ZM67.055 68.3781H70.4882V67.6657H67.055V65.0539H70.7653V64.3296H66.292V71.8632H70.8818V71.1388H67.055V68.3781ZM47.7323 68.0722L46.6763 70.7484L44.1264 64.3255H43.3113L46.3149 71.8229L46.3309 71.8591H47.0256L50.0011 64.406L50.0332 64.3215H49.2261L47.7323 68.0682V68.0722ZM52.1454 65.062H54.6912V71.8632H55.4461V65.062H58.004V64.3255H52.1454V65.062ZM64.5935 66.6959C64.5935 65.2551 63.6016 64.3255 62.0717 64.3255H59.2729V71.8591H60.0399V69.0743H61.8629L63.8305 71.835L63.8466 71.8591H64.7661L62.7463 69.0018C63.9068 68.7644 64.5935 67.9072 64.5935 66.6919V66.6959ZM60.0359 68.3419V65.062H62.0035C63.1358 65.062 63.8145 65.6737 63.8145 66.6959C63.8145 67.7181 63.1358 68.3419 62.0035 68.3419H60.0359Z" fill="#989B7B"/>
</g>
<defs>
<clipPath id="clip0_107_35">
<rect width="87" height="72" fill="white"/>
</clipPath>
</defs>
</svg>
