<svg width="245" height="39" viewBox="0 0 245 39" fill="none" xmlns="http://www.w3.org/2000/svg">
<g clip-path="url(#clip0_107_45)">
<path d="M93.3223 17.8408L93.8974 17.8485C98.0248 17.6475 101.315 16.6325 102.939 15.3803C109.881 10.3022 108.913 4.285 103.019 5.56358C97.1238 6.84106 91.1027 14.216 88.7352 19.2732C86.3678 24.3304 83.5396 34.191 93.6449 33.722C103.75 33.253 116.68 17.988 116.68 17.988L116.022 17.3465C104.607 30.8913 95.9002 31.959 92.786 30.2608C89.6718 28.5627 91.6735 22.2554 93.3104 17.8716C93.3147 17.8617 93.318 17.8507 93.3223 17.8408ZM102.191 7.05196C105.433 6.71255 105.385 14.1841 97.0278 16.3678C95.9455 16.6413 94.7218 16.6358 93.8316 16.5743C95.8829 11.7873 99.2183 7.36392 102.191 7.05196ZM31.0132 4.93308V33.9483H36.0977V4.93308H31.0132ZM71.671 33.9483H74.483V4.93308H71.671V25.9264L53.4155 4.93308H50.6035V33.9483H53.4155V12.955L71.671 33.9483ZM18.8112 33.9483V31.49H4.54391V4.93308H0V33.9483H18.8112ZM244.404 7.39138V4.93308H224.719V33.9483H244.404V31.49H229.804V19.1743H239.614V17.2499H229.804V7.39248H244.404V7.39138ZM142.324 12.5178C142.324 8.32835 138.988 4.93198 134.872 4.93198H122.123V33.9472H127.208V20.1025H130.316L140.163 33.9472H145.606L135.722 20.052C139.437 19.6225 142.323 16.4139 142.323 12.5167L142.324 12.5178ZM137.495 12.7891C137.495 16.1042 135.075 18.791 132.091 18.791H127.207V6.78614H132.091C135.075 6.78614 137.495 9.47292 137.495 12.788V12.7891ZM172.803 24.1953L176.928 33.9483H182.107L168.666 4.2861H167.395L153.669 33.9483H156.655L160.858 24.1953H172.803ZM166.887 10.2056L171.791 21.8018H161.89L166.887 10.2056ZM201.721 32.7191C195.977 32.7191 193.642 26.4438 193.642 26.4438C193.642 26.4438 192.307 27.1468 191.235 27.7784C194.666 33.9889 198.217 34.9105 201.745 34.9105C205.272 34.9105 210.968 32.8246 210.968 27.4137C210.968 22.0028 207.917 19.6752 201.411 16.6666C194.906 13.658 194.715 10.3594 196.811 7.81208C198.908 5.26481 205.32 5.02205 208.274 12.1059C208.274 12.1059 210.133 11.136 210.8 10.7954C206.704 3.05036 199.971 3.04377 195.739 5.65256C193.224 7.20355 192.069 9.7651 192.069 11.9356C192.069 18.4691 199.879 21.1328 204.351 23.6779C208.926 26.2823 207.385 32.7191 201.721 32.7191ZM0 0V1.74651H245V0H0ZM0 39H245V37.2535H0V39Z" fill="#989B7B"/>
</g>
<defs>
<clipPath id="clip0_107_45">
<rect width="245" height="39" fill="white"/>
</clipPath>
</defs>
</svg>
