<svg width="196" height="76" viewBox="0 0 196 76" fill="none" xmlns="http://www.w3.org/2000/svg">
<g clip-path="url(#clip0_108_203)">
<path d="M33.284 0.16885C30.3762 -0.448524 27.5203 1.05081 26.326 3.82018L19.1085 20.648L11.8908 3.82018C10.6966 1.05081 7.8407 -0.466163 4.9329 0.16885C2.02509 0.786224 0 3.34392 0 6.36023V29.9792H6.9926V10.1527L14.0025 26.4866C14.9025 28.568 16.9103 29.9086 19.1258 29.9086C21.3412 29.9086 23.3663 28.568 24.249 26.4866L31.259 10.1527V29.9792H38.2515V6.36023C38.2515 3.32628 36.2265 0.786224 33.3187 0.16885H33.284ZM104.058 29.9792H111.05V7.15399H125.001V0.0277364H90.0554V7.15399H104.058V29.9792ZM86.9053 0.16885H79.9128V21.336L61.2889 1.82694C59.5927 0.0630148 57.0484 -0.483802 54.7983 0.451078C52.5482 1.38596 51.0943 3.57323 51.0943 6.06036V29.9968H58.0869V8.68861L76.7106 28.1976C77.853 29.3971 79.3935 30.0321 80.9512 30.0321C81.6955 30.0321 82.457 29.891 83.2013 29.5911C85.4514 28.6562 86.9053 26.469 86.9053 23.9818V0.16885ZM48.1865 0.16885H41.194V29.9968H48.1865V0.16885ZM158.51 23.682C159.029 22.9411 159.15 22.1474 158.787 21.8828C158.424 21.6182 157.714 22.0062 157.195 22.7295C156.675 23.4703 156.554 24.2641 156.918 24.5287C157.281 24.7932 157.991 24.4052 158.51 23.682ZM153.871 40.1394C156.398 38.5695 160.795 33.8422 160.483 33.6129C160.172 33.4012 160.241 33.754 156.606 37.423C152.971 41.0919 148.627 42.1326 149.371 38.9928C150.219 35.4474 153.543 31.796 153.785 31.5667C154.027 31.3374 153.768 29.3795 153.352 29.8734C147.744 36.5763 146.429 40.4745 147.381 41.6564C148.333 42.8382 151.327 41.7093 153.854 40.1394H153.871ZM142.569 40.2805C147.277 36.0118 146.637 28.2153 144.283 24.1935C143.936 23.5056 143.331 23.7349 143.798 24.511C144.265 25.2871 147.242 30.4907 142.95 36.5057C138.675 42.5207 127.528 43.9142 111.483 37.7757C118.147 29.9968 118.337 26.7688 123.876 19.5897C129.415 12.4105 133.742 8.44166 137.134 14.7742C137.671 13.6276 138.346 12.5869 139.055 12.3399C134.278 6.4837 125.174 15.7972 122.422 19.7308C117.576 26.663 113.82 34.4066 111.05 37.4406C105.702 35.271 95.473 30.4378 95.473 30.4378C92.2536 37.0349 95.421 40.3863 98.3808 41.8857C101.34 43.385 108.039 42.0092 110.877 38.1462C122.613 42.4854 134.884 47.3009 142.569 40.3158V40.2805ZM103.071 41.4623C100.233 41.7622 96.9442 40.404 96.6326 37.4053C96.2691 33.9127 96.6845 32.7133 97.1692 32.4134C97.9134 31.9548 110.427 37.9169 110.427 37.9169C110.427 37.9169 108.35 40.8979 103.054 41.4623H103.071ZM183.278 39.081C183.053 38.7106 176.857 42.5913 175.715 40.2629C174.936 38.6753 177.03 33.9657 178.83 30.5613C184.161 30.526 188.731 30.5084 189.423 30.5084C191.206 30.5084 190.479 29.8557 189.423 29.3971C188.367 28.9385 188.229 29.1325 181.599 29.1325C180.994 29.1325 180.336 29.1325 179.626 29.1325C180.128 28.2329 180.561 27.5273 180.821 27.1216C182.88 23.9818 184.282 22.7824 184.646 22.3943C185.009 22.0062 184.732 21.724 184.334 22.0415C183.434 22.7647 181.842 24.4052 180.232 26.5748C179.644 27.3686 179.02 28.2329 178.432 29.1149C175.524 29.0443 172.132 28.9208 169.137 28.7974C170.245 26.7512 171.318 24.7932 172.357 22.9764C177.411 14.1391 179.626 11.9342 183.33 12.0753C187.052 12.2165 185.442 15.2151 185.753 15.1093C186.065 15.0035 187.398 12.3223 187.259 11.7049C184.317 8.3711 179.02 12.093 175.23 16.4675C172.236 19.9072 169.553 24.1053 166.974 28.6915C163.789 28.5504 161.418 28.4269 161.227 28.4269C160.795 28.4269 159.808 30.7024 160.137 30.7024C160.137 30.7024 162.508 30.7024 165.883 30.6671C165.572 31.2492 165.26 31.8313 164.931 32.431C161.747 38.4989 158.095 45.4665 154.339 51.9753C150.583 58.4842 146.775 60.2481 144.975 60.548C143.175 60.8479 139.107 61.3418 138.9 57.2142C138.207 57.7257 138 60.2658 140.267 61.183C145.269 63.2292 151.241 59.2603 156.26 51.746C159.947 46.2426 164.153 38.0756 168.116 30.6318C170.989 30.6318 174.295 30.5966 177.428 30.5789C174.486 35.1475 172.132 40.0159 173.395 41.2683C175.992 43.8789 183.521 39.4867 183.296 39.0987L183.278 39.081ZM53.4137 69.35C53.206 69.2618 52.9809 69.1913 52.7213 69.156C52.7905 69.1383 52.8771 69.1031 52.9463 69.0678C53.3617 68.8914 53.7079 68.6268 53.9502 68.274C54.1925 67.9212 54.3136 67.4802 54.3136 66.9687C54.3136 66.1749 54.0367 65.5752 53.4655 65.1519C52.8943 64.7285 52.0982 64.5168 51.0943 64.5168H47.1999V74.0597H51.3713C52.5309 74.0597 53.3964 73.848 53.9675 73.407C54.5387 72.966 54.8156 72.3487 54.8156 71.5549C54.8156 71.0081 54.6944 70.5495 54.4694 70.1967C54.2271 69.8263 53.881 69.5617 53.431 69.3676L53.4137 69.35ZM47.8576 65.1342H51.0597C51.8732 65.1342 52.4963 65.293 52.9463 65.6105C53.3963 65.928 53.6213 66.4042 53.6213 67.0216C53.6213 67.639 53.3963 68.1329 52.9463 68.4504C52.4963 68.7679 51.8732 68.9267 51.0597 68.9267H47.8576V65.1342ZM53.4137 73.0013C52.9463 73.3188 52.254 73.4776 51.354 73.4776H47.8576V69.544H51.354C52.254 69.544 52.9463 69.7028 53.4137 70.0203C53.881 70.3378 54.1232 70.8317 54.1232 71.5196C54.1232 72.2076 53.881 72.7191 53.4137 73.019V73.0013ZM11.4755 74.0597H12.1505V63.9524H11.4755V74.0597ZM57.6542 68.521V66.9511H57.0138V74.0597H57.6888V70.3554C57.6888 69.4735 57.9138 68.7855 58.3465 68.2916C58.7792 67.7977 59.385 67.5508 60.1639 67.5508C60.1985 67.5508 60.2159 67.5508 60.2505 67.5508C60.2851 67.5508 60.3024 67.5508 60.337 67.5508V66.8805C59.6447 66.8805 59.0562 67.0393 58.6062 67.3391C58.1908 67.6214 57.8792 68.0094 57.6888 68.5033L57.6542 68.521ZM34.5995 66.8981C34.0629 66.8981 33.5436 66.9863 33.059 67.1627C32.5744 67.3391 32.1417 67.5861 31.7955 67.9036L32.1244 68.3975C32.4186 68.1329 32.7648 67.9212 33.1802 67.7448C33.5956 67.5684 34.0455 67.4979 34.5302 67.4979C35.2052 67.4979 35.7245 67.6743 36.0706 68.0094C36.4168 68.3622 36.5899 68.8561 36.5899 69.5264V70.0909H34.2013C33.5609 70.0909 33.0417 70.179 32.6609 70.3731C32.2802 70.5671 32.0032 70.7964 31.8474 71.0963C31.6743 71.3962 31.605 71.7137 31.605 72.0841C31.605 72.4898 31.709 72.8426 31.8994 73.1424C32.1071 73.4423 32.384 73.6893 32.7648 73.8657C33.1456 74.042 33.5955 74.1126 34.1148 74.1126C34.8071 74.1126 35.3783 73.9538 35.8283 73.654C36.1745 73.4247 36.4341 73.1248 36.6245 72.772V74.042H37.2649V69.5264C37.2649 68.6444 37.0399 67.9741 36.5725 67.5332C36.1052 67.0922 35.4476 66.8629 34.5821 66.8629L34.5995 66.8981ZM36.6245 71.9606C36.4341 72.4721 36.1225 72.8779 35.7244 73.1424C35.3264 73.407 34.8244 73.5481 34.236 73.5481C33.6475 73.5481 33.1455 73.407 32.7993 73.1424C32.4532 72.8779 32.2974 72.5074 32.2974 72.0488C32.2974 71.6431 32.4359 71.308 32.7301 71.0257C33.0244 70.7611 33.5263 70.62 34.2533 70.62H36.6245V71.9606ZM19.4892 67.3568C18.9699 67.0569 18.3642 66.8981 17.7065 66.8981C17.0488 66.8981 16.4429 67.0569 15.9237 67.3568C15.4044 67.6743 14.9891 68.0976 14.6775 68.6268C14.366 69.1736 14.2102 69.791 14.2102 70.4966C14.2102 71.2021 14.366 71.8195 14.6775 72.3663C14.9891 72.9131 15.4044 73.3365 15.9237 73.654C16.4429 73.9538 17.0315 74.1126 17.7065 74.1126C18.3815 74.1126 18.9699 73.9538 19.4892 73.654C20.0084 73.3541 20.4239 72.9131 20.7354 72.3663C21.0297 71.8195 21.1855 71.2021 21.1855 70.4966C21.1855 69.791 21.0297 69.156 20.7354 68.6268C20.4239 68.08 20.0257 67.6566 19.4892 67.3568ZM20.1469 72.0841C19.9046 72.5427 19.5758 72.8955 19.1431 73.1424C18.7104 73.3894 18.2257 73.5129 17.7065 73.5129C17.1872 73.5129 16.6853 73.3894 16.2699 73.1424C15.8545 72.8955 15.5083 72.5427 15.2659 72.0841C15.0236 71.6255 14.9025 71.1139 14.9025 70.5142C14.9025 69.9145 15.0236 69.3853 15.2659 68.9443C15.5083 68.5033 15.8371 68.1505 16.2699 67.9036C16.6853 67.6566 17.1699 67.5332 17.7065 67.5332C18.243 67.5332 18.7277 67.6566 19.1431 67.9036C19.5585 68.1505 19.9046 68.5033 20.1469 68.9443C20.3892 69.3853 20.5104 69.9145 20.5104 70.5142C20.5104 71.1139 20.3892 71.6255 20.1469 72.0841ZM40.0342 74.0597H40.7093V63.9524H40.0342V74.0597ZM2.35397 66.2984C2.73475 65.9103 3.18477 65.6281 3.70402 65.4165C4.22327 65.2048 4.77714 65.0989 5.38293 65.0989C5.95411 65.0989 6.47333 65.1871 6.97527 65.3635C7.4599 65.5399 7.90992 65.8222 8.32532 66.2279L8.75803 65.7692C8.34263 65.3283 7.85802 65.0107 7.26954 64.7814C6.69836 64.5698 6.05796 64.4463 5.38293 64.4463C4.67329 64.4463 4.01556 64.5698 3.42708 64.7991C2.83859 65.046 2.31935 65.3812 1.86933 65.8222C1.41932 66.2631 1.0731 66.7747 0.848093 67.3568C0.605776 67.9389 0.484632 68.5915 0.484632 69.2794C0.484632 69.9674 0.605776 70.62 0.848093 71.2021C1.09041 71.7842 1.43662 72.2958 1.86933 72.7367C2.30204 73.1777 2.82128 73.5129 3.42708 73.7598C4.01556 74.0068 4.67329 74.1126 5.38293 74.1126C6.02334 74.1126 6.62913 74.0068 7.21761 73.8127C7.8061 73.6011 8.30803 73.3012 8.72343 72.8955V69.3324H8.06571V72.6133C7.73685 72.8955 7.37336 73.1072 6.97527 73.2306C6.47333 73.407 5.95407 73.4952 5.4002 73.4952C4.79441 73.4952 4.24054 73.3894 3.72129 73.1777C3.20204 72.966 2.75202 72.6662 2.37124 72.2958C1.99045 71.9077 1.69625 71.4667 1.48855 70.9552C1.28085 70.4436 1.17696 69.8968 1.17696 69.2971C1.17696 68.6973 1.28085 68.1505 1.48855 67.639C1.69625 67.1275 1.99045 66.6865 2.37124 66.2984H2.35397ZM28.5242 67.3568C28.005 67.0569 27.4164 66.8981 26.7587 66.8981C26.1356 66.8981 25.5818 67.0393 25.0972 67.3391C24.6126 67.6214 24.2144 68.0447 23.9201 68.5739V63.97H23.2452V74.0773H23.8856V72.4016C23.8856 72.4016 23.8856 72.4369 23.9029 72.4545C24.1971 73.0013 24.5779 73.4247 25.0799 73.7069C25.5818 73.9891 26.1356 74.1479 26.7414 74.1479C27.3991 74.1479 27.9876 73.9891 28.5069 73.6893C29.0261 73.3894 29.4416 72.966 29.7358 72.4192C30.0301 71.8724 30.1859 71.255 30.1859 70.5318C30.1859 69.8086 30.0301 69.1913 29.7358 68.6444C29.4416 68.0976 29.0261 67.6743 28.5069 67.3744L28.5242 67.3568ZM29.1646 72.0841C28.9223 72.5427 28.5761 72.8955 28.1607 73.1424C27.7453 73.3894 27.2434 73.5129 26.7242 73.5129C26.2049 73.5129 25.703 73.3894 25.2876 73.1424C24.8722 72.8955 24.526 72.5427 24.2836 72.0841C24.0413 71.6255 23.9201 71.1139 23.9201 70.5142C23.9201 69.9145 24.0413 69.3853 24.2836 68.9443C24.526 68.5033 24.8548 68.1505 25.2876 67.9036C25.703 67.6566 26.1876 67.5332 26.7242 67.5332C27.2607 67.5332 27.7453 67.6566 28.1607 67.9036C28.5761 68.1505 28.9223 68.5033 29.1646 68.9443C29.4069 69.3853 29.5281 69.9145 29.5281 70.5142C29.5281 71.1139 29.4069 71.6255 29.1646 72.0841ZM169.985 66.8981C169.449 66.8981 168.93 66.9863 168.445 67.1627C167.96 67.3391 167.528 67.5861 167.182 67.9036L167.51 68.3975C167.805 68.1329 168.151 67.9212 168.566 67.7448C168.982 67.5684 169.432 67.4979 169.916 67.4979C170.591 67.4979 171.111 67.6743 171.457 68.0094C171.803 68.3622 171.976 68.8561 171.976 69.5264V70.0909H169.587C168.947 70.0909 168.428 70.179 168.047 70.3731C167.666 70.5671 167.389 70.7964 167.234 71.0963C167.06 71.3962 166.991 71.7137 166.991 72.0841C166.991 72.4898 167.095 72.8426 167.285 73.1424C167.493 73.4423 167.77 73.6893 168.151 73.8657C168.532 74.042 168.982 74.1126 169.501 74.1126C170.193 74.1126 170.764 73.9538 171.214 73.654C171.561 73.4247 171.82 73.1248 172.011 72.772V74.042H172.651V69.5264C172.651 68.6444 172.426 67.9741 171.959 67.5332C171.491 67.0922 170.834 66.8629 169.968 66.8629L169.985 66.8981ZM172.011 71.9606C171.82 72.4721 171.509 72.8779 171.111 73.1424C170.712 73.407 170.211 73.5481 169.622 73.5481C169.034 73.5481 168.532 73.407 168.185 73.1424C167.839 72.8779 167.683 72.5074 167.683 72.0488C167.683 71.6431 167.822 71.308 168.116 71.0257C168.41 70.7611 168.912 70.62 169.639 70.62H172.011V71.9606ZM140.181 67.8859C140.613 67.639 141.098 67.5155 141.652 67.5155C142.084 67.5155 142.5 67.6037 142.863 67.7801C143.244 67.9565 143.556 68.2211 143.798 68.5915L144.3 68.2211C144.023 67.7801 143.642 67.4626 143.192 67.2333C142.725 67.0216 142.223 66.8981 141.669 66.8981C140.994 66.8981 140.388 67.0569 139.852 67.3568C139.315 67.6566 138.9 68.08 138.588 68.6268C138.277 69.1736 138.121 69.791 138.121 70.5142C138.121 71.2374 138.277 71.8371 138.588 72.384C138.9 72.9308 139.315 73.3541 139.852 73.6716C140.388 73.9715 140.994 74.1302 141.669 74.1302C142.223 74.1302 142.742 74.0244 143.192 73.7951C143.659 73.5834 144.023 73.2483 144.3 72.8073L143.798 72.4369C143.556 72.8073 143.244 73.0719 142.863 73.2483C142.482 73.4247 142.084 73.5129 141.652 73.5129C141.115 73.5129 140.613 73.3894 140.181 73.1424C139.748 72.8955 139.402 72.5427 139.159 72.1017C138.917 71.6607 138.796 71.1316 138.796 70.5318C138.796 69.9321 138.917 69.4029 139.159 68.9619C139.402 68.521 139.748 68.1682 140.181 67.9212V67.8859ZM164.031 69.35C163.824 69.2618 163.599 69.1913 163.339 69.156C163.408 69.1383 163.495 69.1031 163.564 69.0678C163.98 68.8914 164.326 68.6268 164.568 68.274C164.81 67.9212 164.931 67.4802 164.931 66.9687C164.931 66.1749 164.655 65.5752 164.083 65.1519C163.512 64.7285 162.716 64.5168 161.712 64.5168H157.818V74.0597H161.989C163.149 74.0597 164.014 73.848 164.585 73.407C165.156 72.966 165.433 72.3487 165.433 71.5549C165.433 71.0081 165.312 70.5495 165.087 70.1967C164.845 69.8263 164.499 69.5617 164.049 69.3676L164.031 69.35ZM158.475 65.1342H161.677C162.491 65.1342 163.114 65.293 163.564 65.6105C164.014 65.928 164.239 66.4042 164.239 67.0216C164.239 67.639 164.014 68.1329 163.564 68.4504C163.114 68.7679 162.491 68.9267 161.677 68.9267H158.475V65.1342ZM164.031 73.0013C163.564 73.3188 162.872 73.4776 161.972 73.4776H158.475V69.544H161.972C162.872 69.544 163.564 69.7028 164.031 70.0203C164.499 70.3378 164.741 70.8317 164.741 71.5196C164.741 72.2076 164.499 72.7191 164.031 73.019V73.0013ZM150.444 67.3568C149.942 67.0569 149.371 66.9158 148.748 66.9158C148.125 66.9158 147.554 67.0745 147.035 67.3744C146.533 67.6919 146.135 68.1153 145.84 68.6444C145.546 69.1913 145.408 69.8086 145.408 70.5142C145.408 71.2198 145.563 71.8371 145.875 72.384C146.186 72.9308 146.602 73.3541 147.138 73.6716C147.675 73.9715 148.298 74.1302 149.008 74.1302C149.544 74.1302 150.046 74.0244 150.496 73.8304C150.964 73.6363 151.344 73.3541 151.639 72.966L151.258 72.5251C150.998 72.8602 150.669 73.1072 150.271 73.2659C149.873 73.4247 149.475 73.5129 149.025 73.5129C148.454 73.5129 147.952 73.3894 147.502 73.1424C147.052 72.8955 146.706 72.5427 146.446 72.1017C146.204 71.696 146.1 71.2198 146.065 70.6906H152.054C152.054 70.6906 152.054 70.62 152.054 70.5847C152.054 70.5495 152.054 70.5318 152.054 70.4966C152.054 69.791 151.916 69.156 151.621 68.6268C151.327 68.08 150.929 67.6743 150.427 67.3744L150.444 67.3568ZM146.083 70.1438C146.117 69.6852 146.221 69.2794 146.411 68.909C146.636 68.468 146.965 68.1152 147.363 67.8683C147.762 67.6214 148.229 67.4979 148.748 67.4979C149.267 67.4979 149.735 67.6214 150.133 67.8683C150.531 68.1152 150.86 68.468 151.085 68.909C151.275 69.2794 151.396 69.6852 151.414 70.1438H146.065H146.083ZM126.178 67.3568C125.676 67.0569 125.105 66.9158 124.482 66.9158C123.859 66.9158 123.288 67.0745 122.768 67.3744C122.266 67.6919 121.868 68.1153 121.574 68.6444C121.28 69.1913 121.141 69.8086 121.141 70.5142C121.141 71.2198 121.297 71.8371 121.609 72.384C121.92 72.9308 122.336 73.3541 122.872 73.6716C123.409 73.9715 124.032 74.1302 124.741 74.1302C125.278 74.1302 125.78 74.0244 126.23 73.8304C126.697 73.6363 127.078 73.3541 127.372 72.966L126.992 72.5251C126.732 72.8602 126.403 73.1072 126.005 73.2659C125.607 73.4247 125.209 73.5129 124.759 73.5129C124.188 73.5129 123.686 73.3894 123.236 73.1424C122.786 72.8955 122.439 72.5427 122.18 72.1017C121.937 71.696 121.834 71.2198 121.799 70.6906H127.788C127.788 70.6906 127.788 70.62 127.788 70.5847C127.788 70.5495 127.788 70.5318 127.788 70.4966C127.788 69.791 127.649 69.156 127.355 68.6268C127.061 68.08 126.663 67.6743 126.161 67.3744L126.178 67.3568ZM121.799 70.1438C121.834 69.6852 121.938 69.2794 122.128 68.909C122.353 68.468 122.682 68.1152 123.08 67.8683C123.478 67.6214 123.945 67.4979 124.464 67.4979C124.984 67.4979 125.451 67.6214 125.849 67.8683C126.247 68.1152 126.576 68.468 126.801 68.909C126.991 69.2794 127.113 69.6852 127.13 70.1438H121.782H121.799ZM134.78 67.2333C134.365 67.004 133.863 66.8981 133.292 66.8981C132.582 66.8981 131.976 67.0569 131.492 67.3744C131.059 67.6566 130.747 68.0447 130.522 68.5033V66.9511H129.882V74.0597H130.557V70.2672C130.557 69.7028 130.661 69.2089 130.869 68.8032C131.076 68.3975 131.388 68.08 131.786 67.8507C132.184 67.6214 132.651 67.5155 133.205 67.5155C133.915 67.5155 134.469 67.7272 134.867 68.1505C135.265 68.5739 135.455 69.1736 135.455 69.9674V74.0597H136.13V69.8968C136.13 69.2265 136.009 68.6797 135.784 68.2211C135.542 67.7801 135.213 67.4273 134.798 67.2157L134.78 67.2333ZM179.038 70.6906C178.761 70.5671 178.467 70.4613 178.12 70.3907C177.792 70.3202 177.463 70.2496 177.134 70.1967C176.805 70.1438 176.493 70.0556 176.217 69.9674C175.94 69.8792 175.715 69.7381 175.559 69.5617C175.386 69.3853 175.316 69.1383 175.316 68.8385C175.316 68.4504 175.472 68.1329 175.784 67.8859C176.095 67.639 176.597 67.4979 177.272 67.4979C177.653 67.4979 178.017 67.5508 178.38 67.639C178.744 67.7448 179.072 67.9036 179.367 68.1329L179.678 67.5861C179.401 67.3744 179.038 67.2157 178.605 67.0745C178.172 66.9511 177.722 66.8805 177.29 66.8805C176.701 66.8805 176.216 66.9687 175.818 67.1451C175.42 67.3215 175.126 67.5508 174.936 67.8507C174.745 68.1329 174.641 68.468 174.641 68.8385C174.641 69.2442 174.728 69.5617 174.884 69.791C175.057 70.0379 175.265 70.2143 175.542 70.3554C175.818 70.4966 176.113 70.6024 176.459 70.6729C176.788 70.7435 177.117 70.8141 177.445 70.867C177.774 70.9199 178.086 71.0081 178.363 71.0963C178.64 71.1845 178.865 71.308 179.02 71.4844C179.194 71.6607 179.263 71.8901 179.263 72.1723C179.263 72.578 179.107 72.8955 178.778 73.1424C178.449 73.3894 177.93 73.5129 177.203 73.5129C176.684 73.5129 176.199 73.4247 175.767 73.2659C175.316 73.0895 174.97 72.8955 174.693 72.6662L174.382 73.213C174.659 73.4776 175.04 73.6893 175.559 73.8657C176.061 74.042 176.597 74.1302 177.186 74.1302C177.774 74.1302 178.294 74.042 178.692 73.8833C179.107 73.7245 179.419 73.4952 179.626 73.1954C179.834 72.9131 179.938 72.5603 179.938 72.1723C179.938 71.7842 179.851 71.4667 179.695 71.2374C179.522 71.0081 179.315 70.8317 179.038 70.6906ZM195.325 63.9524V68.5915C195.031 68.0623 194.65 67.639 194.148 67.3568C193.646 67.0745 193.092 66.9158 192.486 66.9158C191.829 66.9158 191.258 67.0745 190.721 67.3744C190.202 67.6743 189.786 68.0976 189.492 68.6444C189.18 69.1913 189.042 69.8086 189.042 70.5318C189.042 71.255 189.198 71.8724 189.492 72.4192C189.786 72.966 190.202 73.3894 190.721 73.6893C191.24 73.9891 191.829 74.1479 192.486 74.1479C193.144 74.1479 193.663 74.0068 194.165 73.7069C194.667 73.407 195.048 73.0013 195.342 72.4545C195.342 72.4545 195.342 72.4369 195.342 72.4192V74.0773H196V63.97H195.325V63.9524ZM194.961 72.0841C194.719 72.5427 194.39 72.8955 193.958 73.1424C193.542 73.3894 193.058 73.5129 192.521 73.5129C191.984 73.5129 191.5 73.3894 191.084 73.1424C190.669 72.8955 190.323 72.5427 190.08 72.0841C189.838 71.6255 189.717 71.1139 189.717 70.5142C189.717 69.9145 189.838 69.3853 190.08 68.9443C190.323 68.5033 190.652 68.1505 191.084 67.9036C191.5 67.6566 191.984 67.5332 192.521 67.5332C193.058 67.5332 193.542 67.6566 193.958 67.9036C194.373 68.1505 194.719 68.5033 194.961 68.9443C195.204 69.3853 195.325 69.9145 195.325 70.5142C195.325 71.1139 195.204 71.6255 194.961 72.0841ZM186.1 67.3568C185.598 67.0569 185.026 66.9158 184.403 66.9158C183.78 66.9158 183.209 67.0745 182.69 67.3744C182.188 67.6919 181.79 68.1153 181.496 68.6444C181.201 69.1913 181.063 69.8086 181.063 70.5142C181.063 71.2198 181.219 71.8371 181.53 72.384C181.842 72.9308 182.257 73.3541 182.794 73.6716C183.33 73.9715 183.953 74.1302 184.663 74.1302C185.2 74.1302 185.702 74.0244 186.152 73.8304C186.619 73.6363 187 73.3541 187.294 72.966L186.913 72.5251C186.653 72.8602 186.325 73.1072 185.927 73.2659C185.528 73.4247 185.13 73.5129 184.68 73.5129C184.109 73.5129 183.607 73.3894 183.157 73.1424C182.707 72.8955 182.361 72.5427 182.101 72.1017C181.859 71.696 181.755 71.2198 181.721 70.6906H187.709C187.709 70.6906 187.709 70.62 187.709 70.5847C187.709 70.5495 187.709 70.5318 187.709 70.4966C187.709 69.791 187.571 69.156 187.277 68.6268C186.982 68.08 186.584 67.6743 186.082 67.3744L186.1 67.3568ZM181.721 70.1438C181.755 69.6852 181.859 69.2794 182.049 68.909C182.274 68.468 182.603 68.1152 183.001 67.8683C183.399 67.6214 183.867 67.4979 184.386 67.4979C184.905 67.4979 185.373 67.6214 185.771 67.8683C186.169 68.1152 186.498 68.468 186.723 68.909C186.913 69.2794 187.034 69.6852 187.051 70.1438H181.703H181.721ZM87.3727 72.966C87.2169 72.966 87.0958 73.019 86.9746 73.1248C86.8708 73.2306 86.8015 73.3718 86.8015 73.5305C86.8015 73.6893 86.8534 73.8304 86.9746 73.9362C87.0438 74.0068 87.1476 74.0597 87.2515 74.0773L86.8188 76H87.3035L87.8227 74.1479C87.8573 74.042 87.8746 73.9715 87.8919 73.9009C87.9092 73.8304 87.9265 73.7775 87.9265 73.7069C87.9265 73.6363 87.9265 73.5834 87.9265 73.5129C87.9265 73.3541 87.8746 73.2306 87.7707 73.1072C87.6669 73.0013 87.5284 72.9308 87.3553 72.9308L87.3727 72.966ZM83.9629 68.5915C83.6686 68.0623 83.2878 67.639 82.7859 67.3568C82.284 67.0745 81.7302 66.9158 81.1244 66.9158C80.4667 66.9158 79.8954 67.0745 79.3589 67.3744C78.8396 67.6743 78.4242 68.0976 78.13 68.6444C77.8184 69.1913 77.6799 69.8086 77.6799 70.5318C77.6799 71.255 77.8357 71.8724 78.13 72.4192C78.4242 72.966 78.8396 73.3894 79.3589 73.6893C79.8781 73.9891 80.4667 74.1479 81.1244 74.1479C81.7821 74.1479 82.3013 74.0068 82.8032 73.7069C83.3052 73.407 83.6859 73.0013 83.9802 72.4545C83.9802 72.4545 83.9802 72.4369 83.9802 72.4192V74.0773H84.6379V63.97H83.9629V68.6092V68.5915ZM83.5994 72.0841C83.3571 72.5427 83.0282 72.8955 82.5955 73.1424C82.1801 73.3894 81.6955 73.5129 81.1589 73.5129C80.6224 73.5129 80.1378 73.3894 79.7224 73.1424C79.307 72.8955 78.9608 72.5427 78.7185 72.0841C78.4762 71.6255 78.355 71.1139 78.355 70.5142C78.355 69.9145 78.4762 69.3853 78.7185 68.9443C78.9608 68.5033 79.2897 68.1505 79.7224 67.9036C80.1378 67.6566 80.6224 67.5332 81.1589 67.5332C81.6955 67.5332 82.1801 67.6566 82.5955 67.9036C83.0109 68.1505 83.3571 68.5033 83.5994 68.9443C83.8418 69.3853 83.9629 69.9145 83.9629 70.5142C83.9629 71.1139 83.8418 71.6255 83.5994 72.0841ZM63.989 66.8981C63.4525 66.8981 62.9332 66.9863 62.4486 67.1627C61.9639 67.3391 61.5313 67.5861 61.1851 67.9036L61.514 68.3975C61.8082 68.1329 62.1543 67.9212 62.5697 67.7448C62.9851 67.5684 63.4352 67.4979 63.9198 67.4979C64.5949 67.4979 65.114 67.6743 65.4602 68.0094C65.8064 68.3622 65.9795 68.8561 65.9795 69.5264V70.0909H63.591C62.9506 70.0909 62.4313 70.179 62.0505 70.3731C61.6697 70.5671 61.3927 70.7964 61.237 71.0963C61.0639 71.3962 60.9947 71.7137 60.9947 72.0841C60.9947 72.4898 61.0985 72.8426 61.2889 73.1424C61.4966 73.4423 61.7736 73.6893 62.1544 73.8657C62.5351 74.042 62.9852 74.1126 63.5045 74.1126C64.1968 74.1126 64.768 73.9538 65.218 73.654C65.5641 73.4247 65.8237 73.1248 66.0141 72.772V74.042H66.6545V69.5264C66.6545 68.6444 66.4296 67.9741 65.9622 67.5332C65.4949 67.0922 64.8371 66.8629 63.9717 66.8629L63.989 66.8981ZM66.0141 71.9606C65.8237 72.4721 65.5122 72.8779 65.1141 73.1424C64.716 73.407 64.214 73.5481 63.6255 73.5481C63.037 73.5481 62.5352 73.407 62.189 73.1424C61.8428 72.8779 61.687 72.5074 61.687 72.0488C61.687 71.6431 61.8255 71.308 62.1197 71.0257C62.414 70.7611 62.9159 70.62 63.6429 70.62H66.0141V71.9606ZM74.3394 67.2333C73.924 67.004 73.4221 66.8981 72.8509 66.8981C72.1413 66.8981 71.5355 67.0569 71.0509 67.3744C70.6182 67.6566 70.3066 68.0447 70.0816 68.5033V66.9511H69.4412V74.0597H70.1162V70.2672C70.1162 69.7028 70.2201 69.2089 70.4278 68.8032C70.6355 68.3975 70.947 68.08 71.3451 67.8507C71.7432 67.6214 72.2105 67.5155 72.7644 67.5155C73.474 67.5155 74.0279 67.7272 74.426 68.1505C74.8241 68.5739 75.0145 69.1736 75.0145 69.9674V74.0597H75.6895V69.8968C75.6895 69.2265 75.5683 68.6797 75.3433 68.2211C75.101 67.7801 74.7721 67.4273 74.3567 67.2157L74.3394 67.2333ZM94.4517 69.5264H99.4365V68.909H94.4517V65.1519H100.025V64.5168H93.7768V74.0597H100.233V73.4247H94.4517V69.5088V69.5264ZM109.718 64.1288C109.562 64.1288 109.441 64.1817 109.337 64.2875C109.233 64.3934 109.181 64.5345 109.181 64.6756C109.181 64.8167 109.233 64.9402 109.337 65.0637C109.441 65.1695 109.579 65.2224 109.718 65.2224C109.873 65.2224 110.012 65.1695 110.116 65.0637C110.22 64.9578 110.272 64.8167 110.272 64.6756C110.272 64.5345 110.22 64.3934 110.116 64.2875C110.012 64.1817 109.873 64.1288 109.718 64.1288ZM118.407 68.5915C118.112 68.0623 117.732 67.639 117.23 67.3568C116.728 67.0745 116.174 66.9158 115.568 66.9158C114.91 66.9158 114.339 67.0745 113.803 67.3744C113.283 67.6743 112.868 68.0976 112.574 68.6444C112.262 69.1913 112.124 69.8086 112.124 70.5318C112.124 71.255 112.279 71.8724 112.574 72.4192C112.868 72.966 113.283 73.3894 113.803 73.6893C114.322 73.9891 114.91 74.1479 115.568 74.1479C116.226 74.1479 116.745 74.0068 117.247 73.7069C117.749 73.407 118.13 73.0013 118.424 72.4545C118.424 72.4545 118.424 72.4369 118.424 72.4192V74.0773H119.082V63.97H118.407V68.6092V68.5915ZM118.043 72.0841C117.801 72.5427 117.472 72.8955 117.039 73.1424C116.624 73.3894 116.139 73.5129 115.603 73.5129C115.066 73.5129 114.581 73.3894 114.166 73.1424C113.751 72.8955 113.404 72.5427 113.162 72.0841C112.92 71.6255 112.799 71.1139 112.799 70.5142C112.799 69.9145 112.92 69.3853 113.162 68.9443C113.404 68.5033 113.733 68.1505 114.166 67.9036C114.581 67.6566 115.066 67.5332 115.603 67.5332C116.139 67.5332 116.624 67.6566 117.039 67.9036C117.455 68.1505 117.801 68.5033 118.043 68.9443C118.285 69.3853 118.407 69.9145 118.407 70.5142C118.407 71.1139 118.285 71.6255 118.043 72.0841ZM109.389 74.0597H110.064V66.9511H109.389V74.0597ZM104.439 73.3188L101.652 66.9511H100.942L104.075 74.0597H104.75L107.9 66.9511H107.225L104.421 73.3188H104.439Z" fill="#989B7B"/>
</g>
<defs>
<clipPath id="clip0_108_203">
<rect width="196" height="76" fill="white"/>
</clipPath>
</defs>
</svg>
