<svg width="190" height="44" viewBox="0 0 190 44" fill="none" xmlns="http://www.w3.org/2000/svg">
<path d="M0.304688 42.1666V1.24658H15.752C16.141 1.24658 16.5766 1.26492 17.0587 1.30342C17.5588 1.32175 18.0589 1.37858 18.559 1.47392C20.6508 1.79658 22.42 2.54458 23.8647 3.71792C25.3181 4.85998 26.4575 6.36768 27.1718 8.09408C27.93 9.85775 28.31 11.8084 28.31 13.9497C28.31 16.0709 27.93 18.0124 27.17 19.7742C26.4349 21.5034 25.2888 23.0172 23.836 24.1779C22.3913 25.3329 20.6329 26.0736 18.559 26.3962C17.6295 26.5365 16.6916 26.6118 15.752 26.6217H4.38789V42.1666H0.304688ZM4.38969 22.6434H15.6409C15.9743 22.6434 16.3633 22.6251 16.8078 22.5884C17.2523 22.5499 17.6861 22.4839 18.1127 22.3886C19.4839 22.0861 20.6042 21.5086 21.4753 20.6561C22.3568 19.8146 23.0323 18.7726 23.447 17.6146C23.8913 16.4456 24.1181 15.2021 24.1156 13.9479C24.1156 12.6792 23.8916 11.4582 23.447 10.2831C23.0373 9.11453 22.3614 8.06253 21.4753 7.21408C20.6042 6.36158 19.4857 5.78408 18.1127 5.47975C17.6833 5.38522 17.2467 5.32878 16.8078 5.31108C16.4198 5.27586 16.0305 5.2569 15.6409 5.25425H4.38789V22.6452L4.38969 22.6434ZM32.7284 42.1666V1.24658H48.1757C48.5647 1.24658 49.0003 1.26492 49.4824 1.30342C49.9807 1.32175 50.4808 1.37858 50.9809 1.47392C53.0745 1.79658 54.8436 2.54458 56.2884 3.71792C57.7418 4.85998 58.8812 6.36768 59.5954 8.09408C60.3537 9.85775 60.7337 11.8084 60.7337 13.9497C60.7337 17.0371 59.9378 19.7174 58.3443 21.9907C56.7508 24.2641 54.4726 25.6941 51.5097 26.2807L50.0937 26.6217H36.8116V42.1666H32.7284ZM56.9552 42.1666L49.0648 25.5144L52.9813 23.9799L61.6514 42.1666H56.9552ZM36.8134 22.6434H48.0646C48.398 22.6434 48.7869 22.6251 49.2315 22.5884C49.676 22.5499 50.1098 22.4839 50.5382 22.3886C51.9076 22.0861 53.0297 21.5086 53.899 20.6561C54.7805 19.8146 55.456 18.7726 55.8707 17.6146C56.3153 16.4412 56.5375 15.2184 56.5375 13.9479C56.5411 12.6944 56.315 11.4513 55.8707 10.2831C55.4609 9.11453 54.7851 8.06253 53.899 7.21408C53.0279 6.36158 51.9094 5.78408 50.5382 5.47975C50.1082 5.38511 49.671 5.32868 49.2315 5.31108C48.8434 5.27586 48.4542 5.2569 48.0646 5.25425H36.8134V22.6452V22.6434ZM63.3381 42.1666L77.2009 21.4499L63.6984 1.24658H68.6455L79.6189 17.9556L90.5905 1.24658H95.5646L82.0638 21.4499L95.8998 42.1666H90.9526L79.6189 24.9754L68.3103 42.1666H63.3381ZM98.7032 23.4959V19.9154H115.373V23.4977H98.7032V23.4959ZM132.122 42.1666V5.25425H118.146V1.24658H150.179V5.25242H136.205V42.1666H132.122ZM159.776 42.7642C157.922 42.7642 156.275 42.2417 154.828 41.2004C153.386 40.1591 152.394 38.7382 151.857 36.9379L154.83 36.0579C155.219 37.2679 155.857 38.1882 156.748 38.8134C157.653 39.4184 158.664 39.7117 159.776 39.6934C161.312 39.6751 162.525 39.1727 163.414 38.1882C164.321 37.1836 164.777 35.9057 164.777 34.3529C164.777 32.7799 164.312 31.5002 163.387 30.5157C162.461 29.5111 161.236 29.0087 159.72 29.0087C159.293 29.0087 158.86 29.0656 158.413 29.1792C157.969 29.2947 157.535 29.4451 157.108 29.6339L155.608 27.1626L165.388 18.0692L165.97 19.6037H152.857V16.5916H167.666V19.6331L159.247 27.8152L159.164 26.3376C160.923 26.1487 162.461 26.3852 163.776 27.0489C165.075 27.661 166.154 28.6749 166.859 29.9474C167.582 31.2161 167.944 32.6846 167.944 34.3511C167.944 36.0011 167.582 37.4586 166.859 38.7291C166.168 39.9663 165.159 40.9873 163.943 41.6826C162.721 42.4031 161.331 42.7642 159.776 42.7642ZM180.315 42.7642C178.462 42.7642 176.815 42.2417 175.368 41.2004C173.925 40.1591 172.934 38.7382 172.396 36.9379L175.37 36.0579C175.759 37.2679 176.397 38.1882 177.288 38.8134C178.193 39.4184 179.204 39.7117 180.315 39.6934C181.851 39.6751 183.065 39.1727 183.954 38.1882C184.863 37.1836 185.316 35.9057 185.316 34.3529C185.316 32.7799 184.852 31.5002 183.927 30.5157C183 29.5111 181.778 29.0087 180.26 29.0087C179.819 29.0106 179.38 29.0679 178.953 29.1792C178.509 29.2947 178.075 29.4451 177.648 29.6339L176.148 27.1626L185.928 18.0692L186.51 19.6037H173.396V16.5916H188.208V19.6331L179.788 27.8152L179.706 26.3376C181.464 26.1487 183.002 26.3852 184.318 27.0489C185.617 27.6609 186.695 28.6748 187.401 29.9474C188.123 31.2161 188.485 32.6846 188.485 34.3511C188.485 36.0011 188.123 37.4586 187.401 38.7291C186.709 39.9665 185.701 40.9876 184.485 41.6826C183.262 42.4031 181.871 42.7642 180.315 42.7642Z" fill="#989B7B"/>
</svg>
