<svg width="197" height="107" viewBox="0 0 197 107" fill="none" xmlns="http://www.w3.org/2000/svg">
<g clip-path="url(#clip0_108_201)">
<path d="M46.5292 23.711H57.0146C63.3106 23.711 68.4363 18.6499 68.4363 12.4333C68.4363 6.21663 63.3106 1.15551 57.0146 1.15551H45.1483V37.3691H46.5526V23.6879L46.5292 23.711ZM46.5292 2.56523H57.0146C62.5382 2.56523 67.032 7.00238 67.032 12.4564C67.032 17.9104 62.5382 22.3475 57.0146 22.3475H46.5292V2.56523ZM75.1535 23.711H83.3921L97.2478 37.3922H99.2139L85.3581 23.711H85.6155C91.9115 23.711 97.0372 18.6499 97.0372 12.4333C97.0372 6.21663 91.9115 1.15551 85.6155 1.15551H73.7492V37.3691H75.1535V23.6879V23.711ZM75.1535 2.56523H85.6389C91.1625 2.56523 95.6563 7.00238 95.6563 12.4564C95.6563 17.9104 91.1625 22.3475 85.6389 22.3475H75.1535V2.56523ZM111.104 3.88251L137.294 37.3922H138.324V1.17862H136.919V34.6883L110.729 1.17862H109.699V37.3922H111.104V3.88251ZM161.775 37.5309C170.576 37.5309 178.089 31.6378 180.055 23.1795L180.242 22.3475H155.597V23.7341H178.487C176.38 31.1063 169.64 36.1905 161.799 36.1905C152.226 36.1905 144.456 28.4948 144.456 19.0659C144.456 9.63693 152.25 1.94125 161.799 1.94125C169.71 1.94125 176.614 7.21037 178.604 14.7674L178.768 15.4376L180.125 15.0909L179.961 14.4207C177.831 6.26285 170.365 0.554644 161.822 0.554644C151.477 0.554644 143.075 8.85119 143.075 19.0659C143.075 29.2806 151.477 37.5771 161.822 37.5771L161.775 37.5309ZM104.386 1.17862H102.982V37.3922H104.386V1.17862ZM30.9882 37.0456C36.6522 37.0456 41.263 32.4929 41.263 26.9002C41.263 24.2425 41.263 19.3201 32.4628 16.0616C24.3646 13.0572 24.3646 10.0991 24.3646 8.13477C24.3646 4.41404 27.4307 1.38661 31.1989 1.38661C34.382 1.38661 37.1203 3.51274 37.8459 6.58639L38.0097 7.25659L39.3672 6.93305L39.2034 6.26285C38.314 2.58834 35.0373 0 31.1989 0C26.6583 0 22.9837 3.6514 22.9837 8.11166C22.9837 10.9542 23.6859 14.2359 31.9712 17.3095C39.8587 20.2214 39.8587 24.3812 39.8587 26.854C39.8587 31.684 35.8799 35.6359 30.9648 35.6359C26.7051 35.6359 22.4454 32.7702 21.439 29.2343L21.2518 28.5641L19.9177 28.9339L20.1049 29.6041C21.2751 33.7639 26.0498 37.0225 30.9648 37.0225L30.9882 37.0456ZM100.805 88.2808V106.977H123.181V105.59H102.186V89.6443H123.181V88.2577H102.186V72.3117H123.181V70.9251H100.805V88.2346V88.2808ZM139.47 70.8557L128.681 95.2138L123.485 106.977H125.006L129.781 96.1844H150.073L154.848 106.977H156.369L140.383 70.8788H139.47V70.8557ZM130.389 94.7978L139.915 73.2823L149.441 94.7978H130.366H130.389ZM171.067 70.9713H160.278V106.977H171.067C181.131 106.977 189.3 98.9114 189.3 88.9741C189.3 79.0367 181.131 70.9713 171.067 70.9713ZM171.067 105.59H161.682V72.3348H171.067C180.359 72.3348 187.919 79.7994 187.919 88.9741C187.919 98.1488 180.359 105.613 171.067 105.613V105.59ZM196.462 53.1302L195.83 53.4076C195.619 53.5 178.019 60.9877 129.594 56.643L125.966 51.9054L124.866 52.7374L127.721 56.4812C125.147 56.227 122.478 55.9728 119.74 55.6492L116.393 51.2583L115.293 52.0903L117.844 55.4181C115.317 55.1177 112.719 54.7942 110.074 54.4244L106.774 50.1028L105.674 50.9348L108.155 54.1702C106.306 53.916 104.41 53.6387 102.467 53.3613C97.4819 52.6218 92.7072 51.9747 88.1199 51.4432L91.6774 48.7855L90.8348 47.6762L86.1305 51.189C83.4857 50.8886 80.8877 50.6112 78.36 50.3801L82.0346 47.63L81.192 46.5207L76.3004 50.1721C73.796 49.941 71.3385 49.7562 68.9512 49.5713L72.4385 46.9598L71.5959 45.8505L66.8213 49.4095C21.8603 46.4514 0.912793 53.2689 0.655338 53.3382L0 53.5693L0.444701 54.8635L1.10004 54.6324C1.35749 54.54 22.0709 47.8149 66.6809 50.773L70.2852 55.4875L71.3853 54.6555L68.5065 50.9117C71.0342 51.0965 73.6556 51.3045 76.3237 51.5356L79.8345 56.1346L80.9345 55.3026L78.1962 51.7205C80.6771 51.9516 83.2282 52.2289 85.8262 52.5294L89.4774 57.2901L90.5774 56.4581L87.7454 52.7374C92.3562 53.292 97.1776 53.916 102.186 54.6786C104.386 55.0022 106.516 55.3026 108.623 55.603L104.574 58.6073L105.416 59.7166L110.565 55.8803C113.163 56.227 115.691 56.5505 118.148 56.8279L114.216 59.7629L115.059 60.8721L120.161 57.059C122.619 57.3363 124.983 57.5905 127.3 57.7985L123.813 60.4099L124.655 61.5192L129.36 58.0065C140.5 59.0233 150.026 59.4162 158.077 59.4162C185.227 59.4162 195.736 54.9328 196.368 54.6324L197 54.3551L196.415 53.1071L196.462 53.1302ZM83.4155 93.4112C89.7114 93.4112 94.8371 88.3501 94.8371 82.1335C94.8371 75.9168 89.7114 70.8557 83.4155 70.8557H71.5491V106.954H72.9534V93.3881H81.192L94.9307 106.954H96.8967L83.158 93.3881H83.4155V93.4112ZM72.93 92.0246V72.2423H83.4155C88.939 72.2423 93.4328 76.6795 93.4328 82.1335C93.4328 87.5875 88.939 92.0246 83.4155 92.0246H72.93ZM62.7254 88.2808H37.9863V70.9713H36.582V106.977H37.9863V89.6674H62.7254V106.977H64.1297V70.9713H62.7254V88.2808ZM20.7134 70.9713H6.99809V72.3579H20.7134V107H22.1177V72.3579H35.8331V70.9713H20.7368H20.7134ZM193.466 70.9713C192.811 70.6246 192.132 70.4397 191.453 70.4397C190.774 70.4397 190.096 70.6246 189.44 70.9713C188.785 71.3179 188.27 71.8264 187.895 72.4734C187.521 73.1205 187.334 73.8138 187.334 74.5071C187.334 75.2004 187.521 75.8706 187.872 76.5177C188.223 77.1648 188.738 77.6732 189.393 78.0199C190.049 78.3665 190.727 78.5514 191.453 78.5514C192.179 78.5514 192.857 78.3665 193.513 78.0199C194.168 77.6732 194.683 77.1648 195.034 76.5177C195.385 75.8706 195.572 75.2004 195.572 74.5071C195.572 73.8138 195.385 73.1205 195.011 72.4734C194.636 71.8264 194.121 71.3179 193.466 70.9713ZM194.425 76.1942C194.121 76.7257 193.7 77.1417 193.162 77.4421C192.623 77.7425 192.038 77.8812 191.453 77.8812C190.868 77.8812 190.283 77.7425 189.744 77.4421C189.206 77.1417 188.785 76.7257 188.481 76.1942C188.176 75.6626 188.036 75.108 188.036 74.5071C188.036 73.9063 188.2 73.3516 188.504 72.797C188.808 72.2423 189.23 71.8263 189.791 71.549C190.353 71.2717 190.891 71.1099 191.476 71.1099C192.062 71.1099 192.623 71.2486 193.162 71.549C193.7 71.8495 194.145 72.2654 194.449 72.797C194.753 73.3285 194.917 73.9063 194.917 74.5071C194.917 75.108 194.777 75.6626 194.472 76.1942H194.425ZM192.155 75.0387C192.155 75.0387 191.945 74.8769 191.781 74.8076C192.155 74.7844 192.459 74.6458 192.693 74.4147C192.928 74.1836 193.045 73.9063 193.045 73.5827C193.045 73.3516 192.974 73.1436 192.834 72.9356C192.693 72.7276 192.506 72.589 192.272 72.5197C192.038 72.4503 191.664 72.4041 191.149 72.4041H189.627V76.7719H190.353V74.9231H190.774C191.032 74.9231 191.219 74.9693 191.336 75.0849C191.523 75.2235 191.781 75.5702 192.085 76.1017L192.483 76.795H193.349L192.811 75.94C192.553 75.524 192.342 75.2467 192.155 75.0618V75.0387ZM191.219 74.2991H190.353V72.9819H191.172C191.523 72.9819 191.757 73.005 191.898 73.0512C192.038 73.0974 192.132 73.1667 192.202 73.2823C192.272 73.3978 192.319 73.4903 192.319 73.6289C192.319 73.8369 192.249 73.9987 192.085 74.1143C191.921 74.2298 191.64 74.2991 191.242 74.2991H191.219Z" fill="#989B7B"/>
</g>
<defs>
<clipPath id="clip0_108_201">
<rect width="197" height="107" fill="white"/>
</clipPath>
</defs>
</svg>
