<svg width="208" height="58" viewBox="0 0 208 58" fill="none" xmlns="http://www.w3.org/2000/svg">
<g clip-path="url(#clip0_107_41)">
<path d="M182.025 9.06312C188.539 9.06312 194.081 11.2539 198.651 15.6367C203.309 20.0191 205.64 25.282 205.64 31.4254C205.64 37.6555 203.309 42.9183 198.651 47.214C194.081 51.5964 188.539 53.788 182.025 53.788C175.51 53.788 169.968 51.5964 165.399 47.214C160.785 42.8754 158.477 37.6117 158.477 31.4254C158.477 25.282 160.785 20.0191 165.399 15.6367C169.923 11.2539 175.465 9.06312 182.025 9.06312ZM123.778 0.398438C131.389 0.398438 137.863 2.95902 143.202 8.0786C148.646 13.1994 151.369 19.3487 151.369 26.5261C151.369 32.0895 149.654 37.1271 146.229 41.6401L151.639 46.2486L144.973 53.2807L139.118 48.2022C134.464 51.1588 129.354 52.6526 123.778 52.653C116.167 52.6526 109.691 50.0928 104.353 44.9729C98.9613 39.9026 96.2655 33.7537 96.2655 26.5261C96.2655 19.3487 98.9613 13.199 104.353 8.0786C109.638 2.95823 116.113 0.398438 123.778 0.398438ZM88.3476 19.4861V52.6527H80.7933V19.4861H88.3476ZM8.47403 9.35747L22.8609 36.495L37.1149 9.35747L51.436 36.495L65.757 9.35747H74.2309L51.436 52.6526L37.1149 25.5155L22.8609 52.6526L-0.000244141 9.35747H8.47403ZM182.025 16.5387C177.726 16.5387 174.018 18.0003 170.895 20.9211C167.865 23.8435 166.349 27.3447 166.349 31.4254C166.349 35.5076 167.865 39.0299 170.895 41.9945C174.018 44.8727 177.726 46.312 182.025 46.312C186.323 46.312 190.009 44.8727 193.086 41.9945C196.162 39.0299 197.7 35.5076 197.7 31.4254C197.7 27.3447 196.162 23.8435 193.086 20.9211C190.009 18.0003 186.323 16.5387 182.025 16.5387ZM123.778 9.13301C118.755 9.13301 114.422 10.8406 110.775 14.253C107.234 17.667 105.463 21.758 105.463 26.5261C105.463 31.2954 107.233 35.41 110.775 38.8737C114.422 42.2379 118.755 43.9181 123.777 43.9189C126.799 43.9181 129.556 43.2983 132.06 42.0807L124.945 35.9087L134.834 31.9363L139.315 35.7523C141.155 33.009 142.091 29.9381 142.092 26.5257C142.091 21.758 140.294 17.6674 136.701 14.2534C133.105 10.8402 128.798 9.13301 123.778 9.13301ZM88.3471 9.35723V16.7858H80.7929V9.35723H88.3471Z" fill="#989B7B"/>
<path fill-rule="evenodd" clip-rule="evenodd" d="M202.128 0C202.936 0 203.697 0.153231 204.411 0.459311C205.125 0.765008 205.75 1.17835 206.284 1.69857C206.817 2.21879 207.236 2.83133 207.542 3.53505C207.847 4.23915 208 4.98921 208 5.78449C208 6.59087 207.847 7.34591 207.542 8.04924C207.236 8.75373 206.817 9.36857 206.284 9.89338C205.75 10.419 205.125 10.8346 204.411 11.1407C203.697 11.4475 202.936 11.6 202.128 11.6C201.31 11.6 200.544 11.4475 199.83 11.1407C199.115 10.8346 198.491 10.419 197.958 9.89338C197.424 9.36857 197.003 8.75373 196.692 8.04924C196.381 7.34591 196.226 6.59087 196.226 5.78449C196.226 4.98921 196.381 4.23915 196.692 3.53505C197.003 2.83133 197.424 2.21879 197.958 1.69857C198.491 1.17835 199.115 0.765008 199.83 0.459311C200.544 0.153231 201.31 0 202.128 0ZM202.128 0.765008C201.414 0.765008 200.751 0.895254 200.139 1.15536C199.53 1.41624 199.003 1.77021 198.564 2.21879C198.123 2.66814 197.78 3.19871 197.531 3.81086C197.282 4.42302 197.158 5.08077 197.158 5.78449C197.158 6.49893 197.282 7.16242 197.531 7.77381C197.78 8.38597 198.123 8.9196 198.564 9.37316C199.003 9.82711 199.53 10.1845 200.139 10.4443C200.751 10.7047 201.414 10.8346 202.128 10.8346C202.843 10.8346 203.503 10.7047 204.108 10.4443C204.715 10.1845 205.235 9.82711 205.67 9.37316C206.105 8.9196 206.446 8.38597 206.695 7.77381C206.943 7.16242 207.068 6.49893 207.068 5.78449C207.068 5.08077 206.943 4.42302 206.695 3.81086C206.446 3.19871 206.105 2.66814 205.67 2.21879C205.235 1.77021 204.715 1.41624 204.108 1.15536C203.503 0.895254 202.843 0.765008 202.128 0.765008ZM202.812 2.55552C203.681 2.55552 204.287 2.70875 204.63 3.01483C204.971 3.32129 205.141 3.73923 205.141 4.26979C205.141 4.58583 205.089 4.85629 204.986 5.08077C204.883 5.30487 204.738 5.48645 204.551 5.62398C204.365 5.7615 204.145 5.86378 203.891 5.93044C203.637 5.99671 203.366 6.03464 203.075 6.04536L205.064 9.02916H204.101L202.222 6.04536H200.746V9.02916H199.938V2.55552H202.812ZM202.626 3.12171H200.746V5.41711H202.719C202.988 5.41711 203.239 5.38723 203.471 5.32556C203.705 5.26426 203.897 5.15241 204.046 4.98921C204.197 4.82602 204.272 4.58124 204.272 4.25409C204.272 4.00011 204.223 3.79746 204.124 3.64997C204.026 3.5021 203.899 3.38986 203.743 3.31363C203.589 3.23663 203.412 3.18606 203.216 3.16001C203.019 3.13473 202.822 3.12171 202.626 3.12171Z" fill="#989B7B"/>
</g>
<defs>
<clipPath id="clip0_107_41">
<rect width="208" height="58" fill="white"/>
</clipPath>
</defs>
</svg>
