<?xml version="1.0" encoding="UTF-8"?>
<svg id="Layer_2" data-name="Layer 2" xmlns="http://www.w3.org/2000/svg" viewBox="0 0 300 300">
  <defs>
    <style>
      .cls-1 {
        fill: none;
        stroke: #231f20;
        stroke-linecap: round;
        stroke-linejoin: round;
        stroke-width: 4px;
      }
    </style>
  </defs>
  <rect class="cls-1" x="113.17" y="56.13" width="96.52" height="134.5" rx="25.07" ry="25.07"/>
  <line class="cls-1" x1="124.55" y1="85.73" x2="162.09" y2="85.73"/>
  <line class="cls-1" x1="124.55" y1="102.07" x2="144.64" y2="102.07"/>
  <path class="cls-1" d="M126.28,136.12v29.04c0,7.07,5.74,12.81,12.81,12.81h43.58c7.07,0,12.81-5.74,12.81-12.81v-57.75c0-10.25-11.42-16.36-19.95-10.68l-43.77,29.15c-3.43,2.28-5.49,6.13-5.49,10.24Z"/>
  <polyline class="cls-1" points="142.1 190.64 145.42 201.24 153.04 201.24 156.9 218.91 160.21 218.91"/>
  <polyline class="cls-1" points="178.33 190.64 175.01 201.24 167.39 201.24 163.53 218.91 160.21 218.91"/>
  <path class="cls-1" d="M90.31,248.83v-13.86c0-11.01,8.92-19.93,19.93-19.93h0c11.01,0,19.93,8.92,19.93,19.93v12.81c0,8.26,6.7,14.96,14.96,14.96h0c8.26,0,14.96-6.7,14.96-14.96v-28.88"/>
  <path class="cls-1" d="M171.59,56.13s.22-18.88-10.71-18.88-10.71,18.88-10.71,18.88"/>
</svg>