<?xml version="1.0" encoding="UTF-8"?>
<svg id="Layer_2" data-name="Layer 2" xmlns="http://www.w3.org/2000/svg" viewBox="0 0 300 300">
  <defs>
    <style>
      .cls-1 {
        fill: #231f20;
        stroke-width: 0px;
      }

      .cls-2 {
        fill: none;
        stroke: #231f20;
        stroke-linecap: round;
        stroke-linejoin: round;
        stroke-width: 4px;
      }
    </style>
  </defs>
  <path class="cls-2" d="M216.33,138.46c-.99,14.69-.96,36.01-7.48,58.75s-38.43,55.66-59.3,55.66h-.11c-20.87,0-52.79-32.91-59.3-55.66s-6.37-42.37-7.37-57.06"/>
  <path class="cls-2" d="M81.92,137c-8.19-16.91-5.89-48.76,20.14-63.55,11.58-6.58,28.88-11.23,47.16-11.63"/>
  <path class="cls-2" d="M216.52,137c8.19-16.91,5.89-48.76-20.14-63.55-11.58-6.58-28.88-11.23-47.16-11.63"/>
  <path class="cls-2" d="M102.88,168.58c11.63-6.48,22.97-5.45,30.48,4.27"/>
  <circle class="cls-1" cx="118.12" cy="170.3" r="5.82"/>
  <path class="cls-2" d="M106.93,151.54c1.77-1.07,21.09-1.03,23.15,0"/>
  <path class="cls-2" d="M140.64,199.94c5.37,3.09,12,4.05,17.15,0"/>
  <path class="cls-2" d="M135.31,220.74c8.06,7.18,20.54,7.51,28.49.77"/>
  <path class="cls-2" d="M120.9,239.99v25.84"/>
  <path class="cls-2" d="M179.2,239.99v25.84"/>
  <path class="cls-2" d="M116.47,67c0-18.13,14.7-32.83,32.83-32.83s32.83,14.7,32.83,32.83"/>
  <path class="cls-2" d="M191.79,168.58c-11.63-6.48-22.97-5.45-30.48,4.27"/>
  <circle class="cls-1" cx="176.55" cy="170.3" r="5.82"/>
  <path class="cls-2" d="M187.74,151.54c-1.77-1.07-21.09-1.03-23.15,0"/>
  <path class="cls-2" d="M216.33,138.46c-18.08-34.16-66.78-32.98-66.78-32.98,0,0-48.69-1.18-66.78,32.98"/>
  <path class="cls-2" d="M216.33,138.46c-10.64-47-50.58-46.96-66.78-46.96s-58.71,1.76-66.78,46.96"/>
  <path class="cls-2" d="M217.23,140.16c12.84-10.83,14.9,9.79,13.43,17.44s-9.01,27.09-15.9,22.97"/>
  <g>
    <line class="cls-2" x1="146.24" y1="150.75" x2="146.24" y2="131.35"/>
    <path class="cls-1" d="M146.24,119.76c2.02,5.45,5.47,12.22,9.13,16.41l-9.13-3.3-9.13,3.3c3.66-4.19,7.11-10.96,9.13-16.41Z"/>
  </g>
  <g>
    <line class="cls-2" x1="138.2" y1="184.25" x2="123.68" y2="198.77"/>
    <path class="cls-1" d="M115.49,206.96c2.42-5.29,4.77-12.51,5.15-18.06l4.12,8.79,8.79,4.12c-5.55.38-12.78,2.72-18.06,5.15Z"/>
  </g>
  <g>
    <line class="cls-2" x1="160.9" y1="184.25" x2="175.42" y2="198.77"/>
    <path class="cls-1" d="M183.61,206.96c-5.29-2.42-12.51-4.77-18.06-5.15l8.79-4.12,4.12-8.79c.38,5.55,2.72,12.78,5.15,18.06Z"/>
  </g>
  <path class="cls-2" d="M82.77,140.16c-12.84-10.83-14.9,9.79-13.43,17.44s9.01,27.09,15.9,22.97"/>
  <g>
    <path class="cls-2" d="M105.64,246.76c-9.4-8.39-18.27-16.4-23.79-26.94"/>
    <path class="cls-1" d="M77.71,208.99c3.88,4.33,9.58,9.35,14.52,11.91l-9.71.28-7.28,6.43c1.86-5.24,2.58-12.8,2.46-18.62Z"/>
  </g>
  <g>
    <path class="cls-2" d="M191.79,246.76c9.4-8.39,18.27-16.4,23.79-26.94"/>
    <path class="cls-1" d="M219.71,208.99c-.12,5.81.6,13.37,2.46,18.62l-7.28-6.43-9.7-.28c4.94-2.56,10.64-7.58,14.52-11.91Z"/>
  </g>
</svg>