<?xml version="1.0" encoding="UTF-8"?>
<svg id="Layer_2" data-name="Layer 2" xmlns="http://www.w3.org/2000/svg" viewBox="0 0 300 300">
  <defs>
    <style>
      .cls-1 {
        fill: #231f20;
        stroke-width: 0px;
      }

      .cls-2 {
        fill: none;
        stroke: #231f20;
        stroke-linecap: round;
        stroke-linejoin: round;
        stroke-width: 4px;
      }
    </style>
  </defs>
  <circle class="cls-1" cx="93.33" cy="212.69" r="2.17"/>
  <circle class="cls-1" cx="230.23" cy="141.42" r="2.17"/>
  <g>
    <line class="cls-2" x1="223.5" y1="71.59" x2="223.5" y2="83.37"/>
    <line class="cls-2" x1="223.5" y1="92.5" x2="223.5" y2="104.28"/>
    <line class="cls-2" x1="232.92" y1="87.94" x2="228.06" y2="87.94"/>
    <line class="cls-2" x1="218.93" y1="87.94" x2="214.07" y2="87.94"/>
  </g>
  <g>
    <line class="cls-2" x1="88.77" y1="143.59" x2="88.77" y2="155.37"/>
    <line class="cls-2" x1="88.77" y1="164.5" x2="88.77" y2="176.28"/>
    <line class="cls-2" x1="98.19" y1="159.94" x2="93.33" y2="159.94"/>
    <line class="cls-2" x1="84.2" y1="159.94" x2="79.34" y2="159.94"/>
  </g>
  <path class="cls-2" d="M191.25,187.4c-.66,6.63-5.52,4.42-9.28,11.48s1.33,14.58,5.96,16.56,16.56,8.17,22.75,17.67c6.18,9.5,13.47,13.25,26.06,13.47s15.24-7.07,6.4-16.56c-8.83-9.5-15.68-21.2-21.87-38.43-6.18-17.23-34.45-103.14-37.77-112.2s-10.38-22.97-20.54-26.94-66.92,3.09-111.31,6.4"/>
  <path class="cls-2" d="M56.08,117.75c70.97-4.12,83.04-26.8,90.4-21.2s-2.65,12.96,17.37,46.23,31.69,46.05,33.57,54.11"/>
  <path class="cls-2" d="M133.29,99.75c-14.48,20.07-7.12,47.89-5.2,60.41.5,3.29.56,6.3.37,8.95-.14,1.89-1.57,3.43-3.43,3.79-2.37.45-4.5.91-6.22,1.69-9.72,4.42-8.25,13.99-3.98,20.47s4.71,12.37,5.3,31.36,18.85,26.36,26.5,20.18c7.66-6.18-4.86-18.56-1.18-28.27s6.04-24.44,5.6-36.22-1.18-13.25,2.8-21.94"/>
</svg>