<?xml version="1.0" encoding="UTF-8"?>
<svg id="Layer_2" data-name="Layer 2" xmlns="http://www.w3.org/2000/svg" viewBox="0 0 300 300">
  <defs>
    <style>
      .cls-1 {
        fill: #fff;
      }

      .cls-1, .cls-2 {
        stroke-width: 0px;
      }

      .cls-2 {
        fill: #231f20;
      }

      .cls-3 {
        fill: none;
        stroke: #231f20;
        stroke-linecap: round;
        stroke-linejoin: round;
        stroke-width: 4px;
      }
    </style>
  </defs>
  <g>
    <path class="cls-3" d="M216.46,143.63c-.99,14.69-.4,30.84-6.92,53.59s-38.43,55.66-59.3,55.66h-.11c-20.87,0-52.79-32.91-59.3-55.66s-6.37-42.37-7.37-57.06"/>
    <path class="cls-3" d="M88.83,189.49c-15.23-2.1-26.49-34.13-2.2-51.9,24.29-17.78,75.31,14.47,89.56-35.45.66,16.23,12.53,26.1,28.14,33.46,15.61,7.36,37.1,28.27,8.23,49.15"/>
    <path class="cls-3" d="M76.8,180.3c-19.98-35.65-6.4-76.84,21.87-100.14,23.29-19.19,67.87-27.97,101.05-3.1,48.63,36.45,35.75,87.77,15.61,105.55"/>
    <path class="cls-3" d="M103.57,168.58c11.63-6.48,22.97-5.45,30.48,4.27"/>
    <circle class="cls-2" cx="118.81" cy="170.3" r="5.82"/>
    <path class="cls-3" d="M107.62,151.54c1.77-1.07,21.09-1.03,23.15,0"/>
    <path class="cls-3" d="M141.34,199.94c5.37,3.09,12,4.05,17.15,0"/>
    <path class="cls-3" d="M136,220.74c8.06,7.18,20.54,7.51,28.49.77"/>
    <path class="cls-3" d="M121.6,239.99v25.84"/>
    <path class="cls-3" d="M179.89,239.99v25.84"/>
    <path class="cls-3" d="M117.17,67c0-18.13,14.7-32.83,32.83-32.83s32.83,14.7,32.83,32.83"/>
    <path class="cls-3" d="M70.4,165.29c-2.76-65.25,61.07-38.31,76.75-61.72"/>
    <path class="cls-3" d="M192.48,168.58c-11.63-6.48-22.97-5.45-30.48,4.27"/>
    <circle class="cls-2" cx="177.24" cy="170.3" r="5.82"/>
    <path class="cls-3" d="M188.43,151.54c-1.77-1.07-21.09-1.03-23.15,0"/>
  </g>
  <g>
    <path class="cls-1" d="M207.36,195.16c-4.5,0-8.72-1.75-11.9-4.93-6.56-6.56-6.56-17.24,0-23.8l35.94-35.94c-.89-1.2-1.37-2.65-1.37-4.16,0-1.86.74-3.64,2.05-4.95l7.29-7.29c1.37-1.37,3.16-2.05,4.95-2.05s3.58.68,4.95,2.05l.83.83,17.59-17.59c1.31-1.31,3.09-2.05,4.95-2.05s3.64.74,4.95,2.05l10.78,10.78c2.73,2.73,2.73,7.17,0,9.9l-17.59,17.59.83.83c2.73,2.73,2.73,7.17,0,9.9l-7.29,7.29c-1.31,1.31-3.09,2.05-4.95,2.05-1.51,0-2.96-.49-4.16-1.37l-35.94,35.94c-3.18,3.18-7.4,4.93-11.9,4.93Z"/>
    <g>
      <path class="cls-3" d="M201.02,151.56h57.75v19.66h-57.75c-5.42,0-9.83-4.4-9.83-9.83h0c0-5.42,4.4-9.83,9.83-9.83Z" transform="translate(-48.22 206.36) rotate(-45)"/>
      <polygon class="cls-3" points="273.32 102.28 250.78 124.82 245 119.04 237.71 126.33 260.04 148.66 267.33 141.37 261.55 135.59 284.09 113.05 273.32 102.28"/>
      <line class="cls-3" x1="191.25" y1="195.12" x2="201.09" y2="185.28"/>
      <line class="cls-3" x1="215.61" y1="156.87" x2="243.4" y2="156.87"/>
    </g>
  </g>
  <g>
    <path class="cls-1" d="M236.62,261.31c-15.06,0-27.32-12.25-27.32-27.32,0-23.02,21.66-43.18,22.58-44.03,1.34-1.23,3.04-1.84,4.74-1.84s3.4.61,4.74,1.84c.92.85,22.58,21.01,22.58,44.03,0,15.06-12.25,27.32-27.32,27.32Z"/>
    <g>
      <path class="cls-3" d="M256.94,233.99c0,11.22-9.1,20.32-20.32,20.32s-20.32-9.1-20.32-20.32c0-20.21,20.32-38.87,20.32-38.87,0,0,20.32,18.66,20.32,38.87Z"/>
      <line class="cls-3" x1="236.62" y1="224.83" x2="236.62" y2="242.05"/>
      <line class="cls-3" x1="245.23" y1="233.44" x2="228.01" y2="233.44"/>
    </g>
  </g>
</svg>