<?xml version="1.0" encoding="UTF-8"?>
<svg id="Layer_2" data-name="Layer 2" xmlns="http://www.w3.org/2000/svg" viewBox="0 0 300 300">
  <defs>
    <style>
      .cls-1 {
        stroke-dasharray: 0 0 2.28 4.55;
      }

      .cls-1, .cls-2, .cls-3, .cls-4, .cls-5, .cls-6, .cls-7 {
        fill: none;
        stroke: #231f20;
        stroke-linecap: round;
        stroke-linejoin: round;
      }

      .cls-1, .cls-2, .cls-3, .cls-4, .cls-5, .cls-7 {
        stroke-width: 2px;
      }

      .cls-2 {
        stroke-dasharray: 0 0 2.04 4.09;
      }

      .cls-3 {
        stroke-dasharray: 0 0 1.95 3.91;
      }

      .cls-5 {
        stroke-dasharray: 0 0 2 4.01;
      }

      .cls-6 {
        stroke-width: 4px;
      }

      .cls-7 {
        stroke-dasharray: 0 0 2.01 4.02;
      }
    </style>
  </defs>
  <g>
    <path class="cls-6" d="M216.14,143.63c-.99,14.69-.4,30.84-6.92,53.59s-38.43,55.66-59.3,55.66h-.11c-20.87,0-52.79-32.91-59.3-55.66-6.52-22.75-6.37-42.37-7.37-57.06"/>
    <path class="cls-6" d="M88.51,189.49c-15.23-2.1-26.49-34.13-2.2-51.9,24.29-17.78,75.31,14.47,89.56-35.45.66,16.23,12.53,26.1,28.14,33.46,15.61,7.36,37.1,28.27,8.23,49.15"/>
    <path class="cls-6" d="M76.48,180.3c-19.98-35.65-6.4-76.84,21.87-100.14,23.29-19.19,67.87-27.97,101.05-3.1,48.63,36.45,35.75,87.77,15.61,105.55"/>
    <path class="cls-6" d="M141.02,199.94c5.37,3.09,12,4.05,17.15,0"/>
    <path class="cls-6" d="M135.68,220.74c8.06,7.18,20.54,7.51,28.49.77"/>
    <path class="cls-6" d="M121.28,239.99v25.84"/>
    <path class="cls-6" d="M179.57,239.99v25.84"/>
    <path class="cls-6" d="M116.85,67c0-18.13,14.7-32.83,32.83-32.83s32.83,14.7,32.83,32.83"/>
    <path class="cls-6" d="M70.08,165.29c-2.76-65.25,61.07-38.31,76.75-61.72"/>
    <path class="cls-6" d="M101.81,159.11c13.94-11.02,29.73-5.35,34.91-2.63"/>
    <path class="cls-6" d="M197.48,159.11c-13.94-11.02-29.73-5.35-34.91-2.63"/>
    <path class="cls-6" d="M109.87,173.71c8.8,6.74,20.23,4.6,23.68,0"/>
    <path class="cls-6" d="M189.52,173.71c-8.8,6.74-20.23,4.6-23.68,0"/>
  </g>
  <g>
    <path class="cls-4" d="M134.64,184.6c-.19.27-.39.53-.61.79"/>
    <path class="cls-3" d="M131.33,188.21c-7.98,7.14-22.75,12.46-35.93,14.11"/>
    <path class="cls-4" d="M93.45,202.54c-.33.03-.67.06-1,.09"/>
  </g>
  <g>
    <path class="cls-4" d="M138.84,189.49c-.09.32-.19.64-.28.96"/>
    <path class="cls-2" d="M137.25,194.33c-5.27,14.27-14.91,25.39-24.78,31.65"/>
    <path class="cls-4" d="M110.73,227.03c-.29.17-.58.33-.87.49"/>
  </g>
  <g>
    <line class="cls-4" x1="150" y1="152.59" x2="150" y2="151.59"/>
    <line class="cls-1" x1="150" y1="147.03" x2="150" y2="135.65"/>
    <line class="cls-4" x1="150" y1="133.37" x2="150" y2="132.37"/>
  </g>
  <g>
    <path class="cls-4" d="M141.02,152.59c-.23-.24-.47-.47-.71-.7"/>
    <path class="cls-7" d="M137.28,149.24c-12.49-9.87-31.2-12.75-49.91-9.62"/>
    <path class="cls-4" d="M85.4,139.97c-.33.06-.65.13-.98.19"/>
  </g>
  <g>
    <path class="cls-4" d="M164.55,184.6c.19.27.39.53.61.79"/>
    <path class="cls-3" d="M167.86,188.21c7.98,7.14,22.75,12.46,35.93,14.11"/>
    <path class="cls-4" d="M205.74,202.54c.33.03.67.06,1,.09"/>
  </g>
  <g>
    <path class="cls-4" d="M160.35,189.49c.09.32.19.64.28.96"/>
    <path class="cls-2" d="M161.93,194.33c5.27,14.27,14.91,25.39,24.78,31.65"/>
    <path class="cls-4" d="M188.45,227.03c.29.17.58.33.87.49"/>
  </g>
  <g>
    <path class="cls-4" d="M158.17,152.59c.23-.24.47-.47.71-.71"/>
    <path class="cls-5" d="M161.89,149.24c11.87-9.38,29.34-12.45,47.1-10.05.91.12,1.65.63,2.38,1.17"/>
    <path class="cls-4" d="M213.04,141.47c.3.15.61.26.94.33"/>
  </g>
</svg>