<?xml version="1.0" encoding="UTF-8"?>
<svg id="Layer_2" data-name="Layer 2" xmlns="http://www.w3.org/2000/svg" viewBox="0 0 300 300">
  <defs>
    <style>
      .cls-1 {
        fill: #231f20;
        stroke-width: 0px;
      }

      .cls-2 {
        fill: none;
        stroke: #231f20;
        stroke-linecap: round;
        stroke-linejoin: round;
        stroke-width: 4px;
      }
    </style>
  </defs>
  <g>
    <path class="cls-2" d="M216.46,143.63c-.99,14.69-.4,30.84-6.92,53.59-6.52,22.75-38.43,55.66-59.3,55.66h-.11c-20.87,0-52.79-32.91-59.3-55.66-6.52-22.75-6.37-42.37-7.37-57.06"/>
    <path class="cls-2" d="M88.83,189.49c-15.23-2.1-26.49-34.13-2.2-51.9,24.29-17.78,75.31,14.47,89.56-35.45.66,16.23,12.53,26.1,28.14,33.46,15.61,7.36,37.1,28.27,8.23,49.15"/>
    <path class="cls-2" d="M76.8,180.3c-19.98-35.65-6.4-76.84,21.87-100.14,23.29-19.19,67.87-27.97,101.05-3.1,48.63,36.45,35.75,87.77,15.61,105.55"/>
    <path class="cls-2" d="M141.34,199.94c5.37,3.09,12,4.05,17.15,0"/>
    <path class="cls-2" d="M136,220.74c8.06,7.18,20.54,7.51,28.49.77"/>
    <path class="cls-2" d="M121.6,239.99v25.84"/>
    <path class="cls-2" d="M179.89,239.99v25.84"/>
    <path class="cls-2" d="M117.17,67c0-18.13,14.7-32.83,32.83-32.83s32.83,14.7,32.83,32.83"/>
    <path class="cls-2" d="M70.4,165.29c-2.76-65.25,61.07-38.31,76.75-61.72"/>
    <path class="cls-2" d="M102.13,159.11c13.94-11.02,29.73-5.35,34.91-2.63"/>
    <path class="cls-2" d="M197.8,159.11c-13.94-11.02-29.73-5.35-34.91-2.63"/>
    <path class="cls-2" d="M110.19,173.71c8.8,6.74,20.23,4.6,23.68,0"/>
    <path class="cls-2" d="M189.84,173.71c-8.8,6.74-20.23,4.6-23.68,0"/>
  </g>
  <circle class="cls-1" cx="252.54" cy="95.3" r="2.17"/>
  <circle class="cls-1" cx="215.21" cy="55.22" r="2.17"/>
  <circle class="cls-1" cx="54.65" cy="190.38" r="2.17"/>
  <circle class="cls-1" cx="99.95" cy="248.47" r="2.17"/>
  <g>
    <line class="cls-2" x1="248.26" y1="46.73" x2="248.26" y2="58.51"/>
    <line class="cls-2" x1="248.26" y1="67.64" x2="248.26" y2="79.41"/>
    <line class="cls-2" x1="257.68" y1="63.07" x2="252.83" y2="63.07"/>
    <line class="cls-2" x1="243.7" y1="63.07" x2="238.84" y2="63.07"/>
  </g>
  <g>
    <line class="cls-2" x1="247.01" y1="202.63" x2="247.01" y2="214.41"/>
    <line class="cls-2" x1="247.01" y1="223.54" x2="247.01" y2="235.32"/>
    <line class="cls-2" x1="256.43" y1="218.97" x2="251.57" y2="218.97"/>
    <line class="cls-2" x1="242.45" y1="218.97" x2="237.59" y2="218.97"/>
  </g>
  <g>
    <line class="cls-2" x1="72.5" y1="218.97" x2="72.5" y2="230.75"/>
    <line class="cls-2" x1="72.5" y1="239.88" x2="72.5" y2="251.66"/>
    <line class="cls-2" x1="81.92" y1="235.32" x2="77.07" y2="235.32"/>
    <line class="cls-2" x1="67.94" y1="235.32" x2="63.08" y2="235.32"/>
  </g>
</svg>