<?xml version="1.0" encoding="UTF-8"?>
<svg id="Layer_2" data-name="Layer 2" xmlns="http://www.w3.org/2000/svg" viewBox="0 0 300 300">
  <defs>
    <style>
      .cls-1 {
        fill: none;
        stroke: #231f20;
        stroke-linecap: round;
        stroke-linejoin: round;
        stroke-width: 4px;
      }
    </style>
  </defs>
  <path class="cls-1" d="M150,85.9c-13.91,0-16.67-11.48-30.37-11.48-37.1,0-42.63,56.21-85.8,73.99,11.71-1.55,22.97,13.69,31.47,31.36s18.11,40.86,35.89,46.93c17.78,6.07,32.91,1.55,48.81,1.55"/>
  <path class="cls-1" d="M33.83,148.41c35.04-6.37,36.37,7.19,63.31-8.87,29.15-17.37,39.31-5.15,52.86-5.15"/>
  <path class="cls-1" d="M69.04,147.64c22.07,0,21.48,6.18,43.27,9.42s33.87,1.62,37.69,1.62"/>
  <path class="cls-1" d="M150,85.9c13.91,0,16.67-11.48,30.37-11.48,37.1,0,42.63,56.21,85.8,73.99-11.71-1.55-22.97,13.69-31.47,31.36s-18.11,40.86-35.89,46.93c-17.78,6.07-32.91,1.55-48.81,1.55"/>
  <path class="cls-1" d="M266.17,148.41c-35.04-6.37-36.37,7.19-63.31-8.87-29.15-17.37-39.31-5.15-52.86-5.15"/>
  <path class="cls-1" d="M230.96,147.64c-22.07,0-21.48,6.18-43.27,9.42s-33.87,1.62-37.69,1.62"/>
  <path class="cls-1" d="M150,85.9c13.91,0,16.67-11.48,30.37-11.48,37.1,0,42.63,56.21,85.8,73.99-11.71-1.55-22.97,13.69-31.47,31.36s-18.11,40.86-35.89,46.93c-17.78,6.07-32.91,1.55-48.81,1.55"/>
  <path class="cls-1" d="M266.17,148.41c-35.04-6.37-36.37,7.19-63.31-8.87-29.15-17.37-39.31-5.15-52.86-5.15"/>
  <path class="cls-1" d="M230.96,147.64c-22.07,0-21.48,6.18-43.27,9.42s-33.87,1.62-37.69,1.62"/>
  <path class="cls-1" d="M148.82,215.07c3.98-8.54,5.45-16.64,3.68-20.47"/>
  <path class="cls-1" d="M115.53,131.47c1.45-1.72-1.98-7.8-2.53-8.24"/>
  <path class="cls-1" d="M187.43,131.47c-1.45-1.72,1.98-7.8,2.53-8.24"/>
  <polyline class="cls-1" points="28.31 290.82 75.42 243.71 57.09 225.38 23.08 259.39"/>
  <polyline class="cls-1" points="60.7 228.98 70.82 218.86 81.07 229.11 71.19 239"/>
  <line class="cls-1" x1="75.42" y1="223.46" x2="95.36" y2="203.53"/>
</svg>