<?xml version="1.0" encoding="UTF-8"?>
<svg id="Layer_2" data-name="Layer 2" xmlns="http://www.w3.org/2000/svg" viewBox="0 0 300 300">
  <defs>
    <style>
      .cls-1 {
        fill: #fff;
      }

      .cls-1, .cls-2 {
        stroke-width: 0px;
      }

      .cls-2 {
        fill: #231f20;
      }

      .cls-3 {
        fill: none;
        stroke: #231f20;
        stroke-linecap: round;
        stroke-linejoin: round;
        stroke-width: 4px;
      }
    </style>
  </defs>
  <g>
    <path class="cls-3" d="M215.96,151.63c-.99,14.69-.4,30.84-6.92,53.59s-38.43,55.66-59.3,55.66h-.11c-20.87,0-52.79-32.91-59.3-55.66s-6.37-42.37-7.37-57.06"/>
    <path class="cls-3" d="M88.33,197.49c-15.23-2.1-26.49-34.13-2.2-51.9s75.31,14.47,89.56-35.45c.66,16.23,12.53,26.1,28.14,33.46,15.61,7.36,37.1,28.27,8.23,49.15"/>
    <path class="cls-3" d="M76.29,188.31c-19.98-35.65-6.4-76.84,21.87-100.14,23.29-19.19,67.87-27.97,101.05-3.1,48.63,36.45,35.75,87.77,15.61,105.55"/>
    <path class="cls-3" d="M103.06,176.58c11.63-6.48,22.97-5.45,30.48,4.27"/>
    <circle class="cls-2" cx="118.3" cy="178.31" r="5.82"/>
    <path class="cls-3" d="M107.11,159.54c1.77-1.07,21.09-1.03,23.15,0"/>
    <path class="cls-3" d="M140.83,207.95c5.37,3.09,12,4.05,17.15,0"/>
    <path class="cls-3" d="M135.49,228.74c8.06,7.18,20.54,7.51,28.49.77"/>
    <path class="cls-3" d="M121.09,248v25.84"/>
    <path class="cls-3" d="M179.38,248v25.84"/>
    <path class="cls-3" d="M116.66,75.01c0-18.13,14.7-32.83,32.83-32.83s32.83,14.7,32.83,32.83"/>
    <path class="cls-3" d="M69.89,173.3c-2.76-65.25,61.07-38.31,76.75-61.72"/>
    <path class="cls-3" d="M191.97,176.58c-11.63-6.48-22.97-5.45-30.48,4.27"/>
    <circle class="cls-2" cx="176.73" cy="178.31" r="5.82"/>
    <path class="cls-3" d="M187.92,159.54c-1.77-1.07-21.09-1.03-23.15,0"/>
  </g>
  <g>
    <path class="cls-1" d="M172.3,225.67c-4.5-4.5-12.26-18.16-13.92-35.62-1.52-16.03,1.6-40.61,25.06-66.63,17.25-19.14,34.9-29.07,52.45-29.52,15.96-.41,31.06,6.73,46.16,21.83l.65.65c15.1,15.1,22.24,30.2,21.83,46.16-.45,17.55-10.39,35.2-29.52,52.45-26.02,23.46-50.6,26.57-66.63,25.06-17.46-1.65-31.12-9.41-35.62-13.92l-.46-.46Z"/>
    <path class="cls-3" d="M177.62,221.01l.06.06.06.06c5.72,5.72,46.89,29.76,92.55-11.39,45.66-41.15,23.6-72.21,7.43-88.38l-.33-.33-.33-.33c-16.17-16.17-47.23-38.23-88.38,7.43-41.15,45.66-17.11,86.83-11.39,92.55l.06.06.06.06.2.2Z"/>
    <line class="cls-3" x1="239.23" y1="102.56" x2="239.23" y2="117.32"/>
    <line class="cls-3" x1="168.67" y1="165.39" x2="184.46" y2="168.78"/>
    <line class="cls-3" x1="295.87" y1="159.2" x2="281.11" y2="159.2"/>
    <line class="cls-3" x1="233.04" y1="229.76" x2="229.65" y2="213.97"/>
    <path class="cls-3" d="M214.51,212.9c-7.48-.3-14.94-3.41-20.45-8.53-2.67-2.83-4.74-6.22-6.18-9.8-1.39-3.4-2.22-7.03-2.34-10.65-.11-3.24,2.43-5.95,5.68-6.06,2.7-.09,4.98,1.65,5.79,4.07,1.71,4.44,4.19,9.27,7.06,12.45,3.73,3.27,8.15,5.37,12.81,7.2,6.08,2.52,4.13,11.46-2.36,11.32h0Z"/>
    <path class="cls-3" d="M223.92,135.07c-4.71-5.97-11.53-10.05-17.03-5.26-5.5,4.79-2.9,13.73,2.68,20.02,5.48,6.17,14.51,10.12,17.32,8.34,4.01-2.69,1.73-17.13-2.98-23.1Z"/>
    <path class="cls-3" d="M263.36,174.51c5.97,4.71,10.05,11.53,5.26,17.03-4.79,5.5-13.73,2.9-20.02-2.68-6.17-5.48-10.12-14.51-8.34-17.32,2.69-4.01,17.13-1.73,23.1,2.98Z"/>
  </g>
</svg>