<?xml version="1.0" encoding="UTF-8"?>
<svg id="Layer_2" data-name="Layer 2" xmlns="http://www.w3.org/2000/svg" viewBox="0 0 300 300">
  <defs>
    <style>
      .cls-1 {
        fill: none;
        stroke: #231f20;
        stroke-linecap: round;
        stroke-linejoin: round;
        stroke-width: 4px;
      }
    </style>
  </defs>
  <g>
    <path class="cls-1" d="M216.46,143.43c-.99,14.69-.4,30.84-6.92,53.59s-38.43,55.66-59.3,55.66h-.11c-20.87,0-52.79-32.91-59.3-55.66s-6.37-42.37-7.37-57.06"/>
    <path class="cls-1" d="M88.83,189.29c-15.23-2.1-26.49-34.13-2.2-51.9,24.29-17.78,75.31,14.47,89.56-35.45.66,16.23,12.53,26.1,28.14,33.46,15.61,7.36,37.1,28.27,8.23,49.15"/>
    <path class="cls-1" d="M76.8,180.1c-19.98-35.65-6.4-76.84,21.87-100.14,23.29-19.19,67.87-27.97,101.05-3.1,48.63,36.45,35.75,87.77,15.61,105.55"/>
    <path class="cls-1" d="M141.34,199.74c5.37,3.09,12,4.05,17.15,0"/>
    <path class="cls-1" d="M136,220.54c8.06,7.18,20.54,7.51,28.49.77"/>
    <path class="cls-1" d="M121.6,239.79v25.84"/>
    <path class="cls-1" d="M179.89,239.79v25.84"/>
    <path class="cls-1" d="M117.17,66.8c0-18.13,14.7-32.83,32.83-32.83s32.83,14.7,32.83,32.83"/>
    <path class="cls-1" d="M70.4,165.09c-2.76-65.25,61.07-38.31,76.75-61.72"/>
    <path class="cls-1" d="M102.13,158.91c13.94-11.02,29.73-5.35,34.91-2.63"/>
    <path class="cls-1" d="M197.8,158.91c-13.94-11.02-29.73-5.35-34.91-2.63"/>
    <path class="cls-1" d="M110.19,173.51c8.8,6.74,20.23,4.6,23.68,0"/>
    <path class="cls-1" d="M189.84,173.51c-8.8,6.74-20.23,4.6-23.68,0"/>
  </g>
  <path class="cls-1" d="M75.27,210.33c24.63,0,34.91,18.43,34.91,35.79"/>
  <path class="cls-1" d="M75.27,224.2c15.09,0,21.38,11.29,21.38,21.92"/>
  <path class="cls-1" d="M75.27,235.58c7.25,0,10.28,5.43,10.28,10.54"/>
  <path class="cls-1" d="M48.07,259.81l4.29-5.67-2.69-10.4,3.82-3.82,12.66,12.66-8.84-8.84,4.56-4.56c1.38-1.38,3.61-1.38,4.98,0l13.46,13.46c1.38,1.38,1.38,3.61,0,4.98l-4.6,4.6,4.57,4.57-4.84,4.84-8.75-3.73-5.78,5.78"/>
</svg>