<?xml version="1.0" encoding="UTF-8"?>
<svg id="Layer_2" data-name="Layer 2" xmlns="http://www.w3.org/2000/svg" viewBox="0 0 300 300">
  <defs>
    <style>
      .cls-1, .cls-2 {
        fill: #fff;
      }

      .cls-1, .cls-3 {
        stroke: #231f20;
        stroke-linecap: round;
        stroke-linejoin: round;
        stroke-width: 4px;
      }

      .cls-2 {
        stroke-width: 0px;
      }

      .cls-3 {
        fill: none;
      }
    </style>
  </defs>
  <g>
    <path class="cls-3" d="M216.14,143.63c-.99,14.69-.4,30.84-6.92,53.59s-38.43,55.66-59.3,55.66h-.11c-20.87,0-52.79-32.91-59.3-55.66s-6.37-42.37-7.37-57.06"/>
    <path class="cls-3" d="M88.51,189.49c-15.23-2.1-26.49-34.13-2.2-51.9,24.29-17.78,75.31,14.47,89.56-35.45.66,16.23,12.53,26.1,28.14,33.46,15.61,7.36,37.1,28.27,8.23,49.15"/>
    <path class="cls-3" d="M76.48,180.3c-19.98-35.65-6.4-76.84,21.87-100.14,23.29-19.19,67.87-27.97,101.05-3.1,48.63,36.45,35.75,87.77,15.61,105.55"/>
    <path class="cls-3" d="M141.02,199.94c5.37,3.09,12,4.05,17.15,0"/>
    <path class="cls-3" d="M135.68,220.74c8.06,7.18,20.54,7.51,28.49.77"/>
    <path class="cls-3" d="M121.28,239.99v25.84"/>
    <path class="cls-3" d="M179.57,239.99v25.84"/>
    <path class="cls-3" d="M116.85,67c0-18.13,14.7-32.83,32.83-32.83s32.83,14.7,32.83,32.83"/>
    <path class="cls-3" d="M70.08,165.29c-2.76-65.25,61.07-38.31,76.75-61.72"/>
    <path class="cls-3" d="M101.81,159.11c13.94-11.02,29.73-5.35,34.91-2.63"/>
    <path class="cls-3" d="M197.48,159.11c-13.94-11.02-29.73-5.35-34.91-2.63"/>
    <path class="cls-3" d="M109.87,173.71c8.8,6.74,20.23,4.6,23.68,0"/>
    <path class="cls-3" d="M189.52,173.71c-8.8,6.74-20.23,4.6-23.68,0"/>
  </g>
  <path class="cls-2" d="M115.56,246.31c-3.61,0-7.79-1.39-14.32-3.65-1.65-.57-3.34-1.16-5.01-1.7-2.93-.95-5.84-1.67-8.42-2.3-3.3-.81-6.15-1.51-8.53-2.55-11.48-5.05-34.91-35.66-35.14-35.96-8.29-11.12-10.81-61.56-9.13-71.49,1.52-8.97,4.16-28.74,4.45-45.92.04-2.56,1.31-4.95,3.41-6.42,1.36-.95,2.97-1.45,4.59-1.45.88,0,1.75.14,2.6.44l28.12,9.68c3.14,1.08,5.29,4,5.39,7.32.27,8.64-1.67,19.65-3.53,30.29-1.24,7.08-2.42,13.82-2.7,18.53,11.11,12.57,15.69,29.93,15.73,37.22.46,1.21,2.67,3.99,4.15,5.86,4.03,5.07,9.05,11.38,10.04,19.34.38,3.11.14,5.65-.43,7.7,10.81,4.48,17.19,10.01,19.38,16.72,1.69,5.19.64,10.77-2.82,14.92-1.06,1.28-3.5,3.42-7.84,3.42Z"/>
  <path class="cls-2" d="M184.44,246.31c-4.34,0-6.78-2.14-7.84-3.42-3.46-4.16-4.52-9.73-2.82-14.93,2.19-6.71,8.57-12.23,19.38-16.72-.57-2.05-.81-4.59-.43-7.7.98-7.96,6-14.27,10.04-19.34,1.48-1.86,3.69-4.64,4.15-5.86.04-7.28,4.63-24.65,15.73-37.22-.28-4.71-1.46-11.45-2.7-18.53-1.87-10.65-3.8-21.66-3.53-30.29.1-3.32,2.25-6.24,5.39-7.32l28.12-9.68c.85-.29,1.73-.44,2.6-.44,1.62,0,3.23.49,4.59,1.45,2.1,1.47,3.37,3.86,3.41,6.42.29,17.18,2.93,36.95,4.45,45.92,1.68,9.93-.84,60.37-9.13,71.49-.23.3-23.66,30.91-35.14,35.96-2.37,1.04-5.22,1.74-8.52,2.55-2.57.63-5.49,1.35-8.42,2.3-1.67.54-3.36,1.13-5.01,1.7-6.53,2.26-10.71,3.65-14.32,3.65ZM206.96,178.2h0Z"/>
  <path class="cls-1" d="M47.47,82.87c-.29,17.52-2.94,37.55-4.56,47.12-1.62,9.57,1.62,57.28,7.66,65.37s24.59,30.18,31.95,33.42c3.32,1.46,9.47,2.38,16.2,4.56,8.2,2.67,16.93,6.36,18.55,4.42,2.94-3.53,6.48-15.17-28.27-23.85-9.28-13.4-24.94-33.18-21.5-29.45,6.99,7.58,16.93,23.15,20.47,26.25s12.7,4.53,11.37-6.18-14.36-19.21-14.25-25.95c.11-6.74-6.18-29.71-22.31-39.42,4.86,2.21,6.52,3.87,6.52,3.87,0-11.82,6.74-36.11,6.29-50.47"/>
  <path class="cls-1" d="M252.53,82.87c.29,17.52,2.94,37.55,4.56,47.12s-1.62,57.28-7.66,65.37c-6.04,8.1-24.59,30.18-31.95,33.42-3.32,1.46-9.47,2.38-16.2,4.56-8.2,2.67-16.93,6.36-18.55,4.42-2.94-3.53-6.48-15.17,28.27-23.85,9.28-13.4,24.94-33.18,21.5-29.45-6.99,7.58-16.93,23.15-20.47,26.25s-12.7,4.53-11.37-6.18,14.36-19.21,14.25-25.95c-.11-6.74,6.18-29.71,22.31-39.42-4.86,2.21-6.52,3.87-6.52,3.87,0-11.82-6.74-36.11-6.29-50.47"/>
</svg>