<?xml version="1.0" encoding="UTF-8"?>
<svg id="Layer_2" data-name="Layer 2" xmlns="http://www.w3.org/2000/svg" viewBox="0 0 300 300">
  <defs>
    <style>
      .cls-1 {
        fill: #fff;
      }

      .cls-1, .cls-2 {
        stroke-width: 0px;
      }

      .cls-2 {
        fill: #231f20;
      }

      .cls-3 {
        fill: none;
        stroke: #231f20;
        stroke-linecap: round;
        stroke-linejoin: round;
        stroke-width: 4px;
      }
    </style>
  </defs>
  <g>
    <path class="cls-3" d="M216.46,135.57c-.99,14.69-.4,30.84-6.92,53.59-6.52,22.75-38.43,55.66-59.3,55.66h-.11c-20.87,0-52.79-32.91-59.3-55.66-6.52-22.75-6.37-42.37-7.37-57.06"/>
    <path class="cls-3" d="M88.83,181.43c-15.23-2.1-26.49-34.13-2.2-51.9,24.29-17.78,75.31,14.47,89.56-35.45.66,16.23,12.53,26.1,28.14,33.46,15.61,7.36,37.1,28.27,8.23,49.15"/>
    <path class="cls-3" d="M76.8,172.25c-19.98-35.65-6.4-76.84,21.87-100.14,23.29-19.19,67.87-27.97,101.05-3.1,48.63,36.45,35.75,87.77,15.61,105.55"/>
    <path class="cls-3" d="M141.34,191.88c5.37,3.09,12,4.05,17.15,0"/>
    <path class="cls-3" d="M136,212.68c8.06,7.18,20.54,7.51,28.49.77"/>
    <path class="cls-3" d="M121.6,231.93v25.84"/>
    <path class="cls-3" d="M179.89,231.93v25.84"/>
    <path class="cls-3" d="M117.17,58.95c0-18.13,14.7-32.83,32.83-32.83s32.83,14.7,32.83,32.83"/>
    <path class="cls-3" d="M70.4,157.24c-2.76-65.25,61.07-38.31,76.75-61.72"/>
    <path class="cls-3" d="M102.13,151.06c13.94-11.02,29.73-5.35,34.91-2.63"/>
    <path class="cls-3" d="M197.8,151.06c-13.94-11.02-29.73-5.35-34.91-2.63"/>
    <path class="cls-3" d="M110.19,165.65c8.8,6.74,20.23,4.6,23.68,0"/>
    <path class="cls-3" d="M189.84,165.65c-8.8,6.74-20.23,4.6-23.68,0"/>
  </g>
  <g>
    <circle class="cls-1" cx="86.51" cy="223.68" r="38.46"/>
    <circle class="cls-3" cx="86.51" cy="223.68" r="33.02"/>
    <circle class="cls-3" cx="83.53" cy="209.76" r="5.3"/>
    <circle class="cls-3" cx="99.89" cy="235.72" r="5.3"/>
    <circle class="cls-3" cx="76.76" cy="233.12" r="9.44"/>
    <line class="cls-3" x1="81.65" y1="214.72" x2="79.35" y2="224.04"/>
    <line class="cls-3" x1="86.09" y1="234.55" x2="94.59" y2="235.72"/>
  </g>
  <circle class="cls-2" cx="138.96" cy="141.41" r="1.77"/>
  <circle class="cls-2" cx="148.24" cy="137.87" r="1.77"/>
  <circle class="cls-2" cx="151.77" cy="149.58" r="1.77"/>
  <circle class="cls-2" cx="150" cy="164.16" r="1.77"/>
  <circle class="cls-2" cx="148.9" cy="174.09" r="1.77"/>
  <circle class="cls-2" cx="151.77" cy="183.04" r="1.77"/>
  <circle class="cls-2" cx="128.69" cy="184.81" r="1.77"/>
  <circle class="cls-2" cx="106.94" cy="183.37" r="1.77"/>
  <circle class="cls-2" cx="119.08" cy="189.89" r="1.77"/>
  <circle class="cls-2" cx="123.17" cy="198.72" r="1.77"/>
  <circle class="cls-2" cx="126.15" cy="208" r="1.77"/>
  <circle class="cls-2" cx="129.13" cy="218.27" r="1.77"/>
  <circle class="cls-2" cx="138.96" cy="223.68" r="1.77"/>
  <circle class="cls-2" cx="151.77" cy="225.89" r="1.77"/>
  <circle class="cls-2" cx="132.22" cy="194.74" r="1.77"/>
  <g>
    <path class="cls-1" d="M237.68,267.23c-1.53,0-2.99-.58-4.1-1.63l-35.56-33.41c-1.31-1.23-2.82-2.21-4.48-2.91l-5.92-2.5c-3.03-1.28-5.78-3.08-8.17-5.35l-8.98-8.55c-2.7-2.57-4.21-6.04-4.27-9.76-.06-3.72,1.35-7.24,3.96-9.89l3.54-3.59c2.61-2.65,6.1-4.11,9.82-4.11,3.51,0,6.85,1.32,9.42,3.72l9.27,8.65c2.43,2.27,4.41,4.94,5.87,7.93l2.74,5.62c.88,1.8,2.08,3.38,3.58,4.71l45.82,40.45c1.85,1.64,2.52,4.29,1.65,6.6s-3.11,3.88-5.58,3.89c0,0-18.2.11-18.59.11Z"/>
    <g>
      <path class="cls-3" d="M237.68,261.23l-35.56-33.41c-1.83-1.72-3.94-3.09-6.25-4.07l-5.92-2.5c-2.35-.99-4.51-2.4-6.36-4.16l-8.98-8.55c-3.15-3-3.22-8-.17-11.09l3.54-3.59c2.96-3.01,7.78-3.11,10.86-.22l9.27,8.66c1.89,1.76,3.44,3.86,4.57,6.18l2.74,5.62c1.22,2.5,2.92,4.73,5,6.58l45.82,40.45"/>
      <line class="cls-3" x1="187.23" y1="219.58" x2="200.79" y2="205.82"/>
      <path class="cls-3" d="M176.11,209.98c1.53-6.54,16.32-5.22,17.14-12.21"/>
    </g>
  </g>
</svg>